<?xml version="1.0" encoding="utf-8"?>
<!-- Generator: Adobe Illustrator 26.0.3, SVG Export Plug-In . SVG Version: 6.00 Build 0)  -->
<svg version="1.1" id="Layer_1" xmlns="http://www.w3.org/2000/svg" xmlns:xlink="http://www.w3.org/1999/xlink" x="0px" y="0px"
	 viewBox="0 0 215 70" style="enable-background:new 0 0 215 70;" xml:space="preserve">
<style type="text/css">
	.st0{fill:#312F31;}
</style>
<g>
	<path class="st0" d="M10.7,21.9v-0.9H5.4c-1.2,0-2.2,1-2.2,2.2v0.9h5.4C9.7,24.1,10.7,23.1,10.7,21.9z"/>
	<path class="st0" d="M45.4,19.9h-0.8h-0.4l0,0c-1.9,0-3.7,0.8-5,2.1c-1.3,1.3-2.1,3.2-2.1,5c0,1.9,0.8,3.7,2.1,5l0.5,0.5
		c1.6,1.6,1.6,4.3,0,5.9l-0.5,0.4l-4.8-3.5l1.4-1.1V21.7c0-2.2-0.9-4.2-2.3-5.7c-1.5-1.5-3.5-2.3-5.7-2.3h-8l0,0h-2.5
		c-0.4,0-0.8,0.5-0.4,1l1.1,1.5L13,18c-0.7,0.2-1.1,0.8-1.1,1.4v5.5c0,0.4,0.2,0.9,0.4,1.2l1.4,1.4c0.3,0.3,0.8,0.5,1.2,0.5h2.3
		l-0.3,0.3c-0.3,0.3-0.7,0.7-0.9,1h-3.9L12,29.2c-1.5-2-3.4-3-5.6-3H3.3v4c0,0.7,0.2,1.3,0.7,1.7l2.7,3.5c-0.1,0-0.1,0-0.2,0H3.1
		v4.2c0,0.7,0.2,1.3,0.7,1.7L7.3,46c0.4,0.5,1.1,0.9,1.7,0.9h6.4c-0.2,0.5-0.3,1.2-0.3,1.9v2.4l2.1,1.6v0.1l-1.5,1.2h-2.4
		c-2.4,0-4.5,2-4.5,4.5v3.8H21l9-9.9l2.4,1.5h-0.9c-2.4,0-4.5,2-4.5,4.5v3.9h10.5l6.8-5.5l0.1-0.1c0.5-0.5,0.9-1.3,0.9-2.2
		c0-0.8-0.3-1.5-0.9-2.1l-3.8-4.6v-6.3l1.1-1.1c2.7-2.7,2.7-7.3,0-10.1l-0.5-0.5c-0.8-0.8-1.2-1.9-1.2-3c0-1.1,0.4-2.2,1.2-3
		c0.8-0.8,1.9-1.2,3-1.2l0,0h0.5v2.1c0,1.1,0.9,2.1,2.1,2.1h0.8V22C47.4,20.7,46.6,19.9,45.4,19.9z M27.8,16.7
		c1.3,0,2.6,0.5,3.6,1.5s1.5,2.2,1.5,3.6v11l-7.3,5.6l-5.5-3.5l-0.8-0.4c-0.7-0.4-1.1-1.1-1.2-1.9c-0.1-0.8,0.2-1.5,0.9-2.1l1.3-1.2
		l4.2-3.6l0.1-0.1c0.4-0.4,0.7-1,0.7-1.5v-3.5c0-0.5-0.2-1.1-0.7-1.5l-2.2-2.4C22.4,16.7,27.8,16.7,27.8,16.7z M15.5,25.1l-0.7-0.7
		v-4l5.1-2l2.2,2.4v2.8L20.7,25h-5.1V25.1z M17.1,37.3l-1.4,1.3h-3.5L12,38.4c-0.3-0.4-0.7-0.8-1-1.1H17.1z M6.1,30.2v-1.1h0.2
		c1.3,0,2.3,0.5,3.3,1.9l1.1,1.3h4.4c0,0.2,0,0.4,0,0.7c0,0.5,0.2,1,0.4,1.5h-6L6.1,30.2z M19.8,59.4h-7.9v-1.1
		c0-0.9,0.7-1.5,1.5-1.5h3.3l2.4-2l0.1-0.1c1.2-1.2,1.2-3.2,0-4.4L18,49.5v-1c0-1,0.8-1.9,1.9-1.9h0.7H23l0,0h3.2l1.3,1.1v1.5
		c0,0.4,0.1,1,0.3,1.4L19.8,59.4z M42.3,54.5L42.3,54.5c0.1,0.1,0.1,0.1,0.1,0.2c0,0,0,0,0,0.1l-5.9,4.7h-6.4v-1.1
		c0-0.9,0.7-1.5,1.5-1.5h3.8l0.4-0.4c0.5-0.5,0.9-1.3,0.8-2c0-0.8-0.4-1.4-1-2l-5.5-3.4v-2.6l-2.4-2c-0.5-0.4-1.1-0.7-1.7-0.7h-3.2
		l0,0H9.4L6,39.5v-1.1h0.3c1.3,0,2.3,0.5,3.4,1.9l1,1.3h6.1l3.3-3.1l5.5,3.5l6.1-4.7l5.8,4.3v6.6c0,0.8,0.3,1.4,0.9,1.9L42.3,54.5z"
		/>
	<path class="st0" d="M21,12.4h9c0.3,0,0.5-0.2,0.5-0.5V8.2c0-0.2-0.1-0.3-0.3-0.4c-0.2-0.1-0.3,0-0.5,0.1l-2,1.7l-1.9-1.7
		c-0.2-0.2-0.5-0.2-0.8,0l-2,1.6l-2-1.6c0-0.1-0.2-0.1-0.4,0s-0.3,0.2-0.3,0.4V12C20.4,12.2,20.7,12.4,21,12.4z"/>
</g>
<polygon class="st0" points="66.9,7.7 66.9,35.1 66.9,62.4 69.6,62.4 69.6,35.1 69.6,7.7 "/>
<g>
	<path d="M93.3,14.7c2.2,0,3.9,1.8,3.9,3.9s-1.8,3.9-3.9,3.9c-2.1,0-3.9-1.8-3.9-3.9S91.2,14.7,93.3,14.7z M90,47V25.3h6.7V47H90z"
		/>
	<path d="M122.3,40.8c-1.1,3.8-4.5,6.9-10,6.9c-6,0-11.3-4.3-11.3-11.6c0-7,5.2-11.5,10.9-11.5c6.7,0,10.9,4.2,10.9,11.2
		c0,0.9-0.1,1.9-0.1,2.1h-15.1c0.1,2.5,2.4,4.2,4.9,4.2c2.4,0,3.8-1.1,4.4-2.8L122.3,40.8z M116.2,33.6c-0.1-1.7-1.2-3.7-4.4-3.7
		c-2.8,0-4.2,2.1-4.3,3.7H116.2z"/>
	<path d="M126.9,55.4V25.3h6.4v2.2c0.9-1.4,3.3-2.8,6.4-2.8c6.3,0,10.1,4.8,10.1,11.3c0,6.7-4.3,11.4-10.4,11.4
		c-2.8,0-4.9-1-5.9-2.2v10H126.9z M138.4,30.8c-2.6,0-4.9,1.8-4.9,5.4c0,3.6,2.3,5.4,4.9,5.4c2.6,0,4.9-1.8,4.9-5.4
		C143.4,32.5,141,30.8,138.4,30.8z"/>
	<path d="M159.3,34.5l5.1-0.8c1.2-0.2,1.6-0.7,1.6-1.5c0-1.3-1.1-2.4-3.2-2.4c-2.3,0-3.6,1.6-3.7,3.2l-5.8-1.2
		c0.3-3.1,3.2-7.2,9.5-7.2c7,0,9.6,3.9,9.6,8.4v10.6c0,1.7,0.2,3.2,0.3,3.4h-6c0-0.2-0.2-1-0.2-2.5c-1.1,1.8-3.2,3.1-6.1,3.1
		c-4.8,0-7.5-3.2-7.5-6.6C152.9,37.2,155.7,35,159.3,34.5z M166,38.5v-1l-4.1,0.7c-1.4,0.2-2.5,0.9-2.5,2.4c0,1.1,0.7,2.2,2.6,2.2
		C164,42.8,166,41.9,166,38.5z"/>
	<path d="M178.1,47V25.3h6.3v2.5c1.1-1.9,3.9-3.2,6.3-3.2c3.1,0,5.3,1.3,6.4,3.4c1.7-2.5,3.8-3.4,6.7-3.4c4.1,0,8.1,2.4,8.1,8.3V47
		h-6.4V34.4c0-2.1-1.1-3.7-3.5-3.7c-2.4,0-3.6,1.8-3.6,3.7V47h-6.6V34.4c0-2.1-1.1-3.7-3.5-3.7c-2.3,0-3.6,1.8-3.6,3.8V47H178.1z"/>
</g>
</svg>
