<?xml version="1.0" encoding="utf-8"?>
<!-- Generator: Adobe Illustrator 26.0.3, SVG Export Plug-In . SVG Version: 6.00 Build 0)  -->
<svg version="1.1" id="Layer_1" xmlns="http://www.w3.org/2000/svg" xmlns:xlink="http://www.w3.org/1999/xlink" x="0px" y="0px"
	 viewBox="0 0 100 100" style="enable-background:new 0 0 100 100;" xml:space="preserve">
<style type="text/css">
	.st0{fill:#312F31;}
</style>
<g id="Layer_1_1_">
</g>
<g>
	<path class="st0" d="M24.6,27.2v-1.6h-9.2c-2.1,0-3.8,1.7-3.8,3.8V31H21C22.9,31,24.6,29.3,24.6,27.2z"/>
	<path class="st0" d="M84.7,23.8h-1.4h-0.7l0,0c-3.3,0-6.4,1.4-8.7,3.6c-2.3,2.3-3.6,5.5-3.6,8.7c0,3.3,1.4,6.4,3.6,8.7l0.9,0.9
		c2.8,2.8,2.8,7.4,0,10.2L74,56.5l-8.3-6.1l2.4-1.9V26.9c0-3.8-1.6-7.3-4-9.9c-2.6-2.6-6.1-4-9.9-4H40.4l0,0h-4.3
		c-0.7,0-1.4,0.9-0.7,1.7l1.9,2.6l-8.7,3.1c-1.2,0.3-1.9,1.4-1.9,2.4v9.5c0,0.7,0.3,1.6,0.7,2.1l2.4,2.4c0.5,0.5,1.4,0.9,2.1,0.9h4
		l-0.5,0.5c-0.5,0.5-1.2,1.2-1.6,1.7h-6.8l-0.2-0.2c-2.6-3.5-5.9-5.2-9.7-5.2h-5.4v6.9c0,1.2,0.3,2.3,1.2,2.9l4.7,6.1
		c-0.2,0-0.2,0-0.3,0h-5.9v7.3c0,1.2,0.3,2.3,1.2,2.9l6.1,8.1c0.7,0.9,1.9,1.6,2.9,1.6h11.1c-0.3,0.9-0.5,2.1-0.5,3.3v4.2l3.6,2.8
		v0.2L33.3,83h-4.2c-4.2,0-7.8,3.5-7.8,7.8v6.6h21.1l15.6-17.1l4.2,2.6h-1.6c-4.2,0-7.8,3.5-7.8,7.8v6.8H71l11.8-9.5l0.2-0.2
		c0.9-0.9,1.6-2.3,1.6-3.8c0-1.4-0.5-2.6-1.6-3.6l-6.6-8V61.3l1.9-1.9c4.7-4.7,4.7-12.6,0-17.5l-0.9-0.9c-1.4-1.4-2.1-3.3-2.1-5.2
		s0.7-3.8,2.1-5.2c1.4-1.4,3.3-2.1,5.2-2.1l0,0h0.9v3.6c0,1.9,1.6,3.6,3.6,3.6h1.4v-8.5C88.2,25.1,86.8,23.8,84.7,23.8z M54.2,18.2
		c2.3,0,4.5,0.9,6.2,2.6c1.7,1.7,2.6,3.8,2.6,6.2v19l-12.6,9.7l-9.5-6.1L39.5,49c-1.2-0.7-1.9-1.9-2.1-3.3c-0.2-1.4,0.3-2.6,1.6-3.6
		l2.3-2.1l7.3-6.2l0.2-0.2c0.7-0.7,1.2-1.7,1.2-2.6V25c0-0.9-0.3-1.9-1.2-2.6l-3.8-4.2C44.9,18.2,54.2,18.2,54.2,18.2z M32.9,32.8
		l-1.2-1.2v-6.9l8.8-3.5l3.8,4.2v4.8l-2.4,2.4h-8.8v0.2H32.9z M35.7,53.9l-2.4,2.3h-6.1l-0.3-0.3c-0.5-0.7-1.2-1.4-1.7-1.9
		C25.2,53.9,35.7,53.9,35.7,53.9z M16.7,41.6v-1.9H17c2.3,0,4,0.9,5.7,3.3l1.9,2.3h7.6c0,0.3,0,0.7,0,1.2c0,0.9,0.3,1.7,0.7,2.6
		H22.6L16.7,41.6z M40.4,92.1H26.7v-1.9c0-1.6,1.2-2.6,2.6-2.6H35l4.2-3.5l0.2-0.2c2.1-2.1,2.1-5.5,0-7.6L37.3,75v-1.7
		c0-1.7,1.4-3.3,3.3-3.3h1.2h4.2l0,0h5.5l2.3,1.9v2.6c0,0.7,0.2,1.7,0.5,2.4L40.4,92.1z M79.3,83.7L79.3,83.7
		c0.2,0.2,0.2,0.2,0.2,0.3c0,0,0,0,0,0.2l-10.2,8.1H58.2v-1.9c0-1.6,1.2-2.6,2.6-2.6h6.6l0.7-0.7c0.9-0.9,1.6-2.3,1.4-3.5
		c0-1.4-0.7-2.4-1.7-3.5l-9.5-5.9v-4.5l-4.2-3.5c-0.9-0.7-1.9-1.2-2.9-1.2h-5.5l0,0H22.4l-5.9-7.4v-1.9H17c2.3,0,4,0.9,5.9,3.3
		l1.7,2.3h10.6l5.7-5.4l9.5,6.1L61,53.9l10,7.4v11.4c0,1.4,0.5,2.4,1.6,3.3L79.3,83.7z"/>
	<path class="st0" d="M42.5,10.8h15.6c0.5,0,0.9-0.3,0.9-0.9V3.5c0-0.3-0.2-0.5-0.5-0.7c-0.3-0.2-0.5,0-0.9,0.2l-3.5,2.9L50.8,3
		c-0.3-0.3-0.9-0.3-1.4,0l-3.5,2.8L42.5,3c0-0.2-0.3-0.2-0.7,0c-0.3,0.2-0.5,0.3-0.5,0.7v6.4C41.4,10.4,41.9,10.8,42.5,10.8z"/>
</g>
</svg>
