<?xml version="1.0" encoding="utf-8"?>
<!-- Generator: Adobe Illustrator 26.0.3, SVG Export Plug-In . SVG Version: 6.00 Build 0)  -->
<svg version="1.1" id="Layer_1" xmlns="http://www.w3.org/2000/svg" xmlns:xlink="http://www.w3.org/1999/xlink" x="0px" y="0px"
	 viewBox="0 0 100 100" style="enable-background:new 0 0 100 100;" xml:space="preserve">
<style type="text/css">
	.st0{fill:#fff;}
	.st1{fill:#fff;}
</style>
<g id="Layer_1_1_">
</g>
<path class="st0" d="M51.2,24.8c0.1-3.8-0.2-8.7,0.5-13.5C52,9.1,52.6,7,53.3,5c0.8-2.2,2.1-3.7,4.5-3.8C60.4,1,62.4,2,63.7,4.3
	c1.2,2.3,1.8,4.8,2.1,7.3c0.7,5.5,0.6,11,0.5,16.6c0,3.4,0.3,6.8,0.9,10.2c0.2,1.1,0.5,2,1.7,2.3c1.3,0.3,1.9-0.6,2.4-1.5
	c2-3.1,3-6.6,4.1-10c1.3-3.8,2.7-7.5,4.8-10.9c0.3-0.5,0.6-1,1-1.5c1.4-1.5,3.1-2,5.1-1.7c1.8,0.2,2.2,1.7,2.8,3.1
	c0.6,1.5,0.6,3.1,0.5,4.6c-1.2,13.9-5.3,26.8-12.8,38.7C72,69.2,65.8,71.9,57.1,70c-3.5-0.8-7-1.7-10.6-1.4
	c-2.5,0.2-4.9,0.8-7.1,2.2c-0.8,0.5-1.6,1.1-2.1,2c-0.3,0.4-0.6,0.9-0.3,1.3c0.3,0.4,0.8,0.1,1.2,0c1.6-0.2,3.2-0.7,4.8-0.7
	c3.9-0.1,7.5,3.5,8,8.1c0.6,5.3-3.2,9.5-9.1,10c-4.6,0.4-8.6-1.2-11.9-4.2C24.2,82,19.8,75.7,16.4,68.5c-3.2-6.7-5.1-13.8-5.9-21.1
	c-0.1-1.2-0.1-2.5,0.1-3.7c0.2-1.5,1-2.7,2.5-3.1c1.6-0.4,2.9,0.1,3.9,1.4c0.7,0.9,1.2,1.8,1.7,2.7c1.5,3,3.1,6,4.9,8.9
	c0.7,1.1,1.4,2.1,2.3,3.1c1.2,1.2,2.8,1.5,4.2,0.8c1.5-0.7,1.7-2,1.6-3.5c-0.5-4.8-1.7-9.4-3-14.1c-1.3-4.6-2.5-9.2-3.5-14
	c-0.4-2.3-0.3-4.6,0.2-6.9c0.7-3.6,4.7-5.1,7.6-2.9c1.1,0.8,1.9,2,2.6,3.1c2.3,3.5,3.6,7.5,4.9,11.4c1.5,4.4,2.7,8.9,5.2,12.9
	c0.6,1,1,2.3,2.5,2.1c1.4-0.2,1.8-1.5,2.1-2.7c0.6-2.5,0.8-5,0.9-7.6C51.2,32.3,51.2,29.1,51.2,24.8z M66.6,63.4
	c4.2,0,7.4-3.3,7.4-7.5c0-4.2-3.3-7.5-7.5-7.5c-4.1,0-7.5,3.4-7.5,7.5C59.1,60.1,62.4,63.4,66.6,63.4z"/>
<path class="st1" d="M53.5,99.1c-0.9,0-2.3-0.1-3.7-0.2c-0.6,0-1.3-0.3-1.3-0.9c-0.1-0.6,0.6-0.6,1.1-0.8c1.3-0.5,2.7-0.9,4.1-1.3
	c12-3.3,20.4-11,26.5-21.5c2.5-4.3,4.3-8.8,5.6-13.5c0.2-0.7,0.4-1.4,0.6-2.1c0.2-0.8,0.5-1.7,1.5-1.5c0.9,0.2,0.4,1.1,0.4,1.8
	c-0.3,5.6-1.2,11.1-3.1,16.4c-3,8.1-7.6,15-15.2,19.6C65,97.9,59.6,99,53.5,99.1z"/>
</svg>
