<?xml version="1.0" standalone="no"?>
<!DOCTYPE svg PUBLIC "-//W3C//DTD SVG 20010904//EN"
 "http://www.w3.org/TR/2001/REC-SVG-20010904/DTD/svg10.dtd">
<svg version="1.0" xmlns="http://www.w3.org/2000/svg"
 width="1200.000000pt" height="628.000000pt" viewBox="0 0 1200.000000 628.000000"
 preserveAspectRatio="xMidYMid meet">

<g transform="translate(0.000000,628.000000) scale(0.100000,-0.100000)"
fill="#000000" stroke="none">
<path d="M6277 3780 c-149 -38 -237 -149 -253 -318 -16 -168 59 -313 191 -374
70 -32 210 -32 271 -1 85 45 144 145 144 243 0 50 -38 121 -78 143 -41 24
-138 33 -186 17 -45 -14 -66 -44 -66 -91 0 -48 25 -77 75 -87 48 -9 59 -37 21
-51 -48 -19 -112 14 -142 71 -19 37 -18 132 3 175 31 67 111 91 190 58 86 -36
153 -1 153 81 0 53 -37 94 -107 118 -59 20 -166 28 -216 16z"/>
<path d="M4365 3768 c-54 -30 -55 -30 -55 -345 l0 -292 24 -28 c24 -28 25 -28
167 -31 166 -4 207 7 263 68 74 82 74 204 0 281 l-25 26 20 34 c64 106 10 256
-104 288 -52 14 -264 14 -290 -1z m215 -168 c36 -36 20 -84 -32 -103 -36 -13
-48 2 -48 57 0 29 3 56 7 59 13 14 54 6 73 -13z m14 -256 c41 -41 2 -118 -57
-112 -32 3 -32 3 -35 66 l-3 62 40 0 c23 0 46 -7 55 -16z"/>
<path d="M4907 3756 c-14 -13 -29 -39 -32 -58 -4 -19 -5 -133 -3 -254 l3 -221
30 -49 c24 -37 45 -56 90 -79 52 -27 69 -30 145 -30 76 0 93 3 145 30 45 23
66 42 90 79 l30 49 3 235 c4 248 -1 279 -42 307 -30 22 -98 19 -129 -5 -39
-31 -47 -77 -47 -287 l0 -193 -25 -16 c-23 -15 -27 -15 -49 0 l-25 16 -3 221
-3 221 -33 29 c-43 38 -107 41 -145 5z"/>
<path d="M5532 3760 c-18 -11 -37 -32 -43 -47 -6 -16 -9 -135 -7 -311 l3 -284
34 -30 c30 -26 39 -30 78 -25 77 8 103 53 103 180 0 91 19 88 48 -7 50 -160
148 -222 228 -142 49 49 46 87 -10 168 -72 105 -71 104 -40 141 40 47 54 89
54 157 0 99 -46 166 -137 200 -77 29 -263 29 -311 0z m238 -180 c24 -24 25
-48 4 -78 -12 -18 -24 -22 -52 -20 -34 3 -37 6 -40 37 -6 59 5 81 38 81 17 0
39 -9 50 -20z"/>
<path d="M6745 3771 c-11 -5 -29 -19 -40 -31 -19 -21 -20 -38 -23 -312 l-3
-289 35 -35 34 -34 157 0 157 0 29 29 c21 22 29 39 29 66 0 76 -44 105 -160
105 l-71 0 3 33 3 32 71 5 c90 6 114 24 114 85 0 61 -24 79 -114 85 l-71 5 0
30 0 30 89 5 c81 5 90 8 112 33 35 41 33 100 -5 138 l-29 29 -149 -1 c-81 0
-157 -4 -168 -8z"/>
<path d="M7228 3765 c-55 -31 -58 -49 -58 -348 0 -268 0 -275 23 -308 41 -60
128 -63 171 -6 17 23 22 46 24 118 3 67 7 89 18 89 7 0 18 -19 24 -42 39 -153
125 -233 211 -198 16 7 36 25 44 41 25 48 18 83 -29 151 -72 106 -72 104 -38
143 41 46 55 95 50 175 -3 59 -8 75 -34 107 -17 21 -51 49 -75 63 -40 23 -56
25 -174 28 -102 2 -136 -1 -157 -13z m242 -197 c22 -40 -2 -82 -49 -86 -39 -4
-51 9 -51 55 0 53 9 64 48 61 28 -2 40 -10 52 -30z"/>
<path d="M4426 2990 c-37 -12 -85 -56 -102 -97 -20 -47 -20 -799 0 -846 44
-106 187 -140 272 -65 53 47 58 63 64 198 4 103 8 125 21 128 10 2 23 -15 40
-50 30 -65 105 -181 150 -232 38 -44 119 -86 164 -86 65 1 151 61 174 123 16
43 13 97 -9 142 -11 22 -62 90 -115 150 -52 61 -98 120 -101 133 -5 18 8 37
69 101 103 108 132 159 132 237 0 51 -4 66 -28 97 -50 66 -133 91 -202 63 -56
-24 -69 -38 -150 -161 -76 -116 -117 -161 -134 -150 -7 3 -11 43 -11 96 0 100
-13 140 -56 180 -49 44 -113 58 -178 39z"/>
<path d="M5423 2989 c-46 -13 -97 -69 -112 -120 -9 -32 -11 -147 -9 -425 l3
-380 27 -42 c33 -49 71 -71 137 -79 61 -7 128 21 165 69 42 56 48 118 44 496
-3 332 -4 349 -24 387 -28 51 -53 73 -101 91 -44 15 -84 16 -130 3z"/>
<path d="M5917 2985 c-22 -7 -50 -24 -63 -36 -49 -46 -54 -92 -54 -483 0 -221
4 -376 11 -399 34 -124 191 -168 280 -78 49 49 59 91 59 259 0 129 2 143 17
140 10 -2 52 -72 109 -182 101 -194 119 -219 179 -247 85 -39 181 -9 225 71
l25 45 0 395 c0 393 0 395 -23 438 -54 100 -191 120 -270 39 -45 -46 -52 -80
-52 -249 0 -204 -7 -202 -134 42 -102 198 -128 231 -194 250 -48 13 -68 12
-115 -5z"/>
<path d="M7195 2990 c-208 -38 -345 -173 -390 -386 -43 -204 13 -416 141 -534
179 -163 477 -170 642 -16 31 29 60 70 78 109 25 54 28 74 29 158 0 89 -2 99
-30 145 -24 37 -44 56 -90 79 -54 28 -66 30 -164 30 -146 0 -195 -29 -208
-123 -10 -74 35 -125 130 -147 91 -20 70 -75 -28 -75 -70 0 -134 40 -165 105
-27 56 -33 167 -11 228 42 122 186 172 307 108 78 -42 174 -18 208 53 66 140
-68 257 -311 270 -49 3 -110 1 -138 -4z"/>
<path d="M7566 1354 c-31 -30 -10 -94 30 -94 34 0 54 20 54 55 0 50 -50 73
-84 39z m64 -8 c16 -20 9 -56 -12 -70 -40 -24 -80 44 -42 71 23 17 39 16 54
-1z"/>
<path d="M7580 1317 c0 -15 6 -23 18 -23 12 0 19 9 20 23 1 17 -4 23 -18 23
-14 0 -20 -7 -20 -23z"/>
</g>
</svg>
