<?xml version="1.0" encoding="utf-8"?>
<!-- Generator: Adobe Illustrator 26.0.3, SVG Export Plug-In . SVG Version: 6.00 Build 0)  -->
<svg version="1.1" id="Layer_1" xmlns="http://www.w3.org/2000/svg" xmlns:xlink="http://www.w3.org/1999/xlink" x="0px" y="0px"
	 viewBox="0 0 700 218" style="enable-background:new 0 0 700 218;" xml:space="preserve">
<style type="text/css">
	.st0{fill-rule:evenodd;clip-rule:evenodd;fill:#FFFFFF;}
	.st1{fill-rule:evenodd;clip-rule:evenodd;fill:#0C0E0F;}
	.st2{fill-rule:evenodd;clip-rule:evenodd;fill:#9B895D;}
	.st3{fill-rule:evenodd;clip-rule:evenodd;fill:#D0B26F;}
	.st4{fill-rule:evenodd;clip-rule:evenodd;fill:#325E9E;}
	.st5{fill-rule:evenodd;clip-rule:evenodd;fill:#EECE79;}
	.st6{fill-rule:evenodd;clip-rule:evenodd;fill:#C82E37;}
</style>
<path class="st0" d="M590.6,126.4c-9.6,8.6-32.2,12.6-59.5,12.1c-12.1,9.6-44.3,11.6-80.1,11.6c-55.9,0-48.4,33.3-102.8,33.3
	s-47.4-33.3-102.8-33.3c-35.8,0-68-2-80.1-11.6c-27.2,0.5-49.9-3.5-59.5-12.1c-38.8-1-48.4-8.6-51.9-14.6c23.7,2,137.6,6,216.2,6
	c27.7,0,40.3-17.6,78.1-17.6s49.9,17.6,78.1,17.6c78.6,0,192.5-4,216.2-6C639,117.9,629.4,125.4,590.6,126.4L590.6,126.4z"/>
<path class="st1" d="M348.2,106.8c-29.7,0-54.4,14.1-54.4,32.2c0,17.6,24.7,33.8,54.4,33.8c30.2,0,54.4-16.1,54.4-33.8
	C402.7,120.9,378.5,106.8,348.2,106.8z"/>
<path class="st2" d="M396.6,139c0,16.6-21.7,30.2-48.4,30.2s-47.9-13.6-47.9-30.2c0-16.1,21.2-29.7,47.9-29.7S396.6,122.9,396.6,139
	z M348.2,112.3c-14.9-0.1-27.1,11.8-27.2,26.7c0,15.1,12.1,26.7,27.2,26.7c15.6,0,27.7-11.6,27.7-26.7
	C376,124.4,363.9,112.3,348.2,112.3z M373.4,117.4c5.6,5.8,8.6,13.6,8.6,21.7c0,8.6-3,16.6-8.6,22.2c11.1-4.5,18.6-13.1,18.6-22.2
	C392.1,130,384.5,121.9,373.4,117.4z M315,139c-0.1-8.1,3-15.8,8.6-21.7c-11.1,4.5-18.6,12.6-18.6,21.7c0,9.1,7.6,17.6,18.6,22.2
	C318,155.7,315,147.6,315,139L315,139z"/>
<path class="st2" d="M386.3,152.5c-1,2.8-2.3,5.4-3.9,7.9c-8.8,5.4-20.8,8.8-34.1,8.8c-14,0-26.4-3.7-35.1-9.6
	c-1.8-2.8-3.1-5.9-4.1-9.1c3.8,4.8,8.8,8.5,14.5,10.7c-5.5-5.5-8.6-13.6-8.6-22.2c-0.1-8.1,3-15.8,8.6-21.7
	c-5.5,2.1-10.4,5.5-14.2,10c1-3,2.3-5.9,4-8.6c8.7-5.8,21-9.4,34.9-9.4c13.2,0,25.2,3.3,33.9,8.6c1.6,2.4,2.8,4.9,3.9,7.6
	c-3.6-3.5-7.9-6.3-12.6-8.1c5.6,5.8,8.7,13.6,8.6,21.7c0,8.6-3,16.6-8.6,22.2C378.3,159.3,382.7,156.3,386.3,152.5L386.3,152.5z
	 M348.2,112.3c-14.9-0.1-27.1,11.8-27.2,26.7c0,15.1,12.1,26.7,27.2,26.7c15.6,0,27.7-11.6,27.7-26.7
	C376,124.4,363.9,112.3,348.2,112.3L348.2,112.3z"/>
<path class="st3" d="M323.2,149.6c-1.4-3.2-2.1-6.6-2.1-10v-0.2C321.1,142.8,321.8,146.3,323.2,149.6z"/>
<path class="st4" d="M356.3,157.2L356.3,157.2c3-1.5,5-1,7.1-3.5c2.5-2,2.5-4.5,3.5-7.1c0-0.5,0.5-1,0.5-1.5l4,2l-2.5,15.1l-3-2
	l-1.5,6.6L356.3,157.2z"/>
<path class="st2" d="M328.1,143.1c-0.6-1.1-1-2.3-1-3.5c0-3,2-4.5,3-7.6c1-3,1-5,3.5-7.6c2-2,4-1.5,7.1-3c3-1,4.5-2.5,7.6-2.5
	c3,0,4.5,1.5,7.6,2.5c3,1,5,1,7.1,2.5L328.1,143.1L328.1,143.1z M348.7,159.7c-3.5,0-4.5-1.5-8.1-2.5c-2.5-1-4.5-1-6.5-3l34.3-19.2
	c0.8,1.2,1.3,2.6,1.5,4c0,2.5-1.5,4-2.5,6c0,0.5-0.5,1-0.5,1.5c-0.4,0.6-0.5,1.3-0.5,2c-0.3,0.3-0.5,0.6-0.5,1c-0.3,1.6-1.2,3-2.5,4
	c-1.5,2-3.5,2-6,3c-0.5,0-1,0-1,0.5h-0.5C353.3,158.2,351.8,159.7,348.7,159.7L348.7,159.7z"/>
<path class="st5" d="M361.3,139c0.1,7.2-5.7,13.1-12.9,13.1c-0.1,0-0.1,0-0.2,0c-7.2-0.1-13-5.9-13.1-13.1c0-6.6,6-12.6,13.1-12.6
	C355.3,126.3,361.2,131.9,361.3,139z M348.2,123.9c-8.4-0.2-15.4,6.5-15.6,14.9c0,0.1,0,0.1,0,0.2c0.1,8.8,7.3,15.8,16.1,15.6
	c8.6-0.1,15.5-7.1,15.6-15.6C364.4,130.5,357.3,123.9,348.2,123.9z"/>
<path class="st2" d="M346.7,123.9c0.5,0,1.5,0,1.5,0.5l1.5,1.5c-0.3,0.4-0.9,0.5-1.3,0.2c-0.1-0.1-0.1-0.1-0.2-0.2L346.7,123.9z
	 M344.2,124.4h1.5l2,1.5c-0.5,0.5-1.5,1-1.5,0.5L344.2,124.4z M341.7,125.9c0-1,1-1,1.5-1l2,1.5c-0.5,0.5-1,1-1.5,0.5L341.7,125.9z
	 M339.2,126.9c0.1-0.5,0.7-0.8,1.2-0.7c0.1,0,0.2,0.1,0.3,0.2l2,0.5c0,1-0.5,1-1,1L339.2,126.9z M337.2,129c0-0.5,0.4-1,1-1
	c0,0,0,0,0,0l2.5,0.5c0,0.5-0.5,1-1,1L337.2,129z M335.6,131c0-1,0.5-1.5,1-1.5h2.5c0,1-0.5,1.5-1,1.5H335.6z M334.1,133
	c0-0.5,0.5-1,1-1l2-0.5c0.5,0.5,0,1-0.5,1.5L334.1,133z M333.1,135.5c0.1-0.4,0.2-0.7,0.5-1l2.5-1c0.5,0.5,0,1-0.5,1.5L333.1,135.5z
	 M332.6,138.5c0-1,0-1.5,0.5-1.5l2-1.5c0.4,0.3,0.5,0.9,0.2,1.3c-0.1,0.1-0.1,0.1-0.2,0.2L332.6,138.5z M333.1,141
	c-0.5-0.5-0.5-1.5,0-1.5l1.5-1.5c0.4,0.4,0.6,1,0.5,1.5L333.1,141z M333.6,143.6c-0.4-0.4-0.6-1-0.5-1.5l1.5-2c0.5,0.5,1,1,0.5,1.5
	L333.6,143.6z M334.6,146.1c-0.5-0.5-1-1-0.5-1.5l1-2c0.5,0,1,1,0.5,1L334.6,146.1z M336.1,148.1c-0.5,0-1-0.4-1-1c0,0,0,0,0,0
	l1-2.5c0.5,0.1,0.8,0.7,0.7,1.2c0,0.1-0.1,0.2-0.2,0.3L336.1,148.1z M337.7,150.1c-0.5,0-1-0.5-1-1l0.5-2.5c0.5,0,1,0.5,1,1
	L337.7,150.1z M339.7,152.1c-0.5,0-1-1-1-1.5v-2c0.5,0,1,0,1,0.5V152.1z M342.2,153.1c-0.5,0-1.5-0.5-1.5-1l-0.5-2
	c1-0.5,1.5,0,1.5,0.5L342.2,153.1z M344.7,154.1c-0.5-0.1-1-0.3-1.5-0.5l-1-2.5c1-0.5,1.5,0,1.5,0.5L344.7,154.1z M347.7,154.1
	c-1,0.5-1.5,0.5-2,0l-1-2c0.3-0.4,0.9-0.5,1.3-0.2c0.1,0.1,0.1,0.1,0.2,0.2L347.7,154.1z M350.3,154.1c-0.5,0.5-1.5,0.5-1.5,0
	l-1.5-1.5c0-0.5,1-0.5,1.5-0.5L350.3,154.1z M352.8,153.6c-0.4,0.4-1,0.6-1.5,0.5l-2-1.5c0.5-0.5,1-1,1.5-0.5L352.8,153.6z
	 M355.3,152.6c-0.1,0.5-0.7,0.8-1.2,0.7c-0.1,0-0.2-0.1-0.3-0.2l-2-1c0.1-0.5,0.7-0.8,1.2-0.7c0.1,0,0.2,0.1,0.3,0.2L355.3,152.6z
	 M357.8,151.6c-0.4,0.4-1,0.6-1.5,0.5l-2.5-1c0.5-0.5,1-1,1.5-0.5L357.8,151.6z M359.8,149.6c0,0.5-1,1-1.5,1l-2.5-0.5
	c0.5-0.5,1-1,1.5-1L359.8,149.6z M361.3,147.6c0,0.5-0.5,1-1,1h-2.5c0-0.5,0.5-1,1-1H361.3z M362.9,145.1c0,1-0.5,1.5-1,1.5
	l-2.5,0.5c0-0.5,0.5-1,1-1.5L362.9,145.1z M363.9,142.6c0,1-0.5,1.5-1,1.5l-2,1c-0.5-0.5,0-1,0.5-1.5L363.9,142.6z M363.9,140
	c0.5,0.5,0,1.5,0,1.5l-2.5,1.5c0-0.5,0-1.5,0.5-1.5L363.9,140z M363.9,137.5c0.5,0.5,0.5,1.5,0,1.5l-2,1.5c-0.4-0.3-0.5-0.9-0.2-1.3
	c0.1-0.1,0.1-0.1,0.2-0.2L363.9,137.5z M363.4,135c0.4,0.4,0.6,1,0.5,1.5l-2,2c-0.4-0.3-0.5-0.9-0.2-1.3c0.1-0.1,0.1-0.1,0.2-0.2
	L363.4,135z M362.3,132.5c0.5,0.5,1,1,0.5,1.5l-1,2c-0.5,0-1-1-1-1.5L362.3,132.5z M360.8,130c1,0.5,1,1,1,1.5l-1,2.5
	c-0.5-0.5-1-1-1-1.5L360.8,130z M359.3,128.4c0.5,0,1,0.5,1,1l-0.5,2.5c-0.5,0-1-0.5-1-1L359.3,128.4z M357.3,126.4c0.5,0,1,1,1,1
	v2.5c-0.5,0-1-0.5-1-1V126.4z M354.8,125.4c0.4,0.1,0.7,0.2,1,0.5l0.5,2.5c-0.5,0-1,0-1-0.5L354.8,125.4z M352.3,124.4
	c0.6-0.1,1.1,0.1,1.5,0.5l0.5,2.5c-0.6,0.1-1.1-0.1-1.5-0.5L352.3,124.4z M349.2,123.9c0.5,0,1.5,0,1.5,0.5l1.5,2
	c-0.5,0.5-1.5,0.5-1.5,0L349.2,123.9z"/>
<path class="st5" d="M369.4,146.1c1.5-2.5,2.5-4,2.5-7.1c0-3.5-1.5-5-3-8.1c-1.5-3.5-1.5-5.5-4-8.1c-2.5-2.5-5-2.5-8.1-3.5
	c-3.5-1.5-5-3-8.6-3s-5,1.5-8.1,3c-3.5,1.5-6,1.5-8.6,3.5c-2.5,2.5-2.5,5-3.5,8.1c-1.5,3.5-3,5-3,8.6c0,3.5,1.5,5,3,8.1
	c1.5,3,1.5,5.5,3.5,8.1c3,2.5,5.5,2,8.6,3.5c3.5,1,5,3,8.6,3c3.5,0,5-2,8.1-3h0.5l7.1,8.6l1.5-6.5l3,1.5l3.5-15.6L369.4,146.1z
	 M328.1,143.1c-0.6-1.1-1-2.3-1-3.5c0-3,2-4.5,3-7.6c1-3,1-5,3.5-7.6c2-2,4-1.5,7.1-3c3-1,4.5-2.5,7.6-2.5c3,0,4.5,1.5,7.6,2.5
	c3,1,5,1,7.1,2.5L328.1,143.1L328.1,143.1z M348.7,159.7c-3.5,0-4.5-1.5-8.1-2.5c-2.5-1-4.5-1-6.5-3l34.3-19.2
	c0.8,1.2,1.3,2.6,1.5,4c0,2.5-1.5,4-2.5,6c0,0.5-0.5,1-0.5,1.5c-0.4,0.6-0.5,1.3-0.5,2c-0.3,0.3-0.5,0.6-0.5,1c-0.3,1.6-1.2,3-2.5,4
	c-1.5,2-3.5,2-6,3c-0.5,0-1,0-1,0.5h-0.5C353.3,158.2,351.8,159.7,348.7,159.7L348.7,159.7z M363.4,164.2l-4.5-6
	c2.5-0.5,4.5-1,6.6-3c0.5-0.5,1-1,1-1.5L363.4,164.2z M367.9,160.2l-1.5-1l2.5-9.1l-1-0.5c0.5-0.5,0.5-1.5,1-2l1.5,0.5L367.9,160.2z
	"/>
<path class="st6" d="M348.2,128.4c-5.4,0.1-9.9,4.2-10.6,9.6l15.1-8.6C351.4,128.8,349.8,128.4,348.2,128.4z M343.7,148.6
	c1.3,0.9,2.9,1.5,4.5,1.5c5.8,0.1,10.6-4.3,11.1-10.1L343.7,148.6z"/>
<path class="st4" d="M332.6,153.1c-1-2-1.5-4-2.5-6.6c-0.5-0.5-0.5-1-1-1.5l34.8-19.7c1.5,2,1.5,3.5,3,6.6c0,0.5,0.5,1,1,1.5
	L332.6,153.1L332.6,153.1z"/>
<path class="st5" d="M340.7,135.5l1.5-3.5l0.5,1.5l3.5-4l0.5,1l1.5-1.5l-1.5,3l-0.5-1l-3.5,3.5l-0.5-0.5L340.7,135.5z M348.7,149.6
	l1.5-3.5l1,1l3.5-3.5l0.5,1l1.5-1.5l-1.5,3l-0.5-1l-3.5,3.5l-1-1L348.7,149.6z M337.7,141l1-0.5v3.5l1.5-1v-3.5l1-0.5v8.1l-1,0.5
	v-3.5l-1.5,1v3.5l-1,0.5V141z M343.2,142.1v-3l0.5-0.5c0.5,0,0.5,0,0.5,0.5v1.5c0,0.5,0,0.5-0.5,1L343.2,142.1z M344.7,141.6
	c0.5-0.5,0.5-0.5,0.5-1v-2c0-1-0.5-1.5-1.5-1l-1.5,1v8.1l1-0.5v-3.5h0.5l1,3l1-1L344.7,141.6z M346.7,140.5l-1.5-3.5l1-0.5l1,2.5
	l1-4l1-0.5l-1.5,5.5v3.5l-1,0.5L346.7,140.5z M350.8,138c-0.5,0.5-1,0-1-0.5v-2c0-1,0-1,1-1.5l1-0.5c0.5-0.5,1-0.5,1,0.5v1l-1,0.5
	V134l-1,0.5v3l1-0.5c0.5-0.5,1-0.5,1,0.5v2c0,1,0,1.5-1,2l-1,0.5c-0.5,0-1,0-1-0.5V140l0.5-0.5v1.5l2-0.5v-3L350.8,138z M353.8,132
	l1-0.5v7.6l1.5-1v1l-2.5,1.5V132z M356.8,130.5l3-1.5v0.5l-2,1v3l1.5-1v1l-1.5,0.5v3l2-1v1l-3,1.5V130.5z M361.4,131.5V129l0.5-0.5
	c0.3-0.3,0.7-0.3,1,0c0,0,0,0,0,0v2c0,0.3-0.2,0.5-0.5,0.5c0,0,0,0,0,0L361.4,131.5z M362.9,131.5c0.5-0.5,1-0.5,1-1.5v-2
	c-0.1-0.5-0.7-0.8-1.2-0.7c-0.1,0-0.2,0.1-0.3,0.2l-2,1v8.1l1-0.5v-3.5l0.5-0.5l1,3l1-0.5L362.9,131.5z M335.7,145.1v-2l-1.5,1v6
	l1.5-1v-1.5l1-0.5v1.5c0,1,0,1.5-1,1.5l-1,0.5c-0.5,0.5-1.5,0.5-1.5-0.5v-5.5c0-1,0.5-1.5,1.5-2l1-0.5c0.5,0,1,0,1,1v1.5
	L335.7,145.1z"/>
<path class="st1" d="M642,109.8c-23.2,1.5-136,5.5-215.7,5.5c-12.6,0-22.2-3.5-32.2-7.6c-11.6-4.5-25.2-9.6-45.9-9.6
	c-20.7,0-34.3,5-45.9,9.6c-10.1,4-19.6,7.6-32.2,7.6c-79.6,0-192.5-4-215.7-5.5l-4-0.5l1.5,3.5c3.5,6.6,12.6,14.6,52.9,15.6
	c13.1,11.1,42.8,12.6,59.5,12.1c11.1,8.1,35.3,11.6,81.1,11.6c27.2,0,38.8,8.1,50.4,16.6c12.1,8.1,24.7,16.6,52.4,16.6
	s40.3-8.6,51.9-16.6c12.1-8.6,23.7-16.6,50.9-16.6c45.3,0,70-3.5,80.6-11.6c17.1,0.5,46.9-1,60-12.1c40.3-1,49.4-9.1,52.4-15.6
	l2-3.5L642,109.8z M590.6,126.4c-9.6,8.6-32.2,12.6-59.5,12.1c-12.1,9.6-44.3,11.6-80.1,11.6c-55.9,0-48.4,33.3-102.8,33.3
	s-47.4-33.3-102.8-33.3c-35.8,0-68-2-80.1-11.6c-27.2,0.5-49.9-3.5-59.5-12.1c-38.8-1-48.4-8.6-51.9-14.6c23.7,2,137.6,6,216.2,6
	c27.7,0,40.3-17.6,78.1-17.6s49.9,17.6,78.1,17.6c78.6,0,192.5-4,216.2-6C639,117.9,629.4,125.4,590.6,126.4L590.6,126.4z"/>
<path class="st1" d="M638.5,112.3l1.5-0.5c-0.4,0.7-0.9,1.4-1.5,2H636C636.9,113.5,637.8,113,638.5,112.3z"/>
<path class="st1" d="M636,113.8c-12.6,5-54.9,10.1-204.6,10.1c-16.1,0-20.1-2-22.7-2s-3,2-2,4c1,1.7,1.9,3.6,2.5,5.5
	c-0.5-3.5,2.5-2.5,15.1-2.5c106.8,0,130-2,162.3-5.5c-13.6,9.1-91.7,9.6-153.7,9.6c-7.1,0.5-14.6,0.5-20.2,0.5c-2,0-3,0.5-2.5,2.5
	c0,1.5,0.5,4.5,0,6.6c2-2.5,1.5-4.5,14.1-4.5c63.5,0,91.7-2,103.3-3.5c-10.1,5.5-25.7,8.1-96.7,8.1c-30.2,0-33.8,33.3-82.6,33.3
	s-52.4-33.3-82.6-33.3c-71,0-86.7-2.5-96.7-8.1c11.6,1.5,39.8,3.5,103.3,3.5c12.6,0,12.1,2,14.1,4.5c-0.5-2,0-5,0-6.6
	c0.5-2-0.5-2.5-2.5-2.5c-5.5,0-13.1,0-20.2-0.5c-62,0-140.1-0.5-153.7-9.6c32.3,3.5,55.4,5.5,162.3,5.5c12.6,0,15.6-1,15.1,2.5
	c0.6-1.9,1.5-3.8,2.5-5.5c1-2,0.5-4-2-4s-6.6,2-22.7,2c-150.2,0-192-5-204.6-10.1H58c6,4,16.6,7.1,49.4,9.6
	c8.1,7.6,28.7,9.6,58.5,11.1c9.6,9.1,35.3,10.6,90.7,10.6c41.8,0,40.8,33.8,91.7,33.8s49.9-33.8,91.7-33.8
	c55.4,0,80.6-1.5,90.7-10.6c29.2-1.5,50.4-3.5,58.5-11.1c32.8-2.5,43.3-5.5,49.4-9.6H636z"/>
<path class="st1" d="M58,112.3l-1.5-0.5c0.4,0.7,0.9,1.4,1.5,2h2.5C59.6,113.5,58.7,113,58,112.3z M452.5,70h61v-6.5h-42.3V34.2
	h-18.6V70z M100.3,34.2V70H119V55.4h32.8V70h18.6V34.2h-18.6v14.6H119V34.2H100.3z M334.1,34.2l-17.6,15.1l-17.6-15.1h-21.7
	l26.2,21.2V70H322V55.4c0.5-0.5,24.7-21.2,24.7-21.2H334.1z M534.2,70h62v-6h-43.3v-9.1h41.8v-6h-41.8v-8.6h42.8v-6h-61.5V70
	L534.2,70z M362.3,43.8c0,8.1,9.6,10.1,23.2,11.6c13.6,2,20.2,2.5,20.2,5.5c0,2.5-4,4-15.6,4c-9,0-18-1.2-26.7-3.5
	c0,0.5-1.5,7.6-1.5,7.6c1.5,0.5,12.6,3,28.7,3c18.1,0,35.3-3,35.3-12.6c0-6.6-7.1-10.1-27.2-12.1c-8.1-1-16.6-1.5-16.6-4.5
	c0-2.5,2-3.5,14.1-3.5c11.6,0,21.7,2.5,23.2,2.5l1.5-6.5c-9.6-1.8-19.4-2.6-29.2-2.5C379,32.7,362.3,34.2,362.3,43.8L362.3,43.8z
	 M11.1,52.4C11.1,64,23.7,72,49.9,72c7.6,0,15.2-0.7,22.7-2l1.5-7.6C67.5,63.5,60.7,64,54,64c-14.6,0-24.7-3.5-24.7-11.6
	c0-8.6,9.6-12.1,24.7-12.1c6.7,0,13.5,0.5,20.2,1.5l-1.5-7.6c-7.3-1-14.8-1.6-22.2-1.5C23.7,32.7,11.1,40.3,11.1,52.4L11.1,52.4z
	 M199.1,70h18.6V40.8c3.2-0.5,6.4-0.6,9.6-0.5c3.5-0.1,7.1,0,10.6,0.5c5.5,0.5,7.6,2.5,7.6,5c0,2-2.5,4.5-8.1,5
	c-3.2,0.5-6.4,0.9-9.6,1c-2,0.1-4.1-0.1-6-0.5L242.9,70h23.7l-21.2-14.6c3.4-0.2,6.8-0.9,10.1-2c5.5-1.5,8.1-4.5,8.6-7.6
	c0-4.5-3-8.1-13.6-10.6c-7.5-1.1-15.1-1.7-22.7-1.5c-13.6,0-27.2,0.5-28.7,0.5L199.1,70L199.1,70z M620.8,70h18.6V40.8
	c3.3-0.5,6.7-0.6,10.1-0.5c3.5-0.1,7.1,0,10.6,0.5c5.5,0.5,7.6,2.5,7.1,5c0,2-2.5,4.5-8.1,5c-3.2,0.6-6.4,0.9-9.6,1
	c-1.9,0.1-3.7-0.1-5.5-0.5L665.2,70h23.7l-21.7-14.6c4.5-0.5,6.1-0.5,10.1-2c5.5-1.5,8.6-4.5,8.6-7.6c0-4.5-2.5-8.1-13.1-10.6
	c-7.7-1.1-15.4-1.7-23.2-1.5c-13.1,0-27.2,0.5-28.7,0.5L620.8,70L620.8,70z"/>
</svg>
