<?xml version="1.0" encoding="utf-8"?>
<!-- Generator: Adobe Illustrator 25.2.3, SVG Export Plug-In . SVG Version: 6.00 Build 0)  -->
<svg version="1.1" id="Layer_1" xmlns="http://www.w3.org/2000/svg" xmlns:xlink="http://www.w3.org/1999/xlink" x="0px" y="0px"
	 viewBox="0 0 170 45" style="enable-background:new 0 0 170 45;" xml:space="preserve">
<style type="text/css">
	.st0{fill:#293B7E;}
	.st1{fill:#0F9BD7;}
	.st2{fill:#1C3185;}
	.st3{fill:#FFFFFF;}
</style>
<path class="st0" d="M162,9.3c-1.1-1.4-2.7-2-4.8-2c-2.2,0-3.8,0.6-4.8,2c-1.1,1.4-1.6,2.9-1.6,4.7c0,1.8,0.5,3.4,1.6,4.7
	c1.1,1.3,2.7,2,4.8,2c2.2,0,3.8-0.6,4.8-2c1.1-1.4,1.6-2.9,1.6-4.7C163.7,12.3,163.1,10.7,162,9.3 M159.4,17c-0.5,0.7-1.3,1-2.2,1
	c-1,0-1.7-0.4-2.3-1c-0.5-0.7-0.8-1.6-0.8-2.9s0.3-2.3,0.8-2.9c0.5-0.7,1.3-1,2.3-1c1,0,1.7,0.4,2.2,1c0.5,0.7,0.8,1.6,0.8,2.9
	C160.2,15.3,160,16.3,159.4,17z"/>
<path class="st0" d="M134.9,8.2c-1.1-0.5-2.4-0.8-3.7-0.8c-2.2,0-3.6,0.5-4.5,1.6c-0.5,0.7-0.9,1.6-0.9,2.7h3.2
	c0.1-0.5,0.3-0.9,0.5-1.2c0.4-0.4,0.9-0.5,1.7-0.5c0.7,0,1.3,0.1,1.6,0.3c0.4,0.2,0.5,0.5,0.5,1.1c0,0.5-0.3,0.7-0.7,0.9
	c-0.3,0.1-0.7,0.2-1.4,0.3l-1.1,0.2c-1.3,0.2-2.3,0.5-2.9,0.8c-1.2,0.7-1.8,1.8-1.8,3.3c0,1.2,0.4,2.1,1.1,2.8
	c0.7,0.6,1.7,0.9,2.8,1c7.2,0.4,7.1-3.8,7.1-4.6v-4.7C136.5,9.8,136,8.8,134.9,8.2 M133.3,15.4c0,1.1-0.4,1.9-0.9,2.3
	c-0.6,0.5-1.3,0.6-2,0.6c-0.5,0-0.8-0.1-1.2-0.4c-0.4-0.3-0.5-0.6-0.5-1.3c0-0.6,0.3-1.1,0.8-1.4c0.3-0.2,0.8-0.4,1.5-0.5l0.7-0.2
	c0.4-0.1,0.6-0.2,0.9-0.3c0.2-0.1,0.5-0.2,0.6-0.3L133.3,15.4L133.3,15.4z"/>
<path class="st0" d="M118.5,10.2c0.8,0,1.4,0.3,1.8,0.7c0.3,0.4,0.5,0.8,0.5,1.3h3.5c-0.2-1.8-0.8-3.1-1.9-3.7
	c-1.1-0.7-2.4-1.1-4.1-1.1c-2,0-3.5,0.6-4.6,1.8c-1.1,1.2-1.6,2.9-1.6,5.1c0,1.9,0.5,3.4,1.5,4.7c1,1.2,2.5,1.8,4.7,1.8
	s3.7-0.7,4.8-2.2c0.7-0.9,1.1-1.8,1.2-2.8h-3.5c-0.1,0.6-0.3,1.2-0.6,1.6c-0.4,0.5-0.9,0.6-1.7,0.6c-1.2,0-1.9-0.5-2.4-1.5
	c-0.3-0.5-0.4-1.3-0.4-2.3s0.1-1.7,0.4-2.4C116.5,10.7,117.3,10.2,118.5,10.2"/>
<path class="st0" d="M111.2,7.5c-7.3,0-6.9,6.4-6.9,6.4v6.6h3.3v-6.2c0-1,0.1-1.7,0.4-2.3c0.5-0.9,1.4-1.3,2.6-1.3
	c0.1,0,0.3,0,0.4,0c0.2,0,0.4,0,0.5,0.1V7.6C111.4,7.6,111.3,7.6,111.2,7.5C111.3,7.5,111.2,7.5,111.2,7.5"/>
<path class="st0" d="M99,17.1c-0.2,0.2-0.3,0.4-0.5,0.5c-0.5,0.4-1.1,0.5-1.8,0.5c-0.7,0-1.3-0.1-1.7-0.5c-0.8-0.5-1.3-1.4-1.4-2.6
	h9.1c0-1.1,0-1.9-0.1-2.5c-0.2-1-0.5-1.8-1-2.6c-0.5-0.8-1.3-1.4-2.2-1.9c-0.9-0.4-1.9-0.5-3-0.5c-1.8,0-3.3,0.5-4.5,1.7
	c-1.2,1.2-1.7,2.8-1.7,5c0,2.4,0.6,4,1.9,5.1c1.3,1,2.7,1.5,4.4,1.5c2,0,3.6-0.6,4.7-1.8c0.6-0.6,1-1.3,1.2-1.9H99 M94.5,10.8
	c0.5-0.5,1.1-0.7,2-0.7c0.8,0,1.4,0.2,2,0.6c0.5,0.5,0.8,1.1,0.9,2h-5.7C93.8,12,94.1,11.4,94.5,10.8z"/>
<path class="st0" d="M88.9,20.4h-3v-7.6c0-0.7-0.3-2.4-2.3-2.4c-1.4,0-2.3,1-2.3,2.4v7.6h-3v-7.6c0-0.7-0.2-2.4-2.2-2.4
	c-1.4,0-2.3,1-2.3,2.4v7.6h-3v-7.5c0-3.2,2.1-5.5,5.3-5.5c1.6,0,2.9,0.6,3.8,1.7C81,8,82.4,7.4,83.9,7.4c3.3,0,5.2,2.3,5.2,5.5v7.5"
	/>
<path class="st0" d="M149.8,3.5c0,0-3.3-0.4-3.3,2.4v3.5c-0.4-0.6-0.8-1.1-1.4-1.4c-0.6-0.4-1.3-0.5-2-0.5c-1.6,0-3,0.6-4,1.8
	c-1,1.3-1.4,3-1.4,5.2c0,1.9,0.5,3.3,1.5,4.6c1,1.2,3,1.7,4.7,1.7c6.1,0,6.1-5.2,6.1-5.2L149.8,3.5 M145.8,17c-0.5,0.7-1.2,1-2.1,1
	s-1.6-0.4-2.1-1.1S141,15.2,141,14c0-1.1,0.2-2,0.6-2.7s1.2-1.1,2.1-1.1c0.6,0,1.2,0.2,1.6,0.6c0.8,0.6,1.2,1.8,1.2,3.3
	C146.6,15.4,146.3,16.3,145.8,17z"/>
<path class="st1" d="M95,41.5c0,0.5-0.2,0.8-0.5,1.2c-0.4,0.4-0.7,0.5-1.2,0.5h-1.6V31.6c0-2.3,0.7-3.6,2-4.6
	c0.8-0.6,2.1-1.3,4.3-1.3c1.5,0,3.3,0.6,4.3,1.8c1.1,1.4,1.5,2.8,1.5,4.8s-0.5,3.6-1.4,4.9c-1,1.2-2.3,1.8-3.7,1.8
	c-0.8,0-1.5-0.2-2.2-0.5c-0.6-0.4-1.2-0.8-1.5-1.4L95,41.5 M100.6,32.6c0-1.3-0.3-2.2-0.7-2.9c-0.5-0.6-1.2-1-2.1-1s-1.5,0.4-2.1,1
	c-0.5,0.6-0.7,1.5-0.7,2.9c0,1.2,0.3,2.2,0.7,2.7c0.5,0.6,1.2,1,2.1,1c0.8,0,1.5-0.4,2-1C100.3,34.6,100.6,33.7,100.6,32.6"/>
<path class="st1" d="M125.8,38.1v-0.8c-0.5,0.9-1.4,1.4-2.4,1.7c-1,0.2-1.9,0.2-2.9-0.3c-1-0.4-1.8-1.1-2.4-2.2
	c-0.7-1.1-1-2.4-1-4.1c0-2,0.5-3.6,1.4-4.8c0.9-1.3,2.4-1.8,4.3-1.8c2-0.1,3.2,0.4,4.3,1.3c1.3,0.9,2,2.4,2,4.6v6.8
	c0,2.2-1.5,6.2-6.2,5.8c-2.9-0.2-4.5-1.4-5.4-4.2h3.5c0.3,0.5,0.6,0.8,1.2,1c0.5,0.3,1.1,0.3,1.5,0.2c0.5-0.1,1-0.5,1.4-0.9
	C125.6,39.9,125.8,39.1,125.8,38.1 M120.4,32.6c0,2.2,0.6,3.4,1.9,3.7c1.3,0.3,2.2-0.1,2.8-0.9c0.3-0.4,0.5-0.9,0.6-1.6
	c0.1-0.7,0.2-1.5,0-2.3c-0.1-0.7-0.4-1.4-0.8-2c-0.5-0.5-1-0.9-1.8-0.9c-1.1,0-1.8,0.4-2.2,1.2C120.6,30.6,120.4,31.5,120.4,32.6"/>
<path class="st1" d="M114.4,26.7c-1.1-0.5-2.4-0.8-3.7-0.8c-2.2,0-3.6,0.5-4.5,1.6c-0.5,0.7-0.9,1.6-0.9,2.7h3.2
	c0.1-0.5,0.3-0.9,0.5-1.2c0.4-0.4,0.9-0.5,1.7-0.5c0.7,0,1.3,0.1,1.6,0.3c0.4,0.2,0.5,0.5,0.5,1.1c0,0.5-0.3,0.7-0.7,0.9
	c-0.3,0.1-0.7,0.2-1.4,0.3l-1.1,0.2c-1.3,0.2-2.3,0.5-2.9,0.8c-1.2,0.7-1.8,1.8-1.8,3.3c0,1.2,0.4,2.1,1.1,2.8
	c0.7,0.6,1.7,0.9,2.8,1c7.2,0.4,7.1-3.8,7.1-4.6v-4.8C116,28.3,115.4,27.2,114.4,26.7 M112.6,33.9c0,1.1-0.4,1.9-0.9,2.3
	c-0.6,0.5-1.3,0.6-2,0.6c-0.5,0-0.8-0.1-1.2-0.4c-0.4-0.3-0.5-0.6-0.5-1.3s0.3-1.1,0.8-1.4c0.3-0.2,0.8-0.4,1.5-0.5l0.7-0.2
	c0.4-0.1,0.6-0.2,0.9-0.3c0.2-0.1,0.5-0.2,0.6-0.4L112.6,33.9L112.6,33.9z"/>
<path class="st1" d="M141.7,27.8c-1.1-1.4-2.7-2-4.8-2c-2.2,0-3.8,0.6-4.8,2c-1.1,1.4-1.6,2.9-1.6,4.7s0.5,3.4,1.6,4.7
	c1.1,1.3,2.7,2,4.8,2c2.2,0,3.8-0.6,4.8-2c1.1-1.4,1.6-2.9,1.6-4.7C143.2,30.7,142.8,29,141.7,27.8 M139.1,35.4
	c-0.5,0.7-1.3,1-2.2,1c-1,0-1.7-0.4-2.3-1c-0.5-0.7-0.8-1.6-0.8-2.9s0.3-2.3,0.8-2.9c0.5-0.7,1.3-1,2.3-1c1,0,1.7,0.4,2.2,1
	c0.5,0.7,0.8,1.6,0.8,2.9C139.8,33.7,139.5,34.6,139.1,35.4"/>
<g>
	<path class="st2" d="M61.7,21.5v1.1c0,11.2-11.4,20.3-29.3,20.3c-13.8,0-23.8-5.4-27.7-13.1c-1.1-2.3-1.7-4.7-1.7-7.2
		c0-0.1,0-0.8,0-1.1c0-0.3,0-0.5,0-0.8c0.3-5,3.5-9.4,8.5-12.8c2.5-1.7,5.6-3.1,9-4C24,2.8,28,2.2,32.3,2.2
		C48.6,2.3,61.7,10.9,61.7,21.5z"/>
	<path class="st1" d="M60.6,21.5c0,10-12.7,18.1-28.2,18.1c-10.9,0-20.3-3.9-25-9.7c-2-2.4-3.2-5.2-3.3-8.2c0-0.1,0-0.1,0-0.2
		C4.1,16,8,11,14.3,7.7c0.4-0.2,0.7-0.4,1.1-0.5c0.5-0.3,1.2-0.5,1.8-0.8c1-0.5,2.1-0.8,3.3-1.2c3.6-1.1,7.7-1.7,12-1.7
		C47.9,3.5,60.6,11.6,60.6,21.5z"/>
	<path class="st2" d="M32.4,28c-0.1,2.4-1.4,3-3,3.3c-1.6,0.4-5.2,0.5-8.7,0.6c-3.4,0.2-6.7-0.4-8.3-0.5c-1.6-0.3-3.3-0.7-3.8-0.7
		c-0.5,0-0.7,0.3-1.4,1.1c0,0-1.4-0.6-2.6-1.7c-1.1-2.3-1.7-4.7-1.7-7.3c0-0.1,0-0.9,0-1.2s0-0.5,0-0.8c0.7-0.2,1.9-0.3,3.8-0.4
		c3.2-0.2,5.2,0.2,9.2,1.3c4,1.2,5.7,1.9,5.7,1.9c-0.5-1.4-0.5-3.6-0.4-5.9c0.1-2.3,0-3.7-0.5-5.2c-0.5-1.4-1-2.7-1-2.7
		s-0.5,0.1-1.3,0.1s-1.8-0.3-2.8-0.7c-1-0.5-2-0.7-3.5-1.1c-0.3-0.1-0.5-0.1-0.6-0.2c-1-0.5-1-1.3-0.7-1.9c0.4-0.7,1.3-0.7,1.3-0.7
		s-0.4-0.4-0.4-1c0.1-0.7,0.8-1.4,1.4-1.8c0.6-0.5,1.4-1.1,2.3-1.5c0.8-0.5,1.7-0.3,2.1,0c0.4,0.3,0.8,0.7,1.8,1.7
		c0.4,0.4,0.7,0.7,1.3,1.3c1,1,2.2,2.3,3.1,3.4C25,9,26.2,11.4,27,13.5c0.8,2.1,3.1,7,3.6,8.4C31.4,23.2,32.5,25.7,32.4,28z"/>
	<path class="st3" d="M31.2,29.4c-0.7,0.8-1.8,1.1-3.7,1.2c-1.6,0.1-4.5,0.4-6,0.4s-3.1,0-6-0.3c-4.8-0.5-5.7-1-6.8-1.1
		c-0.6,0-1,0.3-1.4,0.5c-2.1-2.5-3.3-5.3-3.3-8.3c2.6-0.4,5.7-0.5,10.7,0.7c5.7,1.4,8.7,3.2,8.7,3.2s-0.7-1.2-0.9-3.5
		c-0.2-2.4,0-6.6-0.4-8.5c-0.3-1.9-1.1-3.3-1.5-4.3c-0.5-0.6-1.3-0.4-1.9-0.4c-0.6,0-2.3-0.5-2.9-1c-0.3-0.2-0.9-0.4-1.5-0.5
		c-0.8-0.2-1.6-0.3-1.8-0.4c-0.4-0.1-0.9-0.4-0.7-0.9c0.3-0.5,1.4-0.1,2.1,0.3c0.5,0.3,0.8,0.5,1.4,0.4c0.1,0,0.1,0,0.2-0.1
		c0.8-0.3,1.1-0.5,1.4,0s0.9,1.2,1.4,1.2c0.5,0.1,0.8,0,0.8,0s-1.4-1.3-2-1.9l-0.1-0.1c-0.5-0.5-0.7-1-0.5-1.5
		C16.8,4.1,17,3.8,17,3.8S16.7,3.9,16.4,4c-0.2,0.1-0.5,0.5-0.5,0.5S15.5,4.4,15.4,4s-0.3-0.8-0.3-0.8S14.9,3.9,15,4.5
		c0,0-0.1,0.2-0.6,0.1c0,0,0.2,0.3,0.6,0.3c0,0,0,0.4,0,0.5c0,0,0.3-0.1,0.5-0.3c0.2-0.2,0.5-0.2,0.5,0c0.1,0.1,0.4,0.5,0.4,0.6
		c0,0.2-0.3,0.3-0.5,0.4c-0.3,0.1-0.6,0.3-1,0.2c-0.4-0.1-0.7-0.4-1.1-0.8c-0.4-0.5-0.9-0.9-0.9-1.4c0-0.4,1.2-1.1,1.7-1.4
		c0.5-0.4,1.4-1,1.5-1.1c0.2-0.1,0.6-0.5,1.3,0.1c0.5,0.5,2.2,2.2,3.2,3.2c0.3,0.3,0.5,0.5,0.6,0.6c0.5,0.5,1.7,1.9,2.3,2.9
		c0.5,1,2.9,5.9,4,8.2c1.1,2.4,3.3,7.7,3.7,8.8C31.5,26.6,31.9,28.6,31.2,29.4z"/>
	<path class="st2" d="M32.3,28c0.1,2.4,1.4,3,3,3.3c1.6,0.4,5.2,0.5,8.7,0.6c3.4,0.1,6.6-0.4,8.2-0.5c1.6-0.3,3.3-0.7,3.8-0.7
		c0.5,0,0.7,0.3,1.4,1.1c0,0,1.4-0.6,2.6-1.7c1.1-2.3,1.7-4.7,1.7-7.3c0-0.1,0-0.9,0-1.2s0-0.5,0-0.8c-0.7-0.2-1.9-0.3-3.8-0.4
		c-3.2-0.1-5.2,0.2-9.1,1.3c-4,1.2-5.7,1.9-5.7,1.9c0.5-1.4,0.5-3.6,0.4-5.9c-0.1-2.3,0-3.7,0.5-5.2c0.5-1.4,1-2.7,1-2.7
		s0.5,0.1,1.3,0.1s1.8-0.3,2.8-0.7c1-0.5,2-0.7,3.5-1.1c0.3-0.1,0.5-0.1,0.6-0.2c1-0.5,1-1.3,0.7-1.9c-0.4-0.7-1.3-0.7-1.3-0.7
		s0.4-0.4,0.4-1c-0.1-0.7-0.8-1.4-1.4-1.8C50.8,2,50,1.3,49.2,0.9c-0.8-0.5-1.7-0.3-2.1,0c-0.4,0.3-0.8,0.7-1.8,1.7
		C44.9,3,44.6,3.3,44,3.9c-1,1-2.2,2.3-3.1,3.4c-1.3,1.7-2.4,4.1-3.3,6.2c-0.8,2.1-3.1,7-3.6,8.4C33.3,23.2,32.2,25.7,32.3,28z"/>
	<path class="st3" d="M33.6,29.4c0.7,0.8,1.8,1.1,3.7,1.2c1.6,0.1,4.5,0.4,6,0.4c1.4,0,3.1,0,6-0.3c4.8-0.5,5.6-1,6.8-1.1
		c0.6,0,1,0.3,1.3,0.5c2.1-2.5,3.3-5.3,3.3-8.3c-2.6-0.4-5.7-0.5-10.6,0.7c-5.7,1.4-8.7,3.2-8.7,3.2s0.7-1.2,0.9-3.5
		c0.2-2.4,0-6.6,0.4-8.5c0.3-1.9,1.1-3.3,1.5-4.3c0.5-0.6,1.3-0.4,1.9-0.4c0.6,0,2.3-0.5,2.9-1c0.3-0.2,0.9-0.4,1.5-0.5
		c0.8-0.2,1.6-0.3,1.8-0.4c0.4-0.1,0.9-0.4,0.6-0.9s-1.4-0.1-2.1,0.3C50.3,6.8,50,7,49.4,6.8c-0.1,0-0.1,0-0.2-0.1
		c-0.8-0.3-1.1-0.5-1.4,0c-0.4,0.5-0.9,1.2-1.4,1.2c-0.5,0.1-0.8,0-0.8,0s1.4-1.3,2-1.9l0.1-0.1c0.5-0.5,0.7-1,0.5-1.5
		c-0.2-0.3-0.4-0.6-0.4-0.6S48,3.9,48.3,4c0.2,0.1,0.5,0.5,0.5,0.5s0.4-0.1,0.5-0.5s0.3-0.8,0.3-0.8s0.3,0.6,0.2,1.3
		c0,0,0.1,0.2,0.6,0.1c0,0-0.2,0.3-0.6,0.3c0,0,0,0.4,0,0.5c0,0-0.3-0.1-0.5-0.3c-0.2-0.2-0.5-0.2-0.5,0c-0.1,0.1-0.4,0.5-0.4,0.6
		c0,0.2,0.3,0.3,0.5,0.4c0.3,0.1,0.6,0.3,1,0.2c0.4-0.1,0.7-0.4,1.1-0.8c0.4-0.5,0.9-0.9,0.9-1.4c0-0.4-1.2-1.1-1.7-1.4
		c-0.5-0.4-1.4-1-1.5-1.1c-0.2-0.1-0.6-0.5-1.3,0.1c-0.5,0.5-2.2,2.2-3.2,3.2c-0.3,0.3-0.5,0.5-0.6,0.6c-0.5,0.5-1.7,1.9-2.3,2.9
		s-2.9,5.9-4,8.2s-3.3,7.7-3.7,8.8C33.2,26.6,32.8,28.5,33.6,29.4z"/>
</g>
</svg>
