<?xml version="1.0" encoding="utf-8"?>
<!-- Generator: Adobe Illustrator 26.0.3, SVG Export Plug-In . SVG Version: 6.00 Build 0)  -->
<svg version="1.1" id="Layer_1" xmlns="http://www.w3.org/2000/svg" xmlns:xlink="http://www.w3.org/1999/xlink" x="0px" y="0px"
	 viewBox="0 0 2434 417.8" style="enable-background:new 0 0 2434 417.8;" xml:space="preserve">
<style type="text/css">
	.st0{fill:#838383;}
</style>
<path class="st0" d="M357.4,295.3c47.7-79.6,21.9-182.8-57.7-230.5S117,42.9,69.3,122.5c-31.9,53.2-31.9,119.6,0,172.8l-0.6,0.5
	l0.7-0.3C117.2,375,220.5,400.7,300,352.8c23.5-14.1,43.2-33.8,57.3-57.3l0.7,0.3L357.4,295.3z M360.7,208.9
	c0,25.7-6.7,51-19.6,73.3l-103.9-83.7L215.9,61.6C296.3,63,360.7,128.5,360.7,208.9z M66,208.9C66,128.5,130.4,63,210.8,61.6
	l-21.3,136.9L85.6,282.2C72.7,259.9,66,234.6,66,208.9L66,208.9z M213.4,356.2c-50.4,0-97.3-25.8-124.3-68.3l124.3-48.1l124.3,48.1
	C310.7,330.5,263.8,356.3,213.4,356.2z"/>
<g>
	<rect x="1696.9" y="212.4" width="85.7" height="15"/>
	<path d="M963.4,157.9c-11.2,0.2-21.9,5.2-29.2,13.6c-3.8,5.3-8.4,3.3-9.1-2.6s-3.2-11.7-9.7-9.8c-12.4,4-25.3,6.4-38.3,7.2v6.5
		c27.3-1.3,24.7,12.3,24.7,18.8v106.5c0,11.7-10.4,13.7-16.2,13.7h-9.1v8.4h76v0l0,0v-8.4h-6.5c-5.8,0-16.2-1.9-16.2-13.7v-85.1
		c0-26.6,13.6-36.4,27.3-36.4c5.2,0,8.5,2.6,7.2,12.3c-1.1,7.5,4.1,14.4,11.6,15.5c0.9,0.1,1.8,0.2,2.7,0.1
		c7.1-0.7,16.2-1.9,14.9-20.1C992,166.3,981.6,157.9,963.4,157.9z"/>
	<path d="M1665.7,236.5c-19.3-8-36.3-17.5-49.4-24c-8.3-4-13.1-12.9-11.7-22.1c1.9-10.4,11.1-21.4,31.8-22.1
		c20.8-0.7,31.2,16.9,33.8,37h7.2v-52h-6.5l-7.2,12.3c-13.7-9.1-19.5-10.4-31.8-10.4c-18.1,0.5-34.7,9.7-44.8,24.7
		c-11.7,18.2-8.4,46.8,19.5,58.5c27.9,11.7,40.9,18.8,48.7,22.7c7.8,3.9,12.3,19.5,7.2,28.6c-5.2,9.1-14.9,19.5-30.5,19.5
		s-40.3-11.1-46.1-44.2h-6.5l0,0v55.2h7.2l6.5-14.3c10.3,9.6,23.6,15.1,37.7,15.6c17.6,0,42.2-9.7,52-27.9
		C1692.3,275.5,1687.8,245.6,1665.7,236.5z"/>
	<path d="M1558.8,241c0-46.2-20.4-83.6-65.2-83.6c-41.6,0-65.2,37.4-65.2,83.6s19.8,83.6,65.2,83.6c44.2,0,57.2-21.9,63.9-56.9
		l-15.2-0.1c-1.3,13-9.7,42.2-42.2,42.9c-37,0.8-39.6-46.8-39-69.5H1558.8z M1494.9,171.5c27.3,0,31.2,35.1,31.2,56.5h-64.3
		C1461.7,213.8,1460.4,171.5,1494.9,171.5z"/>
	<path d="M1066.7,309.9c-37,0.8-39.6-46.8-39-69.5c0-14.3,1.9-71.5,33.1-71.5c26.6,0,42.9,18.8,42.9,40.3h8.4v-54.5h-7.1l-8.5,13.1
		c-10.6-7.5-23.3-11.3-36.3-11c-41.6,0-65.2,37.4-65.2,83.6s19.8,83.4,65.2,83.6c40.3,0.2,50-22.6,56.8-57.6l-15.2-0.1
		C1100.5,279.4,1095.9,309.2,1066.7,309.9z"/>
	<path d="M1403.2,286.5L1403.2,286.5V105.2c0-7.5-3.9-13.7-10.4-11.7c-12.4,4-25.3,6.4-38.3,7.2v6.5c18.8-1.3,20.8,4.6,20.8,11.1
		v55.9c-8.4-7.8-18.2-15.6-35.7-15.6c-22.1,0-63,17.5-63,79.3c0,81.2,47.4,86.4,61.7,86.4c14.3,0,33.1-11.7,37-17.8
		c0.3-1.3,2.3-2.9,2.9,0c0.7,5.8,4.9,14.6,11.4,12.7c12.4-4,25.3-6.4,38.3-7.1v-6.5C1400.6,306.6,1403.2,293,1403.2,286.5z
		 M1375.3,267L1375.3,267c-0.7,35.7-19.5,46.8-35.1,46.8c-35.1-0.7-32.5-53.9-32.5-76.7c0-22.7,1.3-67.6,33.1-63.7
		c31.8,3.9,34.4,37.7,34.4,57.8V267z"/>
	<path d="M1164.8,241h97.7c0-46.2-20.4-83.6-65.2-83.6c-41.6,0-65.2,37.4-65.2,83.6s19.8,83.6,65.2,83.6c44.2,0,57.2-21.9,64-56.9
		l-15.2-0.1c-1.3,13-9.7,42.2-42.2,42.9C1166.8,311.3,1164.2,263.8,1164.8,241L1164.8,241z M1198.6,171.5
		c27.3,0,31.2,35.1,31.2,56.5h-64.3C1165.5,213.8,1164.2,171.5,1198.6,171.5z"/>
	<path d="M2090.2,241c0-46.2-20.4-83.6-65.2-83.6c-41.6,0-65.2,37.4-65.2,83.6s19.7,83.6,65.2,83.6c44.2,0,57.2-21.9,63.9-56.9
		l-15.2-0.1c-1.3,13-9.8,42.2-42.2,42.9c-37,0.8-39.6-46.8-39-69.5H2090.2z M2026.3,171.5c27.3,0,31.2,35.1,31.2,56.5h-64.3
		C1993.1,213.8,1991.9,171.5,2026.3,171.5z"/>
	<path d="M2237.4,298.2v-95.5c-0.7-43.5-39.6-44.8-53.3-44.8c-14.3,0-29.9,9.1-33.1,13.6c-3.8,5.3-8.4,3.3-9.1-2.6
		s-3.3-11.7-9.8-9.8c-12.4,4-25.3,6.4-38.3,7.2v6.5c27.3-1.3,24.7,12.3,24.7,18.8v106.5c0,11.7-10.4,13.7-16.2,13.7h-9.1v8.4h76
		v-8.4h-6.5c-5.8,0-16.3-1.9-16.3-13.7v-85.1c0-14.3,5.2-37,31.8-39c26.6-2,31.2,15.6,31.2,27.9l0,0v96.2
		c0,11.7-10.4,13.7-16.2,13.7h-3.9v8.4h70.8v-8.4h-6.5C2247.8,311.9,2237.4,309.9,2237.4,298.2z"/>
	<path d="M2352.4,311.2h-50.7l94.8-150.1h-110.4l-11.7,44.2l6.5,0c16.2-35.1,27.9-35.1,38.3-35.1h42.2l-94.2,150.1h113l10.4-43.5
		h-5.2C2373.2,306.7,2364.1,311.2,2352.4,311.2z"/>
	<path d="M715.9,296.9l-3.2-174.1c0.8-6.7,6.2-11.9,13-12.3H738v-10.4h-59.1l-61.1,159.8l-61.1-159.8H497l-0.7,10.4h9.7
		c7.2,0,16.2,0.6,16.2,9.7L519,296.3c0,6.5-3.2,13.7-16.2,13.7h-9.7l-0.7,10.4H558v-10.4h-11c-8.5,0-14.3-2.6-14.3-13.7l3.2-168.9
		l70.2,181.9h7.1l70.8-183.9l3.3,170.9c-0.7,7.7-7.2,13.7-14.9,13.7h-13.6v10.4h82.5v-10.4h-9.7C724.4,309.9,715.9,306,715.9,296.9z
		"/>
	<path d="M775,241h97.7c0-46.2-20.4-83.6-65.2-83.6c-41.6,0-65.2,37.4-65.2,83.6s19.8,83.6,65.2,83.6c44.2,0,57.2-21.9,63.9-56.9
		l-15.2-0.1c-1.3,13-9.7,42.2-42.2,42.9C777,311.3,774.4,263.8,775,241L775,241z M808.8,171.5c27.3,0,31.2,35.1,31.2,56.5h-64.3
		C775.7,213.8,774.4,171.5,808.8,171.5z"/>
	<path d="M1904.1,201.4c15.6-3.9,31.2-31.8,31.2-50.7c0-18.8-7.2-50.7-52.6-50.7h-97.4v8.4c9.8,0,26.6,2,26.6,18.2v160.5
		c0,9.1-0.6,24-26.7,24v9.1h79.9c24,0,79.3-1.9,80.6-65.6C1945.7,233.2,1935.3,207.9,1904.1,201.4z M1839.8,110.5h32.5
		c24,0,33.8,17.5,33.8,40.3c0,27.9-8.4,49.4-33.8,49.4h-32.5V110.5z M1872.9,309.9h-33.1h0v-99.4h37c21.4,0,40.3,14.9,40.3,47.4
		C1917.1,290.4,1897.6,309.9,1872.9,309.9z"/>
</g>
</svg>
