<?xml version="1.0" encoding="utf-8"?>
<!-- Generator: Adobe Illustrator 26.0.3, SVG Export Plug-In . SVG Version: 6.00 Build 0)  -->
<svg version="1.1" id="Layer_1" xmlns="http://www.w3.org/2000/svg" xmlns:xlink="http://www.w3.org/1999/xlink" x="0px" y="0px"
	 viewBox="0 0 170.2 52.7" style="enable-background:new 0 0 170.2 52.7;" xml:space="preserve">
<style type="text/css">
	.st0{fill:#1C3185;}
	.st1{fill:#FFE000;}
	.st2{fill:#FFFFFF;}
</style>
<g>
	<g>
		<path class="st0" d="M62.3,26.3v1.2c0,11.6-11.8,21.1-30.5,21.1C17.5,48.5,7.1,42.9,3.2,34.9c-1.2-2.3-1.8-4.8-1.8-7.5
			c0-0.1,0-0.9,0-1.2c0-0.3,0-0.6,0-0.8c0.3-5.1,3.6-9.8,8.9-13.2C13,10.5,16.1,9,19.6,8c3.7-1.1,7.9-1.7,12.3-1.7
			C48.7,6.4,62.3,15.3,62.3,26.3z"/>
		<path class="st1" d="M61.1,26.3C61.1,36.6,48,45,31.8,45c-11.3,0-21.1-4.1-25.9-10c-2.1-2.6-3.3-5.5-3.4-8.6c0-0.1,0-0.1,0-0.2
			c0-5.7,4.1-10.9,10.5-14.3c0.4-0.2,0.7-0.4,1.1-0.6c0.6-0.3,1.2-0.6,1.9-0.8c1.1-0.4,2.2-0.8,3.4-1.2c3.8-1.1,8-1.8,12.5-1.8
			C48,7.5,61.1,15.9,61.1,26.3z"/>
		<path class="st0" d="M32,33c-0.1,2.4-1.4,3.1-3.1,3.4s-5.4,0.5-9,0.7c-3.6,0.1-6.9-0.3-8.6-0.6c-1.7-0.2-3.5-0.7-4-0.7
			s-0.7,0.3-1.4,1.1c0,0-1.4-0.7-2.8-1.8c-1.2-2.3-1.8-4.9-1.8-7.6c0-0.1,0-0.9,0-1.2s0-0.6,0-0.8c0.8-0.2,2-0.3,4-0.4
			c3.2-0.1,5.4,0.2,9.6,1.3c4.1,1.2,5.9,2,5.9,2c-0.5-1.5-0.5-3.7-0.4-6.1s0-3.9-0.5-5.4c-0.4-1.4-1.1-2.9-1.1-2.9s-0.4,0.1-1.3,0.1
			c-0.8,0-1.9-0.3-3-0.8c-1-0.5-2.1-0.8-3.6-1.1c-0.3-0.1-0.5-0.1-0.7-0.2c-1-0.4-1.1-1.3-0.7-2C10.1,9.4,11,9.4,11,9.4
			s-0.4-0.3-0.3-1c0.1-0.7,0.8-1.4,1.5-1.9s1.5-1.1,2.3-1.6c0.8-0.6,1.8-0.3,2.2,0c0.4,0.3,0.8,0.7,1.9,1.7c0.3,0.3,0.7,0.8,1.2,1.3
			c1,1.1,2.3,2.4,3.2,3.6c1.3,1.8,2.5,4.2,3.4,6.4s3.2,7.2,3.8,8.7C30.8,28,32,30.6,32,33z"/>
		<path class="st2" d="M30.6,34.4c-0.8,0.9-1.9,1.1-3.9,1.3c-1.7,0.1-4.7,0.4-6.2,0.4s-3.2,0-6.2-0.3c-5-0.4-5.9-1.1-7-1.1
			c-0.6,0-1.1,0.3-1.4,0.5c-2.1-2.6-3.4-5.5-3.4-8.7c2.7-0.3,5.9-0.5,11.1,0.7c5.9,1.4,9.1,3.3,9.1,3.3s-0.7-1.2-0.9-3.7
			c-0.2-2.5,0-6.9-0.4-8.9c-0.3-2-1.1-3.4-1.6-4.4c-0.6-0.7-1.3-0.4-2-0.4s-2.3-0.6-3-1c-0.3-0.2-1-0.3-1.6-0.5
			c-0.8-0.2-1.7-0.3-1.8-0.3c-0.3-0.1-1-0.3-0.7-0.9c0.3-0.6,1.6-0.1,2.2,0.3c0.6,0.3,0.9,0.6,1.5,0.4c0.1,0,0.1-0.1,0.2-0.1
			c0.8-0.3,1.1-0.5,1.5,0c0.4,0.4,1,1.2,1.4,1.2c0.4,0.1,0.8,0,0.8,0s-1.5-1.3-2-2l-0.1-0.1c-0.5-0.6-0.8-1.1-0.4-1.6
			c0.2-0.3,0.3-0.6,0.3-0.7c0,0-0.2,0.1-0.5,0.3C15.4,8.5,15,8.8,15,8.8s-0.4-0.1-0.5-0.4s-0.2-0.8-0.2-0.8S14,8.3,14.1,8.8
			c0,0-0.1,0.2-0.7,0.1c0,0,0.2,0.2,0.6,0.2c0,0,0,0.3,0,0.5c0,0,0.3-0.1,0.4-0.3c0.2-0.2,0.4-0.2,0.6,0c0,0.2,0.3,0.6,0.3,0.7
			c0.1,0.2-0.2,0.3-0.6,0.3c-0.3,0.1-0.7,0.2-1,0.2c-0.3-0.1-0.8-0.3-1.2-0.8s-1-1-1-1.4c0-0.4,1.2-1.1,1.8-1.5s1.5-1,1.6-1.1
			c0.2-0.1,0.7-0.4,1.3,0.1c0.5,0.4,2.3,2.3,3.3,3.3c0.3,0.3,0.5,0.5,0.6,0.6c0.6,0.6,1.8,2,2.4,3s3,6.1,4.1,8.5
			c1.1,2.5,3.4,8,3.8,9.1C31,31.5,31.4,33.5,30.6,34.4z"/>
		<path class="st0" d="M31.8,33c0.1,2.4,1.4,3.1,3.1,3.4c1.7,0.3,5.4,0.5,9,0.7c3.6,0.1,6.9-0.3,8.6-0.6c1.7-0.2,3.5-0.7,4-0.7
			s0.7,0.3,1.4,1.1c0,0,1.4-0.7,2.7-1.8c1.2-2.3,1.8-4.9,1.8-7.6c0-0.1,0-0.9,0-1.2c0-0.3,0-0.6,0-0.8c-0.8-0.2-2-0.3-4-0.4
			c-3.2-0.1-5.4,0.2-9.5,1.3s-5.9,2-5.9,2c0.4-1.5,0.5-3.7,0.4-6.1s0-3.9,0.5-5.4C44.3,15.5,45,14,45,14s0.4,0.1,1.3,0.1
			c0.8,0,1.9-0.3,3-0.8c1-0.5,2.1-0.8,3.6-1.1c0.3-0.1,0.5-0.1,0.7-0.2c1-0.4,1.1-1.3,0.7-2C53.9,9.2,53,9.3,53,9.3s0.4-0.3,0.3-1
			c-0.3-0.7-1.1-1.4-1.7-1.9s-1.5-1.1-2.3-1.6s-1.8-0.3-2.2,0s-0.8,0.7-1.8,1.7C45,6.8,44.5,7.3,44,7.8c-1,1.1-2.3,2.4-3.2,3.6
			c-1.3,1.8-2.5,4.2-3.4,6.4c-0.9,2.1-3.1,7.2-3.8,8.7C33,28,31.7,30.6,31.8,33z"/>
		<path class="st2" d="M33.2,34.4c0.8,0.9,1.9,1.1,3.9,1.3c1.7,0.1,4.7,0.4,6.2,0.4s3.2,0,6.1-0.3c4.9-0.4,5.9-1.1,7-1.1
			c0.6,0,1.1,0.3,1.4,0.5c2.1-2.6,3.4-5.5,3.4-8.7c-2.7-0.3-5.9-0.5-11,0.7c-5.9,1.4-9,3.3-9,3.3s0.7-1.2,0.9-3.6s0-6.9,0.4-8.8
			c0.3-2,1.1-3.4,1.6-4.4c0.6-0.7,1.3-0.4,2-0.4c0.6,0,2.3-0.6,3-1c0.3-0.2,1-0.3,1.6-0.5c0.8-0.2,1.7-0.3,1.8-0.3
			c0.3-0.1,1-0.4,0.7-0.9c-0.3-0.6-1.5-0.1-2.2,0.3c-0.6,0.3-0.9,0.6-1.5,0.4c-0.1,0-0.1-0.1-0.2-0.1c-0.8-0.3-1.1-0.5-1.5,0
			s-1,1.2-1.4,1.2c-0.4,0.1-0.8,0-0.8,0s1.5-1.3,2-1.9l0.1-0.1c0.5-0.6,0.8-1.1,0.4-1.6c-0.2-0.3-0.3-0.6-0.3-0.7
			c0,0,0.2,0.1,0.5,0.3c0.2,0.1,0.6,0.4,0.6,0.4s0.4-0.1,0.5-0.4s0.2-0.8,0.2-0.8s0.3,0.7,0.2,1.3c0,0,0.1,0.2,0.7,0.1
			c0,0-0.2,0.2-0.6,0.2c0,0,0,0.3,0,0.5c0,0-0.3-0.1-0.4-0.3c-0.2-0.2-0.4-0.2-0.6,0c-0.1,0.1-0.3,0.5-0.4,0.7
			c-0.1,0.2,0.2,0.3,0.6,0.3c0.3,0.1,0.7,0.2,1,0.2c0.3-0.1,0.8-0.3,1.2-0.8s1-1,1-1.4c0-0.4-1.2-1.1-1.8-1.5s-1.5-1-1.6-1.1
			S48,5.3,47.4,5.9c-0.5,0.4-2.3,2.3-3.3,3.3c-0.3,0.3-0.5,0.5-0.6,0.6c-0.6,0.6-1.8,2-2.4,3c-0.6,1-3,6.1-4.1,8.5s-3.4,8-3.8,9.1
			C32.8,31.5,32.4,33.5,33.2,34.4z"/>
	</g>
	<g>
		<g>
			<rect x="77.4" y="27.8" class="st0" width="3.2" height="2.9"/>
			<g>
				<rect x="77.4" y="32.2" class="st0" width="3.2" height="12.4"/>
				<path class="st0" d="M117.5,36.2c-0.2-0.9-0.6-1.7-1.1-2.3c-0.5-0.7-1.1-1.2-1.9-1.6c-0.8-0.4-1.7-0.6-2.7-0.6
					c-0.9,0-1.8,0.2-2.6,0.5c-0.8,0.3-1.4,0.8-2,1.4c-0.6,0.6-1,1.3-1.3,2.1c-0.3,0.8-0.4,1.7-0.4,2.6c0,1,0.2,1.8,0.4,2.6
					c0.3,0.8,0.7,1.5,1.2,2.1s1.2,1,2,1.3s1.7,0.5,2.6,0.5c1.4,0,2.6-0.3,3.6-1c1-0.6,1.7-1.7,2.2-3.2h-3c-0.1,0.4-0.4,0.7-0.9,1.1
					c-0.5,0.3-1.1,0.5-1.8,0.5c-1,0-1.7-0.2-2.2-0.7s-0.8-1.3-0.8-2.4h8.9C117.8,37.9,117.7,37,117.5,36.2z M108.9,36.8
					c0-0.2,0.1-0.5,0.2-0.8s0.2-0.6,0.4-0.8c0.2-0.3,0.5-0.5,0.8-0.7c0.4-0.2,0.8-0.3,1.3-0.3c0.8,0,1.5,0.2,1.8,0.7s0.7,1.1,0.8,2
					h-5.3V36.8z"/>
				<path class="st0" d="M103.2,35c-1.8,0-2.6,1.1-2.6,3v6.6h-3.2v-6.5c0.1-4.1,2.1-6.4,6.3-6.4h1v3.2L103.2,35z"/>
				<path class="st0" d="M90.5,31.5c-1.6,0-2.8,0.6-3.6,2v-5.7h-0.4c-1.6,0-2.4,0.9-2.8,1.6v9.5c0,3.8,2,5.7,5.9,5.6
					c3.9-0.1,5.9-2.2,5.9-6.4C95.5,33.8,93.8,31.6,90.5,31.5z M89.5,41.9c-1.8,0-2.7-1.3-2.6-3.9c0.1-2.4,1-3.6,2.7-3.6
					s2.6,1.2,2.7,3.6C92.3,40.6,91.4,41.9,89.5,41.9z"/>
				<path class="st0" d="M70.8,44.5V29.9c0-0.5,1-2,2.3-2H74v16.7h-3.2V44.5z"/>
			</g>
		</g>
		<g>
			<path class="st0" d="M167.5,14.8c-0.3-0.8-0.8-1.5-1.3-2.1c-0.6-0.6-1.3-1-2.1-1.3s-1.7-0.5-2.7-0.5s-1.9,0.2-2.7,0.5
				s-1.5,0.8-2.1,1.3c-0.6,0.6-1,1.3-1.3,2.1s-0.5,1.7-0.5,2.8s0.2,1.9,0.5,2.8c0.3,0.8,0.8,1.5,1.3,2.1c0.6,0.6,1.3,1,2.1,1.3
				s1.7,0.5,2.7,0.5s1.9-0.2,2.7-0.5s1.5-0.8,2.1-1.3c0.6-0.6,1-1.3,1.3-2.1c0.3-0.8,0.5-1.7,0.5-2.8S167.8,15.6,167.5,14.8z
				 M164.3,19c-0.1,0.5-0.3,0.9-0.5,1.3s-0.6,0.7-1,0.9c-0.4,0.2-0.9,0.3-1.5,0.3s-1.1-0.1-1.5-0.3c-0.4-0.2-0.7-0.5-1-0.9
				c-0.2-0.4-0.4-0.8-0.5-1.3s-0.2-1-0.2-1.5s0.1-1,0.2-1.5c0.1-0.5,0.3-0.9,0.5-1.3c0.2-0.4,0.6-0.7,1-0.9s0.9-0.4,1.5-0.4
				s1.1,0.1,1.5,0.4c0.4,0.2,0.7,0.6,1,0.9c0.2,0.4,0.4,0.8,0.5,1.3s0.2,1,0.2,1.5C164.5,18.1,164.4,18.6,164.3,19z"/>
			<path class="st0" d="M120.4,13.5c-0.6,0-1,0.1-1.4,0.4c-0.4,0.3-0.7,0.6-0.9,1s-0.4,0.8-0.5,1.3s-0.2,1-0.2,1.5
				c0,0.4,0.1,0.9,0.2,1.4s0.3,0.9,0.5,1.3s0.5,0.7,0.9,1c0.4,0.2,0.8,0.4,1.4,0.4c0.8,0,1.5-0.2,1.9-0.7s0.7-1.1,0.8-1.9h3.4
				c-0.2,1.7-0.9,3-2,3.9s-2.5,1.3-4.2,1.3c-1,0-1.8-0.2-2.6-0.5s-1.5-0.8-2-1.3c-0.6-0.6-1-1.3-1.3-2.1c-0.3-0.8-0.5-1.7-0.5-2.6
				c0-1,0.1-1.9,0.4-2.7s0.7-1.6,1.3-2.2c0.6-0.6,1.2-1.1,2.1-1.5c0.8-0.3,1.7-0.5,2.8-0.5c0.8,0,1.5,0.1,2.2,0.3
				c0.7,0.2,1.3,0.5,1.9,0.9s1,0.9,1.3,1.5s0.6,1.3,0.6,2.1H123C122.8,14.2,121.9,13.5,120.4,13.5z"/>
			<path class="st0" d="M103.4,15.6c-0.2-0.9-0.6-1.7-1.1-2.4c-0.5-0.7-1.2-1.3-2-1.7c-0.7-0.4-1.7-0.6-2.7-0.6s-1.8,0.2-2.6,0.5
				c-0.8,0.3-1.5,0.8-2,1.4c-0.6,0.6-1,1.3-1.3,2.1s-0.5,1.7-0.5,2.6c0,1,0.2,1.9,0.4,2.7c0.3,0.8,0.7,1.5,1.3,2.1
				c0.6,0.6,1.2,1,2,1.3s1.7,0.5,2.7,0.5c1.4,0,2.6-0.3,3.7-1c1-0.7,1.8-1.7,2.2-3.2h-3.1c-0.1,0.4-0.4,0.8-0.9,1.1
				c-0.5,0.3-1.1,0.5-1.8,0.5c-1,0-1.7-0.3-2.2-0.8s-0.8-1.3-0.8-2.4h9.1C103.7,17.4,103.7,16.5,103.4,15.6z M94.6,16.2
				c0-0.2,0.1-0.5,0.2-0.8s0.2-0.6,0.5-0.9c0.2-0.3,0.5-0.5,0.9-0.7s0.8-0.3,1.4-0.3c0.8,0,1.5,0.2,1.9,0.7c0.4,0.4,0.7,1.1,0.9,2
				H94.6L94.6,16.2z"/>
			<path class="st0" d="M149.6,8v0.8v4.1c-0.8-1.3-2.1-2-3.7-2c-3.5,0.1-5.2,2.4-5.2,6.8c0,4.3,2,6.5,6,6.6c4,0,6.1-1.9,6.1-5.8V6.8
				C152.8,6.8,150.6,6.5,149.6,8z M146.7,21.5c-1.8,0-2.7-1.3-2.7-3.9c0.1-2.5,1-3.7,2.8-3.7s2.7,1.2,2.7,3.7
				C149.5,20.2,148.6,21.5,146.7,21.5z"/>
			<path class="st0" d="M133.4,10.8c-3.7,0-5,1.7-5.1,4.2h3c0.2-0.6,0.7-1.5,2.2-1.5c1.3,0,2,0.4,2.1,1.1c0,0.7-0.7,1.1-2.1,1.3
				c-3.3,0.3-5.5,1.2-5.6,4.2c0,2.9,2.2,4.3,5.3,4.1c3.5-0.2,5.6-1.8,5.6-5.4v-4.4C138.7,12,136.9,10.8,133.4,10.8z M135.6,18.7
				c0,1.8-1.1,2.9-2.9,2.9c-1,0-1.6-0.5-1.6-1.5s0.7-1.6,2-1.8c1-0.2,1.8-0.3,2.6-0.6v1H135.6z"/>
			<path class="st0" d="M111.6,14.4c-1.8,0-2.7,1.2-2.7,3.1v6.7h-3.3v-6.7c0.1-4.2,2.2-6.5,6.5-6.5h1v3.4H111.6z"/>
			<path class="st0" d="M87.9,24.1c-1.1-0.1-1.6-0.6-1.6-1.6v-6.6c-0.1-1.3-0.8-2-2.2-2c-1.5,0-2.2,0.7-2.2,2v8.2h-3.3v-8.3
				c-0.1-1.3-0.8-2-2.2-2c-1.5,0-2.2,0.7-2.2,2v8.3h-3.3v-7.6c0-3.7,1.8-5.5,5.6-5.5c1.7,0,2.9,0.4,3.9,1.1c0.9-0.7,2.2-1.1,3.9-1.1
				c3.7,0,5.5,1.8,5.5,5.5v7.6H87.9L87.9,24.1z"/>
		</g>
	</g>
</g>
</svg>
