<?xml version="1.0" encoding="utf-8"?>
<!-- Generator: Adobe Illustrator 26.0.3, SVG Export Plug-In . SVG Version: 6.00 Build 0)  -->
<svg version="1.1" id="Layer_1" xmlns="http://www.w3.org/2000/svg" xmlns:xlink="http://www.w3.org/1999/xlink" x="0px" y="0px"
	 viewBox="0 0 900 700" style="enable-background:new 0 0 900 700;" xml:space="preserve">
<style type="text/css">
	.st0{fill:url(#SVGID_1_);}
	.st1{fill:url(#SVGID_00000029739963722649177060000014458412844472510647_);}
	.st2{fill:url(#SVGID_00000182515784358608235080000016782376750374333603_);}
	.st3{fill:url(#SVGID_00000136380197224062685940000017411136758217882012_);}
	.st4{fill:#FFFFFF;}
	.st5{fill:url(#SVGID_00000062169353179822390090000009497895378011253671_);}
	.st6{fill:url(#SVGID_00000081609011258393528210000004588542831039166137_);}
	.st7{fill:#8C8C8C;}
	.st8{fill:#4D4D4D;}
	.st9{fill:#252525;}
	.st10{fill:#333333;}
</style>
<linearGradient id="SVGID_1_" gradientUnits="userSpaceOnUse" x1="-3587.3953" y1="3076.4988" x2="-3587.3953" y2="3120.5188" gradientTransform="matrix(12.5 0 0 12.5 45292.4375 -38434.2617)">
	<stop  offset="0.194" style="stop-color:#FFFFFF"/>
	<stop  offset="0.208" style="stop-color:#F8F8F8"/>
	<stop  offset="0.366" style="stop-color:#AEAEAE"/>
	<stop  offset="0.513" style="stop-color:#707070"/>
	<stop  offset="0.647" style="stop-color:#404040"/>
	<stop  offset="0.764" style="stop-color:#1D1D1D"/>
	<stop  offset="0.86" style="stop-color:#080808"/>
	<stop  offset="0.922" style="stop-color:#000000"/>
</linearGradient>
<path class="st0" d="M817.6,268.1c-7.3-2-15.4-3-32.5-5.1c-70.8-2.9-245.8-9.7-335-9.7s-264.2,6.8-335,9.7
	c-17.1,2.1-25.2,3.1-32.5,5.1c-22.3,5.2-27.2,13.2-27.2,29.2v109.3c0,16,17.1,26.7,28.9,28.9c10.5,1.9,21,3.4,31.6,4.2
	c63.3,3.9,210.3,12.1,334.2,12.2c123.9-0.1,270.9-8.3,334.2-12.2c10.6-0.9,21.2-2.3,31.6-4.2c11.8-2.2,28.9-12.9,28.9-28.9V297.3
	C844.7,281.4,839.8,273.4,817.6,268.1L817.6,268.1z"/>
<radialGradient id="SVGID_00000118382896112431303870000001086301107392241332_" cx="-3605.1228" cy="3064.8291" r="44.0393" gradientTransform="matrix(12.5 0 0 12.5 45292.4375 -38434.2617)" gradientUnits="userSpaceOnUse">
	<stop  offset="0.202" style="stop-color:#FFFFFF"/>
	<stop  offset="0.382" style="stop-color:#FDFDFD"/>
	<stop  offset="0.487" style="stop-color:#F4F4F4"/>
	<stop  offset="0.573" style="stop-color:#E6E6E6"/>
	<stop  offset="0.648" style="stop-color:#D2D2D2"/>
	<stop  offset="0.689" style="stop-color:#C4C4C4"/>
	<stop  offset="1" style="stop-color:#333333"/>
</radialGradient>
<path style="fill:url(#SVGID_00000118382896112431303870000001086301107392241332_);" d="M166,272.5
	C200.8,151.2,315.3,62.3,451.3,62.3c135.5,0,249.8,88.5,285,209.2c0.1,0.4,0.2,0.6,0.3,1.1c17.2-1.8,34.3-4.9,51.1-9.2
	c-0.2-0.8-0.3-0.9-0.5-1.7C747.1,117.8,611.9,12,451.3,12C290.1,12,154.5,118.5,115,263C132.7,267.9,145.8,269.9,166,272.5z"/>
<radialGradient id="SVGID_00000070821285835777763910000011778640657101758862_" cx="-3498.5471" cy="3135.3684" r="91.7165" gradientTransform="matrix(12.5 0 0 12.5 45292.4375 -38434.2617)" gradientUnits="userSpaceOnUse">
	<stop  offset="0.202" style="stop-color:#FFFFFF"/>
	<stop  offset="0.368" style="stop-color:#E4E4E4"/>
	<stop  offset="0.594" style="stop-color:#C4C4C4"/>
	<stop  offset="1" style="stop-color:#333333"/>
</radialGradient>
<path style="fill:url(#SVGID_00000070821285835777763910000011778640657101758862_);" d="M735.4,431.3c-0.4,1.1-0.7,2.3-0.9,2.9
	C697.4,552,584.6,637.7,451.3,637.7c-134.4,0-247.9-87-284.1-206.3c-22.1,3.9-29.6,5.4-51.4,8.3C156.2,582.9,291.1,688,451.3,688
	c160.2,0,295.1-105.3,335.5-248.5C767.5,437.1,756.2,435.3,735.4,431.3z"/>
<radialGradient id="SVGID_00000030485738338837757510000001986814143918223243_" cx="-5127.125" cy="4443.8086" r="28.1565" gradientTransform="matrix(1 0 0 -1 0 702)" gradientUnits="userSpaceOnUse">
	<stop  offset="0.202" style="stop-color:#FFFFFF"/>
	<stop  offset="0.368" style="stop-color:#E4E4E4"/>
	<stop  offset="0.594" style="stop-color:#C4C4C4"/>
	<stop  offset="1" style="stop-color:#333333"/>
</radialGradient>
<path style="fill:url(#SVGID_00000030485738338837757510000001986814143918223243_);" d="M173.1,272.2c8.4-3.5,16.5-9,29.2-12.5
	c37.7-98,134.9-167.8,249-167.8c113.7,0,210.7,69.3,248.6,166.9c0.1,0.3,0.3,0.7,0.4,1c6.5,2.3,25.8,10.1,31.7,12.7
	c0.8,0,2.7,0.1,4.5,0.1c-0.1-0.3-0.2-0.7-0.3-1.1C701,150.8,586.8,62.4,451.2,62.4c-135.9,0-250.4,88.9-285.2,210.1
	C168,272.4,171.9,272.3,173.1,272.2L173.1,272.2z"/>
<path class="st4" d="M449.1,70.5c127.2,0,239.9,75.8,282.6,200.8l0.3,1.1c0.7,0,3.1,0.1,4.5,0.1c-0.1-0.5-0.2-0.7-0.3-1.1
	C701,150.8,586.8,62.4,451.2,62.4c-135.9,0-250.4,88.9-285.2,210.1c2.7,0,4,0,7.1-0.3C211.3,153.5,322.9,70.5,449.1,70.5L449.1,70.5
	z"/>
<radialGradient id="SVGID_00000023267994990406911770000013277229629840951741_" cx="-5104.4019" cy="4472.5996" r="53.4264" gradientTransform="matrix(1 0 0 -1 0 702)" gradientUnits="userSpaceOnUse">
	<stop  offset="0.202" style="stop-color:#FFFFFF"/>
	<stop  offset="0.368" style="stop-color:#E4E4E4"/>
	<stop  offset="0.594" style="stop-color:#C4C4C4"/>
	<stop  offset="1" style="stop-color:#333333"/>
</radialGradient>
<path style="fill:url(#SVGID_00000023267994990406911770000013277229629840951741_);" d="M728.2,431.7c-9.4,5.2-19.3,9.5-29.6,12.9
	c-0.1,0.3-0.6,1.6-0.7,1.9c-39.3,94.8-134.9,161.8-246.6,161.8c-112.4,0-208.5-67.7-247.3-163.5c-10.5-2.9-26.1-10-32-13
	c-2.2-0.1-3.4-0.2-4.8-0.2c36.2,119.2,149.7,206.3,284.1,206.3c133.8,0,246.9-86.2,283.6-204.6c0.1-0.2,0.5-1.5,0.6-1.8
	C733.3,431.4,730,431.7,728.2,431.7L728.2,431.7z"/>
<radialGradient id="SVGID_00000100367141980956705140000011112788472196969374_" cx="-3587.8176" cy="3081.2725" r="42.4566" gradientTransform="matrix(12.5 0 0 12.5 45292.4375 -38434.2617)" gradientUnits="userSpaceOnUse">
	<stop  offset="0.202" style="stop-color:#FFFFFF"/>
	<stop  offset="0.397" style="stop-color:#FDFDFD"/>
	<stop  offset="0.51" style="stop-color:#F4F4F4"/>
	<stop  offset="0.603" style="stop-color:#E6E6E6"/>
	<stop  offset="0.684" style="stop-color:#D2D2D2"/>
	<stop  offset="0.728" style="stop-color:#C4C4C4"/>
	<stop  offset="1" style="stop-color:#4D4D4D"/>
</radialGradient>
<path style="fill:url(#SVGID_00000100367141980956705140000011112788472196969374_);" d="M811.2,276.1c-18.8-2.3-31.5-2-77.2-3.6
	c-2.1-0.1-4.2-0.1-6.3-0.2c-82.9-2.8-207.3-6.6-277.7-6.6s-194.8,3.8-277.7,6.6c-2.1,0.1-4.2,0.1-6.3,0.2
	c-45.7,1.6-58.5,1.3-77.2,3.6c-18.8,2.3-33.5,10.5-33.5,24.5v101.4c0,14,17.8,25.3,33.5,25.3c0,0,200.3,12.4,361.2,12.5
	c160.9-0.1,361.2-12.5,361.2-12.5c15.7,0,33.5-11.3,33.5-25.3V300.5C844.7,286.6,830,278.4,811.2,276.1L811.2,276.1z"/>
<path class="st4" d="M728.2,431.7c-39.3,116.6-149.9,197.8-274.7,197.8c-126.1,0-238.1-74.6-281.5-197.8c-1.6-0.1-3.2-0.1-4.7-0.2
	c36.1,119.2,149.7,206.3,284.1,206.3c134.5,0,248-87.1,284.1-206.4C733.1,431.4,730.6,431.5,728.2,431.7L728.2,431.7z"/>
<path class="st7" d="M728.4,431.7h-0.2c-9.4,5.2-19.3,9.5-29.6,12.9c-0.1,0.3-0.6,1.6-0.7,1.9c-12.4,29.9-30.4,57.2-53,80.4
	C679.5,501.8,708.1,469.3,728.4,431.7z"/>
<path class="st8" d="M265.2,534.4c-26.6-25.2-47.5-55.8-61.3-89.7c-10.5-2.9-26.1-10-32-13c6.3,13.1,13.8,25.7,22.3,37.5
	c17.7,23,38.8,43.2,62.5,60C259.5,530.9,262.4,532.7,265.2,534.4L265.2,534.4z"/>
<path class="st9" d="M167.2,431.4L167.2,431.4L167.2,431.4c-22.1,3.9-29.6,5.4-51.4,8.3c1.8,6.2,3.7,12.4,5.8,18.5L167.2,431.4z"/>
<path class="st10" d="M610.4,321c-6.6-14.7-4.2-13.2-18.6-13.6c-2.8-0.4-5.7-0.6-8.5-0.4c-2.8-0.1-5.7,0-8.5,0.4
	c-13.5,0-11.2-0.8-15.9,8.9c0,0-23.3,52.3-33.3,73.9l-0.4,0.8c-1.9,3.9-0.8,3.9,2.3,3.9h20.9c1.1,0.1,2.2-0.5,2.7-1.5
	c0,0,3.1-6.6,7-15.9h51.1c3.9,8.9,6.6,15.5,6.6,15.9c0.5,1.1,1.6,1.7,2.7,1.5h21.7c3.1,0,3.9,0.4,2.7-2.3
	C639.1,383.3,613.9,329.1,610.4,321L610.4,321z M565.9,358.9c6.6-15.5,13.2-30.6,13.2-31c0.5-0.8,1.4-1.3,2.3-1.2
	c0.4-0.4,1.6-0.4,2.7-0.4c0.8,0,1.9,0,2.3,0.4c0.9,0,1.7,0.6,1.9,1.6c1.6,4.2,7.4,17.4,12.8,30.6H565.9z M287.1,306.2
	c1.9,0,2.3,0.8,2.3,2.3v82.9c0,1.9-0.4,2.7-2.7,2.7h-20.1c-2.3,0-2.7-0.4-2.7-2.7v-82.9c0-1.6,0.4-2.3,1.9-2.3H287.1z M244.1,307
	c2.3,0,2.7,0.8,2.7,2.7v82.5c0,2.3-0.4,2.7-2.7,2.7h-23.6c-13.9,0-15.1,0-19.7-7.7c-9.7-15.1-38.7-59.6-38.7-59.6v64.7
	c0,2.3-0.4,2.7-2.7,2.7h-17.4c-2.3,0-2.7-0.4-2.7-2.7v-82.5c0-1.9,0.4-2.7,2.7-2.7H162c15.1,0,17-0.4,22.5,7.4
	c4.3,7,39.5,61.2,39.5,61.2v-65.8c0-1.9,0.4-2.7,2.7-2.7H244.1z M761,307c2.3,0,2.7,0.8,2.7,2.7v82.5c0,2.3-0.4,2.7-2.7,2.7h-23.6
	c-14,0-15.1,0-19.8-7.7c-9.7-15.1-38.7-59.6-38.7-59.6v64.7c0,2.3-0.4,2.7-2.7,2.7h-17.4c-2.3,0-2.7-0.4-2.7-2.7v-82.5
	c0-1.9,0.4-2.7,2.7-2.7h20.1c15.1,0,17-0.4,22.5,7.4c4.6,7,39.5,61.2,39.5,61.2v-65.8c0-1.9,0.4-2.7,2.7-2.7H761z M375.7,340.7
	c15.5,1.5,26.7,4.3,29.8,19c0,1.2,0.4,5,0.4,9.3c0.1,3.1-0.1,6.2-0.8,9.3c-2.7,13.9-13.2,16.6-29.4,16.6h-65.1
	c-2.3,0-2.7-0.4-2.7-2.7v-13.9c0-2.3,0.4-2.7,2.7-2.7h65.8c2.7,0,3.5-0.8,3.9-2.7V367c-0.4-1.6-0.8-3.9-4.3-4.3
	c-7.4-0.4-29-2.3-43.8-3.9c-19-1.9-23.6-10.1-24.4-17c-0.3-2.7-0.5-5.4-0.4-8.1c-0.1-2.8,0.1-5.7,0.4-8.5
	c2.7-12.4,12-18.2,28.3-18.2h63.1c2.3,0,3.1,0.4,3.1,2.3v14.3c0,1.9-0.8,2.7-3.1,2.3h-62c-2.7,0-3.9,1.2-4.3,3.9v3.5
	c0,1.9,1.2,3.5,3.9,3.9C344.4,338,367.2,339.9,375.7,340.7L375.7,340.7z M487.6,340.7c15.5,1.5,26.7,4.3,29.8,19
	c0,1.2,0.4,5,0.4,9.3c0.1,3.1-0.1,6.2-0.8,9.3c-2.7,13.9-13.2,16.6-29.4,16.6h-65.1c-2.3,0-2.7-0.4-2.7-2.7v-13.9
	c0-2.3,0.4-2.7,2.7-2.7h65.8c2.7,0,3.5-0.8,3.9-2.7V367c-0.3-2.2-2-4-4.3-4.3c-7.4-0.4-29-2.3-43.8-3.9c-19-1.9-23.2-10.1-24.4-17
	c-0.3-2.7-0.5-5.4-0.4-8.1c-0.1-2.8,0.1-5.7,0.4-8.5c2.7-12.4,12-18.2,28.3-18.2h63.1c2.3,0,3.1,0.4,3.1,2.3v14.3
	c0,1.9-0.8,2.7-3.1,2.3h-62c-2.7,0-3.9,1.2-4.3,3.9v3.5c0,1.9,0.8,3.5,3.9,3.9C456.3,338,479.1,339.9,487.6,340.7L487.6,340.7z"/>
</svg>
