<?xml version="1.0" standalone="no"?>
<!DOCTYPE svg PUBLIC "-//W3C//DTD SVG 20010904//EN"
 "http://www.w3.org/TR/2001/REC-SVG-20010904/DTD/svg10.dtd">
<svg version="1.0" xmlns="http://www.w3.org/2000/svg"
 width="1108.000000pt" height="483.000000pt" viewBox="0 0 1108.000000 483.000000"
 preserveAspectRatio="xMidYMid meet">

<g transform="translate(0.000000,483.000000) scale(0.100000,-0.100000)"
fill="#000000" stroke="none">
<path d="M4091 4809 c-158 -31 -303 -163 -352 -320 -39 -124 -18 -281 50 -388
166 -258 529 -293 735 -70 32 34 55 63 53 66 -3 2 -24 -10 -48 -26 -57 -40
-157 -65 -222 -57 -167 23 -287 136 -318 299 -26 145 55 302 193 373 74 38
199 45 278 15 l55 -20 -35 31 c-97 84 -254 124 -389 97z"/>
<path d="M5041 4300 c17 -41 42 -99 55 -128 l23 -53 -27 -10 c-107 -40 -191
-110 -230 -189 -60 -126 -54 -312 15 -429 35 -61 101 -122 166 -156 l54 -29
-52 -42 c-102 -83 -169 -188 -201 -314 -38 -151 17 -373 133 -532 22 -31 30
-48 21 -49 -54 -4 -210 4 -241 12 -31 8 -37 14 -32 27 4 9 16 42 27 72 41 111
7 260 -77 341 -19 19 -35 37 -35 40 0 3 18 11 41 18 59 18 115 78 134 146 27
92 0 187 -74 259 -35 34 -38 41 -29 62 6 13 9 26 7 29 -3 2 -33 -5 -68 -15
-169 -53 -396 -6 -553 113 l-46 35 -6 -30 c-3 -17 -6 -41 -6 -54 0 -19 -8 -25
-39 -34 -48 -13 -125 -80 -151 -131 -38 -74 -16 -183 53 -265 l26 -31 -26 -12
c-50 -23 -99 -70 -128 -123 -24 -43 -30 -65 -30 -118 0 -56 7 -80 51 -182 l51
-116 -31 -7 c-17 -4 -143 -9 -281 -11 -251 -4 -320 -10 -320 -31 0 -6 21 -41
47 -77 l48 -66 104 0 c58 0 107 -4 110 -9 12 -18 -165 -121 -306 -179 l-28
-12 43 -69 c48 -80 34 -77 184 -30 156 48 228 91 345 204 l66 65 76 0 76 0 48
-62 c26 -34 74 -93 107 -131 33 -38 74 -86 91 -105 l32 -37 66 59 c37 32 106
103 154 158 l87 99 295 -7 c172 -3 300 -10 307 -16 7 -6 92 -120 189 -254 96
-134 179 -246 183 -249 20 -12 301 295 456 498 19 24 27 26 145 34 69 5 186 7
262 5 l136 -4 87 -99 c48 -54 119 -127 157 -161 l71 -62 58 64 c32 36 93 108
135 161 l75 96 77 7 c42 3 176 9 298 13 l221 6 15 79 c15 77 14 78 -6 78 -12
0 -120 7 -241 15 -121 8 -223 15 -227 15 -4 0 13 42 36 93 64 136 80 191 73
249 -11 93 -64 166 -163 224 -17 10 -16 12 9 45 64 84 84 185 51 254 -24 50
-105 122 -153 135 -37 10 -41 14 -41 43 0 18 -3 42 -6 54 -6 21 -7 20 -52 -14
-61 -46 -142 -86 -231 -113 -62 -19 -88 -22 -184 -17 -67 3 -130 11 -156 21
-24 9 -46 15 -48 12 -2 -2 1 -15 6 -28 8 -22 5 -30 -26 -59 -89 -86 -112 -208
-59 -306 30 -54 80 -97 129 -108 15 -4 27 -10 27 -12 0 -3 -18 -26 -41 -50
-65 -71 -84 -122 -84 -228 1 -77 5 -99 28 -149 15 -33 26 -61 24 -63 -6 -6
-244 -9 -250 -3 -3 3 17 50 43 105 27 55 63 141 80 192 68 206 20 396 -142
556 -38 38 -68 70 -66 71 2 1 26 17 55 35 167 105 251 331 185 501 -29 73 -98
160 -166 207 -30 21 -55 41 -56 45 0 4 26 38 58 75 31 38 64 77 72 88 13 18
13 19 0 8 -29 -22 -163 -85 -231 -108 -173 -59 -373 -75 -514 -41 -133 32
-307 129 -418 235 l-38 36 32 -75z m182 -308 l58 -58 -46 -46 c-43 -44 -45
-48 -45 -104 1 -93 44 -167 113 -193 16 -6 59 -11 96 -11 l67 0 34 -70 c19
-38 37 -70 41 -70 4 0 24 30 45 68 51 93 51 93 82 81 43 -17 145 -13 185 6 50
24 104 86 113 130 5 27 0 58 -20 117 l-26 79 47 54 48 54 38 -22 c48 -27 119
-102 145 -153 47 -92 47 -207 0 -301 -26 -52 -108 -132 -164 -161 -57 -29
-163 -60 -233 -68 l-61 -7 43 -27 c94 -60 153 -144 184 -263 22 -87 13 -244
-20 -357 -14 -47 -24 -86 -22 -88 1 -2 21 14 42 35 52 49 88 113 107 188 17
63 20 203 7 273 -5 23 -7 42 -5 42 10 0 59 -62 82 -105 25 -46 27 -59 27 -165
0 -123 -17 -198 -72 -323 -26 -57 -26 -58 -47 -39 -32 29 -53 33 -102 20 -35
-10 -49 -10 -64 0 -26 16 -41 15 -79 -4 -28 -14 -39 -14 -76 -4 -62 17 -92 7
-111 -38 -34 -79 -40 -87 -66 -90 -19 -2 -31 4 -47 26 -12 17 -21 34 -21 39 0
6 -9 18 -21 29 -20 18 -22 18 -51 1 -39 -22 -55 -22 -68 3 -13 24 -29 25 -68
3 -26 -15 -34 -16 -56 -4 -34 18 -89 8 -131 -23 l-33 -26 -32 50 c-105 163
-135 355 -80 503 20 53 73 127 91 127 6 0 8 -3 5 -8 -2 -4 -9 -42 -15 -85 -19
-138 13 -269 92 -374 40 -53 64 -66 42 -22 -51 97 -69 290 -40 404 30 114 112
234 213 310 l45 35 -45 0 c-62 0 -193 35 -246 66 -181 106 -233 324 -119 490
32 46 144 134 170 134 7 0 39 -26 70 -58z m231 5 c104 -27 287 -29 355 -4 24
10 45 16 46 15 2 -2 -56 -77 -127 -168 -71 -91 -138 -176 -147 -189 -17 -23
-17 -23 -118 155 -136 243 -129 229 -107 220 10 -4 54 -17 98 -29z m-54 -236
c22 -33 40 -64 40 -69 0 -12 -35 -22 -77 -22 -61 0 -85 79 -38 125 13 14 26
25 29 25 3 0 23 -27 46 -59z m447 27 c25 -24 30 -72 10 -99 -17 -22 -71 -49
-100 -49 -13 0 -31 8 -41 19 -16 17 -14 22 36 84 29 36 57 66 62 67 6 0 20
-10 33 -22z m-1720 -465 l31 -46 -31 -39 c-44 -55 -44 -109 1 -149 17 -16 52
-34 77 -40 38 -10 50 -19 71 -55 l26 -44 39 31 c28 22 55 33 99 39 64 9 74 13
108 43 30 28 29 82 -2 128 l-25 36 41 33 c40 32 41 32 74 17 39 -19 89 -84
105 -138 34 -112 -60 -206 -227 -225 l-51 -6 24 -24 c61 -61 81 -193 49 -329
-8 -33 -13 -61 -12 -63 7 -6 68 52 81 78 8 15 20 61 27 101 l12 74 23 -50 c33
-72 30 -134 -10 -215 l-32 -65 -42 3 c-23 2 -52 -2 -64 -8 -15 -8 -24 -9 -32
-1 -6 6 -28 8 -52 4 -26 -3 -45 -1 -49 6 -9 14 -76 14 -111 1 -17 -6 -33 -7
-44 -1 -12 7 -26 6 -43 -3 -22 -12 -28 -12 -42 2 -15 15 -19 15 -47 -2 -28
-17 -32 -17 -65 -1 -22 10 -46 14 -68 10 l-33 -7 -56 114 c-30 63 -60 131 -65
151 -14 51 1 99 41 133 l32 27 5 -104 c6 -113 20 -152 66 -188 15 -12 29 -20
31 -18 2 2 -4 23 -12 47 -48 135 6 255 148 326 l52 27 -55 14 c-93 23 -167 83
-202 161 -23 51 -18 88 20 145 25 38 125 117 146 117 6 0 25 -21 43 -47z
m2964 8 c91 -65 132 -140 110 -203 -30 -87 -110 -155 -211 -181 l-55 -14 52
-27 c145 -73 197 -188 148 -325 -8 -24 -13 -46 -11 -48 2 -2 17 8 34 22 46 39
64 96 64 198 l-1 89 22 -15 c39 -26 60 -64 60 -109 0 -33 -15 -74 -64 -173
-61 -123 -65 -129 -97 -131 -18 -1 -39 -7 -46 -13 -11 -10 -22 -9 -47 4 -26
14 -36 15 -54 5 -17 -9 -28 -9 -43 -1 -13 7 -29 8 -45 2 -14 -6 -29 -6 -38 0
-20 12 -106 11 -115 -2 -4 -7 -22 -9 -49 -4 -26 3 -46 2 -50 -5 -4 -7 -13 -7
-27 1 -20 11 -76 8 -110 -6 -14 -5 -25 10 -59 76 -37 76 -41 88 -36 139 5 58
34 133 49 124 4 -3 8 -24 8 -47 0 -68 19 -119 61 -161 22 -21 41 -37 43 -35 3
2 -2 33 -11 69 -19 84 -14 221 11 269 10 19 29 44 42 56 l24 22 -53 6 c-169
20 -266 117 -227 226 20 56 65 115 103 135 l34 19 42 -33 c39 -31 51 -50 33
-50 -15 0 -42 -59 -42 -92 0 -56 60 -98 139 -98 28 0 50 -9 84 -35 l46 -35 26
44 c19 33 34 46 58 52 77 17 127 61 127 114 0 27 -22 70 -48 94 l-21 18 32 49
c18 27 37 49 43 49 6 0 35 -18 65 -39z m-2811 -42 c37 -14 79 -21 128 -22 65
0 71 -2 59 -16 -10 -13 -97 -117 -128 -154 -6 -7 -119 190 -119 207 0 8 -2 9
60 -15z m2610 15 c0 -18 -113 -215 -119 -207 -4 4 -37 44 -74 89 l-66 81 72 0
c47 1 89 8 122 21 57 23 65 25 65 16z m-2681 -135 c16 -46 14 -51 -20 -47 -44
4 -59 30 -35 57 27 29 42 26 55 -10z m2745 15 c31 -30 12 -64 -36 -64 -32 0
-32 1 -16 47 13 36 28 41 52 17z m-2445 -46 c11 -30 -4 -58 -32 -58 -41 0 -48
13 -25 48 23 37 45 41 57 10z m2154 -16 l18 -31 -25 -7 c-14 -3 -33 -4 -41 0
-29 11 -10 83 20 73 5 -2 18 -18 28 -35z m-795 -722 c22 -38 35 -38 62 1 30
41 57 35 90 -21 14 -25 39 -51 54 -58 18 -9 86 -16 199 -19 150 -5 178 -3 217
13 33 13 73 18 150 18 58 1 110 4 117 8 14 10 185 4 202 -6 7 -5 24 -2 37 5
21 11 29 10 52 -3 25 -15 30 -15 57 -1 25 14 36 14 75 3 27 -8 122 -14 240
-17 230 -4 242 -6 238 -36 -3 -21 -8 -22 -98 -25 -52 -1 -183 -7 -290 -13
-209 -12 -1253 -31 -1770 -32 -173 -1 -471 4 -662 11 -190 7 -501 12 -690 12
l-344 0 -35 -36 c-75 -78 -243 -177 -397 -234 -60 -22 -63 -22 -82 -5 -11 10
-20 21 -20 24 0 4 24 15 53 25 134 47 317 155 317 186 0 5 -12 22 -26 39 -25
30 -27 31 -117 31 -105 0 -162 13 -176 39 -9 17 5 18 288 24 165 4 321 12 348
18 42 10 54 9 82 -5 30 -16 34 -16 58 -1 21 14 30 15 48 5 17 -9 28 -9 43 -1
13 7 29 8 44 2 15 -6 31 -5 42 1 10 5 41 7 69 4 29 -4 71 -8 94 -9 23 -1 45
-5 48 -9 4 -4 16 -3 26 3 26 14 167 2 209 -18 26 -13 72 -18 180 -21 179 -4
228 7 244 56 21 62 50 62 90 1 32 -48 51 -49 70 -4 11 25 19 33 30 29 9 -3 16
-10 16 -15 0 -4 9 -13 21 -20 18 -9 25 -7 49 16 33 32 44 28 60 -23 15 -45 34
-62 73 -62 43 0 67 17 88 66 26 58 49 70 82 44 35 -28 62 -25 87 10 27 38 37
38 58 0z m-1407 -239 c-6 -10 -51 -61 -101 -112 l-92 -94 -56 60 c-31 33 -74
84 -94 113 l-38 52 195 0 c189 0 195 -1 186 -19z m2540 -23 c-56 -76 -143
-178 -153 -178 -12 0 -156 146 -187 188 l-22 32 196 0 197 0 -31 -42z m-1244
-125 c-69 -82 -142 -167 -163 -191 l-39 -42 -132 182 -132 183 187 5 c103 3
236 7 295 8 l108 2 -124 -147z"/>
<path d="M5109 3917 c-42 -29 -76 -87 -84 -148 -15 -106 41 -232 120 -273 40
-21 124 -28 159 -13 15 6 7 13 -43 38 -74 37 -116 86 -137 158 -18 60 -13 142
12 213 8 23 13 43 11 45 -2 2 -19 -7 -38 -20z"/>
<path d="M6021 3838 c26 -155 -44 -297 -176 -359 -33 -16 -68 -29 -77 -29 -37
0 -25 -18 17 -23 110 -16 209 28 277 122 32 45 33 48 33 153 0 113 -10 140
-61 175 -21 13 -21 13 -13 -39z"/>
<path d="M5322 3055 c4 -29 71 -50 106 -32 15 6 28 21 30 32 3 18 -3 20 -68
20 -65 0 -70 -2 -68 -20z"/>
<path d="M5760 3060 c-8 -5 -27 -10 -42 -10 -36 0 -58 -10 -58 -25 0 -28 91
-35 128 -9 43 30 17 73 -28 44z"/>
<path d="M5867 2864 c-4 -4 -30 -7 -59 -8 -41 -1 -53 -5 -56 -18 -4 -23 52
-33 107 -18 30 8 41 16 39 27 -3 18 -21 27 -31 17z"/>
<path d="M5460 2837 c0 -30 16 -37 78 -37 55 0 77 12 69 34 -5 12 -20 16 -54
16 -26 0 -58 3 -70 6 -19 5 -23 2 -23 -19z"/>
<path d="M5265 2821 c-45 -5 -50 -8 -50 -31 0 -23 3 -25 46 -24 53 0 101 26
93 49 -4 8 -14 14 -23 13 -9 0 -38 -4 -66 -7z"/>
<path d="M5350 2635 c0 -22 74 -41 106 -26 43 19 23 36 -44 38 -47 1 -62 -2
-62 -12z"/>
<path d="M5640 2630 c0 -24 22 -40 64 -47 41 -6 86 17 86 46 0 15 -9 18 -75
18 -64 0 -75 -3 -75 -17z"/>
<path d="M4013 3235 c-27 -19 -46 -75 -38 -108 9 -33 42 -64 80 -73 l30 -7
-29 33 c-26 31 -28 39 -24 102 2 37 3 68 3 68 0 0 -10 -7 -22 -15z"/>
<path d="M4638 3143 c4 -59 -20 -109 -67 -140 -38 -26 -20 -31 32 -9 47 19 87
70 87 110 0 30 -31 86 -48 86 -4 0 -6 -21 -4 -47z"/>
<path d="M4130 2786 c0 -17 41 -32 65 -22 21 8 19 26 -2 26 -10 0 -28 3 -40 6
-17 5 -23 2 -23 -10z"/>
<path d="M4342 2769 c3 -8 17 -18 31 -23 21 -8 31 -6 44 7 15 15 15 17 1 17
-8 0 -30 3 -48 7 -25 5 -32 3 -28 -8z"/>
<path d="M4205 2641 c-12 -20 6 -31 46 -31 33 0 40 3 37 18 -4 20 -72 30 -83
13z"/>
<path d="M4093 2573 c-23 -8 -14 -31 16 -41 22 -8 32 -7 41 2 7 10 7 16 -2 23
-19 14 -41 21 -55 16z"/>
<path d="M4367 2553 c-14 -14 -6 -31 18 -37 38 -10 75 3 75 25 0 16 -7 19 -43
19 -24 0 -47 -3 -50 -7z"/>
<path d="M7076 3224 c14 -70 8 -108 -22 -143 -29 -34 -19 -39 31 -15 47 22 63
64 44 117 -8 22 -24 47 -36 55 -22 14 -23 14 -17 -14z"/>
<path d="M6446 3171 c-10 -11 -20 -37 -23 -58 -4 -32 0 -45 23 -72 28 -33 78
-61 110 -61 11 0 5 8 -16 23 -48 33 -72 82 -67 140 4 51 -1 57 -27 28z"/>
<path d="M6928 2793 c-30 -5 -37 -20 -13 -29 23 -9 65 5 65 21 0 8 -6 14 -12
14 -7 -1 -25 -4 -40 -6z"/>
<path d="M6706 2771 c-27 -5 -28 -7 -12 -20 19 -16 66 -6 74 17 4 13 -14 14
-62 3z"/>
<path d="M6827 2644 c-4 -4 -7 -14 -7 -21 0 -10 11 -13 43 -11 29 2 42 8 42
18 0 16 -64 27 -78 14z"/>
<path d="M6961 2556 c-8 -10 -8 -16 1 -23 18 -14 62 0 66 20 3 13 -4 17 -26
17 -16 0 -35 -6 -41 -14z"/>
<path d="M6650 2542 c0 -23 37 -36 76 -26 44 11 26 39 -29 42 -41 3 -47 1 -47
-16z"/>
<path d="M1590 1740 c-270 -16 -484 -58 -775 -155 -335 -111 -494 -191 -632
-319 -34 -31 -77 -81 -97 -109 -38 -58 -76 -160 -76 -204 0 -124 93 -206 281
-250 60 -13 130 -17 364 -18 258 -1 299 -4 376 -23 104 -25 217 -67 241 -89
29 -26 23 -83 -14 -139 -61 -91 -195 -160 -372 -190 -191 -34 -603 -1 -711 55
-48 26 -96 27 -125 3 -50 -40 6 -140 103 -186 158 -74 557 -98 799 -46 312 66
610 243 693 413 65 133 54 239 -34 327 -75 75 -176 119 -361 157 -71 14 -141
17 -415 18 -305 0 -333 1 -359 18 -25 17 -28 23 -23 55 4 19 19 48 34 64 40
42 150 108 283 172 176 83 230 93 270 51 48 -51 230 -82 435 -72 202 9 355 64
468 167 81 74 99 106 86 156 -17 60 -44 97 -91 124 -51 28 -124 33 -348 20z
m-96 -230 c55 -20 23 -89 -51 -109 -54 -15 -175 -14 -197 2 -57 42 45 117 160
117 35 0 74 -4 88 -10z"/>
<path d="M5510 1507 c-167 -59 -320 -164 -320 -220 0 -21 6 -28 35 -36 19 -5
44 -7 56 -4 17 5 20 3 14 -8 -5 -8 -32 -50 -60 -94 -130 -202 -241 -416 -292
-560 -31 -85 -43 -277 -23 -341 34 -109 115 -164 250 -172 154 -9 284 54 448
215 74 73 115 106 141 113 20 5 46 17 58 25 18 13 27 14 44 4 21 -11 74 -8
133 7 23 5 23 5 14 -48 -22 -132 23 -241 117 -284 116 -54 292 -37 455 42 78
38 109 61 173 125 49 51 86 79 100 79 55 1 181 31 237 56 106 47 207 137 270
240 28 44 72 67 111 59 16 -4 31 -11 35 -16 3 -5 -24 -41 -60 -81 -41 -43 -81
-100 -104 -146 -32 -65 -37 -86 -37 -141 1 -82 20 -119 82 -162 77 -53 138
-72 233 -73 154 -2 307 75 444 222 158 170 314 322 330 322 25 0 14 -41 -38
-149 -35 -73 -42 -98 -44 -161 -3 -65 -1 -80 20 -110 34 -51 107 -84 188 -84
100 -1 141 24 261 161 133 150 260 256 288 238 5 -3 2 -26 -6 -52 -8 -27 -15
-80 -16 -118 -3 -125 34 -158 209 -191 98 -18 190 -14 247 10 19 8 66 46 103
86 67 70 152 140 171 140 5 0 14 -19 20 -43 35 -129 190 -228 334 -214 90 10
166 43 221 98 26 26 48 53 48 59 0 7 84 10 253 11 l252 0 82 97 81 97 -291 5
-291 5 -7 25 c-11 41 -10 204 2 241 7 19 27 54 45 78 46 60 47 104 3 127 -44
22 -127 29 -190 14 -75 -17 -220 -88 -304 -148 -139 -98 -311 -265 -521 -505
-34 -39 -46 -47 -75 -47 -67 0 -76 40 -29 138 65 138 86 263 56 335 -31 76
-150 136 -239 122 -65 -11 -94 -30 -203 -134 -55 -53 -136 -128 -180 -167
l-79 -72 0 102 c0 87 -4 108 -25 151 -14 27 -39 59 -57 71 -39 26 -128 36
-197 23 -120 -22 -274 -126 -382 -260 -219 -269 -399 -426 -452 -393 -58 36
11 220 134 356 53 59 58 96 25 181 -25 64 -34 75 -72 95 -46 24 -92 25 -244 6
-42 -5 -62 -1 -115 21 -47 20 -75 26 -104 22 -56 -8 -71 -27 -67 -85 8 -101 5
-115 -36 -151 -90 -79 -155 -121 -190 -121 -29 0 -36 5 -49 35 -21 52 -17 81
16 115 34 34 37 55 15 106 -28 67 -135 81 -243 33 -49 -23 -76 -18 -99 17 -26
41 -90 68 -158 68 -79 0 -149 -33 -240 -114 -153 -136 -221 -180 -282 -180
-58 0 -79 20 -86 82 -8 68 -44 137 -87 166 -66 44 -202 22 -289 -47 -48 -38
-71 -40 -71 -6 0 14 52 169 115 345 63 176 115 325 115 330 0 15 -30 40 -48
40 -9 0 -46 -11 -82 -23z m4650 -799 c-1 -24 -6 -72 -13 -108 -11 -59 -15 -66
-47 -82 -39 -20 -86 -23 -125 -8 -24 9 -26 14 -20 43 11 48 31 82 71 121 32
31 107 76 127 76 4 0 7 -19 7 -42z m-3628 -45 c23 -26 64 -112 78 -161 9 -35
8 -53 -5 -99 -14 -47 -29 -69 -84 -124 -49 -49 -77 -69 -103 -74 -93 -17 -119
58 -78 221 48 184 139 297 192 237z m-1118 -55 c69 -102 82 -178 42 -256 -56
-111 -147 -193 -196 -177 -70 22 -64 250 10 395 20 40 73 90 95 90 7 0 29 -24
49 -52z"/>
<path d="M2473 900 c-214 -30 -473 -154 -587 -281 -60 -67 -105 -160 -118
-245 -9 -62 -8 -75 12 -128 27 -70 89 -142 145 -167 53 -25 156 -25 234 0 34
10 136 60 227 110 91 50 167 91 170 91 2 0 4 -7 4 -15 0 -34 45 -131 78 -167
62 -68 101 -83 222 -83 85 1 116 5 162 24 87 34 170 103 261 215 45 55 108
127 140 159 49 49 63 58 89 55 52 -5 56 -27 18 -109 -56 -122 -50 -208 19
-243 44 -23 139 -35 199 -25 86 13 134 48 214 157 92 125 148 188 210 235 91
68 125 39 73 -61 -66 -128 -30 -274 80 -323 56 -25 175 -34 265 -20 128 20
191 64 194 135 1 43 -27 45 -101 8 -69 -35 -108 -45 -135 -36 -30 9 -20 78 22
138 87 128 134 275 116 370 -20 104 -191 185 -331 156 -47 -10 -66 -22 -142
-92 -137 -125 -194 -159 -232 -139 -18 10 -43 65 -55 123 -8 37 -54 88 -93
104 -46 20 -114 17 -176 -6 -46 -17 -75 -41 -183 -153 -71 -72 -182 -194 -248
-270 -158 -185 -264 -268 -301 -237 -27 22 -18 86 25 180 81 176 72 284 -27
326 -87 37 -180 -1 -333 -136 -193 -170 -406 -320 -454 -320 -22 0 -46 28 -46
54 0 51 63 150 149 236 132 131 265 193 450 211 132 12 171 28 171 67 0 34
-29 64 -85 88 -47 19 -209 27 -302 14z"/>
</g>
</svg>
