<?xml version="1.0" encoding="utf-8"?>
<!-- Generator: Adobe Illustrator 26.0.3, SVG Export Plug-In . SVG Version: 6.00 Build 0)  -->
<svg version="1.1"
	 id="Santander" inkscape:version="1.1 (c68e22c387, 2021-05-23)" sodipodi:docname="Banco_Santander_Logotipo.svg" xmlns:cc="http://creativecommons.org/ns#" xmlns:dc="http://purl.org/dc/elements/1.1/" xmlns:inkscape="http://www.inkscape.org/namespaces/inkscape" xmlns:rdf="http://www.w3.org/1999/02/22-rdf-syntax-ns#" xmlns:sodipodi="http://sodipodi.sourceforge.net/DTD/sodipodi-0.dtd" xmlns:svg="http://www.w3.org/2000/svg"
	 xmlns="http://www.w3.org/2000/svg" xmlns:xlink="http://www.w3.org/1999/xlink" x="0px" y="0px" viewBox="0 0 100 100"
	 style="enable-background:new 0 0 100 100;" xml:space="preserve">
<style type="text/css">
	.st0{fill:#EA1D25;}
</style>
<sodipodi:namedview  bordercolor="#666666" borderopacity="1.0" fit-margin-bottom="0" fit-margin-left="0" fit-margin-right="0" fit-margin-top="0" id="namedview11" inkscape:current-layer="Santander" inkscape:cx="105.82848" inkscape:cy="46.445767" inkscape:pagecheckerboard="0" inkscape:pageopacity="0.0" inkscape:pageshadow="2" inkscape:window-height="1017" inkscape:window-maximized="1" inkscape:window-width="1920" inkscape:window-x="1912" inkscape:window-y="-8" inkscape:zoom="2.3575884" pagecolor="#ffffff" showgrid="false">
	</sodipodi:namedview>
<path class="st0" d="M65,47.4c-0.2-2.3-0.8-4.8-2.1-6.8L52.3,21.8c-0.8-1.4-1.4-3-1.8-4.6L50.1,18c-2.7,4.6-2.7,10.4,0,15l8.7,15
	c2.7,4.6,2.7,10.4,0,15l-0.5,0.8c-0.3-1.6-0.9-3.2-1.8-4.6l-7.9-13.7l-5-8.9c-0.8-1.4-1.4-3-1.8-4.6l-0.5,0.8
	c-2.7,4.6-2.7,10.3,0,15l0,0l8.7,15c2.7,4.6,2.7,10.4,0,15l-0.5,0.8c-0.3-1.6-0.9-3.2-1.8-4.6L37,54.9c-1.4-2.5-2.1-5.3-2.1-8.2
	c-11.4,3.3-19.4,9.8-19.4,17.2C15.5,74.3,31,82.7,50,82.7s34.5-8.4,34.5-18.7C84.6,56.8,76.7,50.4,65,47.4z"/>
</svg>
