<?xml version="1.0" standalone="no"?>
<!DOCTYPE svg PUBLIC "-//W3C//DTD SVG 20010904//EN"
 "http://www.w3.org/TR/2001/REC-SVG-20010904/DTD/svg10.dtd">
<svg version="1.0" xmlns="http://www.w3.org/2000/svg"
 width="776.000000pt" height="366.000000pt" viewBox="0 0 776.000000 366.000000"
 preserveAspectRatio="xMidYMid meet">

<g transform="translate(0.000000,366.000000) scale(0.100000,-0.100000)"
fill="#000000" stroke="none">
<path d="M2297 2389 c-118 -17 -194 -85 -204 -182 -4 -44 -1 -64 16 -100 31
-65 81 -93 233 -132 139 -36 168 -52 168 -95 0 -43 -32 -64 -107 -68 -80 -5
-122 13 -146 64 l-17 34 -86 0 -87 0 6 -42 c3 -23 18 -59 34 -81 105 -149 447
-152 549 -5 26 37 29 50 29 117 0 63 -4 81 -23 108 -30 43 -124 87 -242 114
-126 28 -150 41 -150 79 0 41 39 65 106 64 60 0 101 -22 110 -59 6 -24 9 -25
95 -25 79 0 89 2 89 18 0 31 -48 117 -78 139 -62 46 -188 68 -295 52z"/>
<path d="M450 2381 c0 -7 -5 -9 -12 -5 -7 5 -8 3 -3 -5 5 -9 10 -10 18 -2 6 6
8 14 4 18 -4 3 -7 1 -7 -6z"/>
<path d="M5810 2310 l0 -70 105 0 105 0 0 -275 0 -275 90 0 90 0 0 275 0 275
110 0 110 0 0 70 0 70 -305 0 -305 0 0 -70z"/>
<path d="M382 2325 c-78 -85 -152 -235 -152 -307 0 -61 38 -113 103 -144 29
-13 68 -23 87 -23 22 1 27 3 13 6 -12 2 -27 12 -35 21 -9 11 -10 14 0 8 21
-13 33 3 19 27 -6 12 -15 24 -19 27 -4 3 -9 18 -12 33 -2 14 -7 30 -10 35 -14
23 -2 227 14 248 7 7 9 18 5 23 -3 6 3 19 14 30 12 12 16 23 10 26 -5 4 -7 11
-4 16 13 19 -3 8 -33 -26z"/>
<path d="M3750 2073 c0 -157 4 -284 11 -306 17 -64 102 -98 204 -83 l45 7 0
53 0 53 -40 7 c-25 4 -43 14 -50 26 -6 12 -9 68 -8 137 l3 118 48 3 47 3 0 50
0 49 -50 0 -50 0 0 75 0 75 -80 0 -80 0 0 -267z"/>
<path d="M1635 2290 c-3 -6 1 -7 9 -4 18 7 21 14 7 14 -6 0 -13 -4 -16 -10z"/>
<path d="M1652 2251 c5 -19 35 -37 44 -28 4 4 0 15 -9 24 -14 14 -17 15 -17 3
0 -13 -2 -13 -11 0 -8 12 -10 12 -7 1z"/>
<path d="M1684 2180 c1 -16 4 -30 7 -30 3 0 3 -20 -1 -45 -5 -31 -3 -44 4 -42
15 5 15 139 0 144 -7 2 -11 -8 -10 -27z"/>
<path d="M2910 2180 c-66 -22 -140 -96 -158 -157 -56 -187 68 -347 268 -346
119 1 201 45 246 134 116 230 -103 457 -356 369z m159 -105 c74 -38 82 -207
13 -269 -25 -22 -86 -25 -121 -7 -32 17 -54 76 -53 142 0 118 74 179 161 134z"/>
<path d="M4240 2191 c-88 -28 -151 -93 -176 -178 -34 -117 10 -236 110 -298
44 -27 59 -30 143 -33 86 -4 99 -2 149 23 35 17 66 42 85 68 44 61 41 67 -46
67 -66 0 -77 -3 -99 -25 -59 -59 -186 -12 -186 69 0 14 24 16 186 16 l187 0
-6 58 c-8 96 -58 172 -140 214 -45 23 -162 34 -207 19z m151 -130 c16 -16 29
-39 29 -50 0 -20 -5 -21 -100 -21 -107 0 -112 3 -86 49 32 57 111 68 157 22z"/>
<path d="M4810 2180 c-66 -22 -140 -96 -158 -157 -29 -97 -2 -213 64 -275 110
-103 325 -95 420 15 89 104 82 260 -14 356 -78 78 -196 101 -312 61z m159
-105 c51 -26 78 -140 50 -212 -20 -53 -48 -73 -101 -73 -62 0 -91 27 -106 96
-30 140 55 242 157 189z"/>
<path d="M5368 2186 c-87 -32 -122 -73 -122 -146 0 -90 40 -121 198 -154 75
-16 102 -26 113 -42 21 -33 -9 -65 -63 -66 -59 -1 -82 9 -99 43 -15 28 -18 29
-90 29 -86 0 -91 -7 -52 -75 43 -77 164 -115 294 -95 116 19 173 71 173 159 0
93 -55 138 -195 161 -122 20 -153 42 -115 80 36 36 140 17 140 -26 0 -11 16
-14 75 -14 70 0 75 1 75 21 0 36 -40 88 -84 111 -52 27 -192 35 -248 14z"/>
<path d="M6500 2191 c-133 -41 -207 -169 -179 -311 15 -76 63 -140 130 -174
45 -22 66 -26 138 -26 109 0 175 27 220 91 47 63 43 69 -44 69 -66 0 -77 -3
-99 -25 -59 -59 -186 -12 -186 69 0 14 24 16 186 16 l187 0 -6 58 c-13 145
-123 244 -271 241 -28 0 -62 -4 -76 -8z m143 -121 c14 -11 30 -33 35 -50 l11
-30 -105 0 c-111 0 -116 3 -90 49 28 51 104 67 149 31z"/>
<path d="M7077 2186 c-107 -39 -166 -113 -175 -221 -7 -88 11 -145 64 -204 56
-62 107 -83 205 -84 81 -1 124 12 177 50 37 28 75 95 70 126 -3 18 -11 22 -58
24 -69 4 -100 -3 -100 -23 0 -26 -47 -64 -80 -64 -76 0 -115 53 -113 156 2 66
25 112 67 129 45 19 86 7 111 -33 20 -31 22 -31 98 -32 42 0 77 4 77 9 0 24
-34 84 -65 115 -59 59 -189 83 -278 52z"/>
<path d="M3350 1940 l0 -250 85 0 85 0 0 144 c0 132 2 145 22 171 25 32 74 55
118 55 l30 0 0 65 0 65 -40 0 c-50 0 -91 -20 -119 -57 l-20 -28 -1 43 0 42
-80 0 -80 0 0 -250z"/>
<path d="M1687 2037 c-11 -29 -9 -43 4 -30 6 6 9 19 7 29 -3 18 -4 18 -11 1z"/>
<path d="M1650 1960 c0 -11 4 -20 9 -20 6 0 9 9 8 20 -1 11 -5 20 -9 20 -4 0
-8 -9 -8 -20z"/>
<path d="M1798 1954 c-5 -4 -8 -15 -8 -23 0 -32 -70 -163 -129 -240 -133 -175
-343 -318 -559 -382 -23 -7 -41 -16 -40 -21 7 -19 117 -101 175 -130 l62 -30
65 30 c219 102 377 292 430 517 17 71 20 296 4 279z"/>
<path d="M428 1873 c6 -2 18 -2 25 0 6 3 1 5 -13 5 -14 0 -19 -2 -12 -5z"/>
<path d="M203 1762 c7 -82 52 -225 83 -261 32 -39 121 -79 211 -96 78 -15 273
-21 273 -8 0 3 -6 14 -14 22 -7 9 -35 58 -61 109 -26 50 -54 92 -61 92 -7 0
-23 12 -36 28 -26 31 -85 52 -145 52 -67 0 -161 38 -211 86 l-45 43 6 -67z"/>
<path d="M4143 1585 c0 -8 4 -12 9 -9 5 3 6 10 3 15 -9 13 -12 11 -12 -6z"/>
<path d="M1175 1520 c-14 -15 -21 -17 -32 -9 -10 9 -13 8 -13 -3 0 -10 -11
-13 -40 -10 -25 3 -40 0 -40 -7 0 -6 -5 -11 -11 -11 -5 0 -7 5 -3 11 4 7 0 9
-12 5 -11 -3 -35 -2 -53 4 -24 7 -39 6 -48 -1 -10 -9 -13 -8 -13 1 0 8 -2 11
-5 8 -3 -3 4 -22 16 -42 21 -36 23 -37 63 -30 64 10 179 56 204 80 7 7 20 11
30 8 14 -5 15 -4 2 5 -21 15 -24 14 -45 -9z m-185 -44 c8 -3 4 -4 -10 0 -14 3
-30 6 -37 6 -7 1 -10 5 -7 10 3 4 13 4 22 -1 9 -4 24 -11 32 -15z"/>
<path d="M3420 1530 c-9 -6 -10 -10 -3 -10 6 0 15 5 18 10 8 12 4 12 -15 0z"/>
<path d="M4145 1530 c-3 -5 -1 -10 4 -10 6 0 11 5 11 10 0 6 -2 10 -4 10 -3 0
-8 -4 -11 -10z"/>
<path d="M6247 1519 c7 -7 15 -10 18 -7 3 3 -2 9 -12 12 -14 6 -15 5 -6 -5z"/>
<path d="M2584 1499 c0 -10 4 -19 8 -19 4 0 8 6 8 14 0 8 -4 17 -8 20 -4 2 -8
-4 -8 -15z"/>
<path d="M3160 1516 c0 -2 7 -6 15 -10 8 -3 15 -1 15 4 0 6 -7 10 -15 10 -8 0
-15 -2 -15 -4z"/>
<path d="M3729 1503 c-13 -15 -12 -15 7 -5 12 6 25 8 29 4 5 -4 5 -1 1 6 -10
16 -21 15 -37 -5z"/>
<path d="M4763 1513 c-15 -5 -17 -23 -4 -23 5 0 11 7 15 15 3 8 4 15 3 14 -1
0 -8 -3 -14 -6z"/>
<path d="M4800 1516 c0 -2 9 -6 20 -9 11 -3 18 -1 14 4 -5 9 -34 13 -34 5z"/>
<path d="M6205 1510 c-3 -6 1 -7 9 -4 18 7 21 14 7 14 -6 0 -13 -4 -16 -10z"/>
<path d="M7250 1509 c0 -5 5 -7 10 -4 6 3 10 8 10 11 0 2 -4 4 -10 4 -5 0 -10
-5 -10 -11z"/>
<path d="M2210 1500 c-13 -8 -13 -11 -1 -22 8 -8 11 -8 7 -1 -3 6 0 13 6 16 7
2 11 7 8 10 -3 3 -12 2 -20 -3z"/>
<path d="M2797 1503 c-4 -3 -7 -11 -7 -17 0 -6 5 -5 12 2 6 6 9 14 7 17 -3 3
-9 2 -12 -2z"/>
<path d="M3893 1498 c-6 -7 -13 -20 -18 -28 -6 -12 -5 -12 5 -3 7 6 20 9 29 6
13 -4 13 -3 2 5 -7 5 -10 15 -7 21 10 15 1 14 -11 -1z"/>
<path d="M4151 1494 c0 -11 3 -14 6 -6 3 7 2 16 -1 19 -3 4 -6 -2 -5 -13z"/>
<path d="M4460 1499 c0 -5 5 -7 10 -4 6 3 10 8 10 11 0 2 -4 4 -10 4 -5 0 -10
-5 -10 -11z"/>
<path d="M4710 1495 c0 -8 4 -15 10 -15 5 0 7 7 4 15 -4 8 -8 15 -10 15 -2 0
-4 -7 -4 -15z"/>
<path d="M5341 1494 c0 -11 3 -14 6 -6 3 7 2 16 -1 19 -3 4 -6 -2 -5 -13z"/>
<path d="M5368 1503 c6 -2 9 -10 6 -15 -4 -7 -2 -8 5 -4 13 9 5 26 -12 25 -9
0 -8 -2 1 -6z"/>
<path d="M5836 1497 c3 -10 9 -15 12 -12 3 3 0 11 -7 18 -10 9 -11 8 -5 -6z"/>
<path d="M3147 1493 c-11 -11 -8 -20 7 -20 8 0 12 6 9 14 -6 15 -7 15 -16 6z"/>
<path d="M5865 1489 c-4 -6 -5 -12 -2 -15 2 -3 7 2 10 11 7 17 1 20 -8 4z"/>
<path d="M6980 1480 c0 -11 2 -20 4 -20 2 0 6 9 9 20 3 11 1 20 -4 20 -5 0 -9
-9 -9 -20z"/>
<path d="M2556 1475 c4 -8 8 -15 10 -15 2 0 4 7 4 15 0 8 -4 15 -10 15 -5 0
-7 -7 -4 -15z"/>
<path d="M2762 1470 c0 -14 2 -19 5 -12 2 6 2 18 0 25 -3 6 -5 1 -5 -13z"/>
<path d="M6343 1475 c0 -8 4 -12 9 -9 5 3 6 10 3 15 -9 13 -12 11 -12 -6z"/>
<path d="M2160 1476 c0 -2 8 -10 18 -17 15 -13 16 -12 3 4 -13 16 -21 21 -21
13z"/>
<path d="M2956 1465 c4 -8 8 -15 10 -15 2 0 4 7 4 15 0 8 -4 15 -10 15 -5 0
-7 -7 -4 -15z"/>
<path d="M3710 1471 c0 -6 4 -13 10 -16 6 -3 7 1 4 9 -7 18 -14 21 -14 7z"/>
<path d="M4690 1470 c0 -5 5 -10 11 -10 5 0 7 5 4 10 -3 6 -8 10 -11 10 -2 0
-4 -4 -4 -10z"/>
<path d="M5555 1470 c3 -5 11 -10 16 -10 6 0 7 5 4 10 -3 6 -11 10 -16 10 -6
0 -7 -4 -4 -10z"/>
<path d="M6138 1473 c6 -2 12 -12 12 -21 0 -15 2 -15 10 -2 9 15 -4 30 -25 29
-5 0 -4 -3 3 -6z"/>
<path d="M2925 1460 c3 -5 8 -10 11 -10 2 0 4 5 4 10 0 6 -5 10 -11 10 -5 0
-7 -4 -4 -10z"/>
<path d="M5306 1457 c3 -10 9 -15 12 -12 3 3 0 11 -7 18 -10 9 -11 8 -5 -6z"/>
<path d="M6010 1463 c0 -7 35 -43 43 -43 5 0 1 7 -7 16 -9 8 -14 19 -12 23 3
4 -1 8 -9 8 -8 0 -15 -2 -15 -4z"/>
<path d="M6751 1453 c7 -12 15 -20 18 -17 3 2 -3 12 -13 22 -17 16 -18 16 -5
-5z"/>
<path d="M2741 1444 c0 -11 3 -14 6 -6 3 7 2 16 -1 19 -3 4 -6 -2 -5 -13z"/>
<path d="M2821 1446 c-9 -10 -9 -16 -1 -21 6 -4 14 -4 17 -1 4 3 1 6 -7 6 -10
0 -10 3 0 15 7 8 10 15 7 15 -2 0 -10 -6 -16 -14z"/>
<path d="M4090 1450 c0 -5 5 -10 11 -10 5 0 7 5 4 10 -3 6 -8 10 -11 10 -2 0
-4 -4 -4 -10z"/>
<path d="M5605 1443 c11 -11 26 -20 33 -20 19 0 15 5 -20 23 -33 16 -33 16
-13 -3z"/>
<path d="M7143 1452 c-7 -4 -9 -13 -4 -21 6 -9 10 -7 14 8 3 12 4 21 4 21 -1
0 -7 -4 -14 -8z"/>
<path d="M5861 1443 c0 -5 4 -17 9 -28 8 -18 9 -17 9 8 1 15 -3 27 -9 27 -5 0
-10 -3 -9 -7z"/>
<path d="M6893 1426 c0 -18 3 -24 9 -18 7 7 7 16 0 28 -8 14 -9 13 -9 -10z"/>
<path d="M7203 1435 c0 -8 4 -12 9 -9 5 3 6 10 3 15 -9 13 -12 11 -12 -6z"/>
<path d="M3790 1430 c0 -5 5 -10 11 -10 5 0 7 5 4 10 -3 6 -8 10 -11 10 -2 0
-4 -4 -4 -10z"/>
<path d="M7160 1436 c0 -2 7 -9 15 -16 9 -7 15 -8 15 -2 0 5 -7 12 -15 16 -8
3 -15 4 -15 2z"/>
<path d="M2516 1413 c-6 -14 -5 -15 5 -6 7 7 10 15 7 18 -3 3 -9 -2 -12 -12z"/>
<path d="M2951 1407 c-13 -21 -12 -21 5 -5 10 10 16 20 13 22 -3 3 -11 -5 -18
-17z"/>
<path d="M3093 1416 c-6 -8 -8 -17 -3 -22 4 -5 10 -18 13 -29 2 -11 4 -1 3 23
0 23 0 42 -1 42 0 -1 -5 -7 -12 -14z"/>
<path d="M4685 1420 c-3 -5 -3 -10 2 -10 4 0 1 -5 -7 -11 -11 -8 -12 -12 -2
-16 6 -2 12 -9 12 -14 0 -6 -5 -7 -12 -3 -7 4 -8 3 -4 -5 6 -9 11 -9 22 0 10
8 11 15 5 19 -6 3 -9 16 -6 28 4 23 0 28 -10 12z"/>
<path d="M6990 1419 c0 -5 5 -7 10 -4 6 3 10 8 10 11 0 2 -4 4 -10 4 -5 0 -10
-5 -10 -11z"/>
<path d="M2890 1395 c13 -14 26 -25 28 -25 3 0 -5 11 -18 25 -13 14 -26 25
-28 25 -3 0 5 -11 18 -25z"/>
<path d="M3806 1405 c-11 -8 -15 -15 -9 -15 6 0 16 7 23 15 16 19 11 19 -14 0z"/>
<path d="M5140 1413 c8 -3 19 -11 23 -17 6 -7 7 -6 4 4 -2 8 -12 16 -23 17
-13 2 -15 1 -4 -4z"/>
<path d="M5653 1395 c0 -8 3 -13 5 -10 3 3 14 -2 24 -12 11 -9 18 -11 18 -5 0
7 -5 12 -11 12 -5 0 -7 6 -3 13 4 6 4 9 -1 5 -4 -4 -13 -3 -20 2 -8 7 -12 5
-12 -5z"/>
<path d="M6357 1393 c3 -7 6 -13 8 -13 2 0 5 6 8 13 3 8 -1 14 -8 14 -7 0 -11
-6 -8 -14z"/>
<path d="M2145 1389 c-4 -6 -4 -13 -1 -16 3 -4 6 -1 6 6 0 7 5 9 12 5 7 -4 8
-3 4 4 -9 15 -13 15 -21 1z"/>
<path d="M2278 1393 c7 -3 16 -2 19 1 4 3 -2 6 -13 5 -11 0 -14 -3 -6 -6z"/>
<path d="M2623 1385 c-3 -9 -3 -18 -1 -21 3 -3 8 4 11 16 6 23 -1 27 -10 5z"/>
<path d="M4061 1388 c-1 -9 -9 -22 -18 -27 -10 -6 -13 -11 -7 -11 17 0 37 27
31 42 -4 8 -6 7 -6 -4z"/>
<path d="M4470 1390 c0 -6 4 -9 9 -6 5 4 12 1 14 -4 3 -6 4 -5 3 2 -3 15 -26
23 -26 8z"/>
<path d="M6035 1389 c-4 -6 -5 -12 -2 -15 2 -3 7 2 10 11 7 17 1 20 -8 4z"/>
<path d="M2961 1378 c-1 -12 -6 -15 -18 -11 -17 6 -17 6 0 -11 21 -22 30 -16
24 16 -2 14 -5 16 -6 6z"/>
<path d="M3480 1380 c0 -5 5 -10 11 -10 5 0 7 5 4 10 -3 6 -8 10 -11 10 -2 0
-4 -4 -4 -10z"/>
<path d="M4090 1380 c0 -5 5 -10 11 -10 5 0 7 5 4 10 -3 6 -8 10 -11 10 -2 0
-4 -4 -4 -10z"/>
<path d="M4135 1379 c-11 -16 -1 -19 13 -3 7 8 8 14 3 14 -5 0 -13 -5 -16 -11z"/>
<path d="M4981 1374 c0 -11 3 -14 6 -6 3 7 2 16 -1 19 -3 4 -6 -2 -5 -13z"/>
<path d="M6757 1373 c3 -7 6 -13 8 -13 2 0 5 6 8 13 3 8 -1 14 -8 14 -7 0 -11
-6 -8 -14z"/>
<path d="M2480 1376 c0 -2 7 -7 16 -10 8 -3 12 -2 9 4 -6 10 -25 14 -25 6z"/>
<path d="M5390 1370 c-24 -15 -7 -18 20 -3 14 7 18 13 10 13 -8 0 -22 -4 -30
-10z"/>
<path d="M2167 1356 c-3 -8 0 -20 8 -26 12 -10 13 -8 10 10 -6 29 -11 34 -18
16z"/>
<path d="M5993 1354 c-3 -8 -2 -19 3 -24 5 -5 9 1 9 16 0 28 -3 30 -12 8z"/>
<path d="M3061 1346 c-8 -10 -8 -16 1 -24 10 -8 13 -4 13 14 0 28 1 28 -14 10z"/>
<path d="M3219 1347 c6 -8 7 -18 3 -22 -4 -5 -1 -5 6 -1 10 6 10 11 1 22 -6 8
-14 14 -16 14 -3 0 0 -6 6 -13z"/>
<path d="M4987 1340 c-16 -20 -12 -27 8 -12 9 6 19 32 12 32 -1 0 -10 -9 -20
-20z"/>
<path d="M5241 1346 c-12 -14 -11 -16 5 -9 17 6 18 5 4 -12 -14 -17 -14 -17 8
-4 12 8 22 17 22 22 0 4 -4 6 -9 3 -5 -4 -11 -1 -13 5 -2 7 -9 5 -17 -5z"/>
<path d="M5405 1350 c-3 -6 1 -7 9 -4 18 7 21 14 7 14 -6 0 -13 -4 -16 -10z"/>
<path d="M6326 1348 c3 -5 10 -6 15 -3 13 9 11 12 -6 12 -8 0 -12 -4 -9 -9z"/>
<path d="M5110 1340 c0 -5 5 -10 11 -10 5 0 7 5 4 10 -3 6 -8 10 -11 10 -2 0
-4 -4 -4 -10z"/>
<path d="M5704 1334 c-10 -8 -13 -12 -5 -8 7 3 18 0 23 -7 8 -11 9 -10 5 3 -3
9 -1 19 6 22 7 2 7 5 1 5 -5 1 -19 -6 -30 -15z"/>
<path d="M5856 1335 c4 -8 11 -15 16 -15 6 0 5 6 -2 15 -7 8 -14 15 -16 15 -2
0 -1 -7 2 -15z"/>
<path d="M450 1289 c76 -70 187 -134 300 -170 81 -27 115 -32 233 -36 76 -3
137 -2 137 3 0 5 -28 24 -61 43 -33 19 -86 56 -117 81 l-58 47 -145 6 c-142 6
-230 23 -314 63 -24 12 -18 4 25 -37z"/>
<path d="M2296 1325 c-11 -8 -15 -15 -9 -15 6 0 16 7 23 15 16 19 11 19 -14 0z"/>
<path d="M2329 1324 c-7 -8 -7 -14 1 -19 6 -4 9 -1 8 6 -2 7 2 13 9 14 17 0
25 12 8 12 -8 0 -20 -6 -26 -13z"/>
<path d="M3474 1329 c-3 -6 -2 -15 3 -20 5 -5 9 -1 9 11 0 23 -2 24 -12 9z"/>
<path d="M4476 1328 c3 -5 10 -6 15 -3 13 9 11 12 -6 12 -8 0 -12 -4 -9 -9z"/>
<path d="M4830 1340 c-8 -26 -7 -41 2 -32 6 6 8 16 5 24 -3 7 -6 11 -7 8z"/>
<path d="M6170 1330 c-8 -5 -10 -10 -5 -10 6 0 17 5 25 10 8 5 11 10 5 10 -5
0 -17 -5 -25 -10z"/>
<path d="M2445 1320 c-13 -6 -15 -9 -5 -9 8 0 22 4 30 9 18 12 2 12 -25 0z"/>
<path d="M3385 1320 c-3 -6 1 -7 9 -4 18 7 21 14 7 14 -6 0 -13 -4 -16 -10z"/>
<path d="M4320 1326 c0 -2 8 -10 18 -17 15 -13 16 -12 3 4 -13 16 -21 21 -21
13z"/>
<path d="M4708 1323 c7 -3 16 -2 19 1 4 3 -2 6 -13 5 -11 0 -14 -3 -6 -6z"/>
<path d="M6229 1317 c6 -8 7 -18 3 -22 -4 -5 -1 -5 6 -1 10 6 10 11 1 22 -6 8
-14 14 -16 14 -3 0 0 -6 6 -13z"/>
<path d="M6850 1320 c0 -5 5 -10 11 -10 5 0 7 5 4 10 -3 6 -8 10 -11 10 -2 0
-4 -4 -4 -10z"/>
<path d="M7173 1319 c11 -7 23 -7 28 -2 5 5 -3 9 -19 11 -24 1 -25 0 -9 -9z"/>
<path d="M7371 1314 c0 -11 3 -14 6 -6 3 7 2 16 -1 19 -3 4 -6 -2 -5 -13z"/>
<path d="M2742 1308 c2 -6 11 -13 19 -16 12 -3 12 -2 0 6 -11 8 -11 10 0 15
10 4 8 6 -4 6 -10 1 -17 -4 -15 -11z"/>
<path d="M3258 1313 c7 -3 16 -2 19 1 4 3 -2 6 -13 5 -11 0 -14 -3 -6 -6z"/>
<path d="M3445 1309 c-4 -6 -5 -12 -2 -15 2 -3 7 2 10 11 7 17 1 20 -8 4z"/>
<path d="M5830 1311 c0 -6 4 -13 10 -16 6 -3 7 1 4 9 -7 18 -14 21 -14 7z"/>
<path d="M6658 1313 c6 -2 18 -2 25 0 6 3 1 5 -13 5 -14 0 -19 -2 -12 -5z"/>
<path d="M5888 1293 c6 -2 18 -2 25 0 6 3 1 5 -13 5 -14 0 -19 -2 -12 -5z"/>
</g>
</svg>
