<?xml version="1.0" standalone="no"?>
<!DOCTYPE svg PUBLIC "-//W3C//DTD SVG 20010904//EN"
 "http://www.w3.org/TR/2001/REC-SVG-20010904/DTD/svg10.dtd">
<svg version="1.0" xmlns="http://www.w3.org/2000/svg"
 width="400.000000pt" height="400.000000pt" viewBox="0 0 400.000000 400.000000"
 preserveAspectRatio="xMidYMid meet">

<g transform="translate(0.000000,400.000000) scale(0.100000,-0.100000)"
fill="#000000" stroke="none">
<path d="M1890 3613 c-348 -34 -620 -139 -875 -338 -600 -470 -784 -1303 -440
-1985 225 -445 618 -745 1115 -851 89 -19 137 -23 310 -23 175 -1 221 2 317
22 642 130 1135 622 1264 1260 26 129 35 367 20 502 -42 361 -206 697 -467
955 -207 206 -494 363 -775 424 -152 32 -343 47 -469 34z m380 -59 c201 -33
431 -126 611 -245 122 -81 332 -290 416 -414 115 -171 200 -371 245 -579 32
-148 32 -455 -1 -606 -120 -561 -509 -1003 -1036 -1179 -183 -61 -280 -75
-500 -75 -226 0 -319 15 -506 80 -766 266 -1206 1071 -1010 1848 75 294 200
516 416 732 260 261 582 415 950 454 104 11 295 4 415 -16z"/>
<path d="M1825 3509 c-336 -40 -634 -187 -881 -433 -221 -222 -349 -459 -416
-770 -29 -138 -31 -425 -4 -566 123 -631 604 -1104 1231 -1212 167 -28 430
-22 585 15 291 69 522 198 731 406 288 289 439 652 439 1059 0 419 -149 780
-440 1072 -210 210 -473 350 -770 410 -122 25 -351 34 -475 19z m275 -100 c36
-8 56 -18 67 -36 22 -34 21 -87 -1 -112 -19 -20 -18 -21 8 -47 28 -29 34 -75
15 -117 -20 -44 -46 -51 -192 -57 l-137 -5 -5 30 c-2 17 -7 101 -10 187 l-6
157 48 4 c102 8 164 7 213 -4z m271 -44 c24 -9 49 -17 55 -19 8 -3 -1 -40 -27
-110 -54 -147 -52 -176 15 -176 19 0 29 13 53 63 17 34 39 85 48 112 10 28 22
54 26 59 6 7 101 -25 117 -39 5 -4 -75 -199 -98 -238 -26 -44 -65 -67 -112
-67 -84 0 -183 53 -212 114 -19 39 -14 71 28 191 49 142 40 133 107 110z
m-661 -40 c35 -34 47 -84 31 -134 l-12 -36 62 -58 c34 -31 60 -59 58 -61 -4
-4 -105 -26 -118 -26 -5 0 -31 18 -57 40 -53 43 -53 44 -72 32 -10 -7 -9 -18
7 -55 l20 -47 -42 -21 c-23 -12 -73 -42 -111 -66 l-69 -45 -36 20 c-39 22 -37
23 -99 -30 l-31 -26 16 -41 16 -42 -43 -44 c-24 -25 -47 -42 -51 -37 -16 16
-158 367 -151 372 4 4 35 30 69 59 35 30 68 51 76 48 8 -3 70 -41 138 -84 68
-44 141 -90 162 -102 l37 -23 -9 24 c-5 12 -36 89 -70 170 -34 80 -61 149 -61
152 0 7 88 48 165 77 70 27 137 21 175 -16z m1136 -200 c32 -9 62 -28 86 -52
34 -36 68 -91 68 -112 0 -10 -69 -56 -74 -50 -2 2 -11 21 -21 42 -18 38 -58
67 -92 67 -31 0 -79 -36 -93 -69 -10 -25 -10 -37 0 -62 14 -33 62 -69 93 -69
9 0 17 -3 17 -7 0 -17 -41 -73 -52 -73 -27 1 -94 39 -125 71 -39 42 -53 77
-53 135 0 83 49 152 126 179 50 18 60 18 120 0z m-651 -194 c330 -68 595 -310
698 -638 152 -481 -121 -1006 -603 -1161 -114 -37 -182 -45 -327 -39 -185 7
-317 47 -460 139 -197 128 -344 331 -405 558 -30 115 -32 328 -4 440 93 364
362 625 727 705 94 20 267 18 374 -4z m919 -60 c20 -27 36 -51 36 -53 0 -2
-20 -19 -45 -38 -52 -39 -46 -50 28 -50 65 0 82 -11 113 -72 l26 -51 -99 6
-99 7 -59 -101 -58 -101 -18 23 c-10 13 -25 40 -35 60 -16 37 -16 37 22 105
39 69 36 71 -27 22 -20 -15 -41 -28 -46 -28 -5 0 -25 21 -43 46 l-33 47 24 19
c45 36 272 208 275 208 1 0 18 -22 38 -49z m-2156 -1 c37 -23 39 -32 14 -68
-10 -15 -22 -32 -25 -38 -4 -7 37 -40 103 -84 61 -40 110 -78 110 -84 0 -9
-34 -66 -56 -94 -1 -2 -53 29 -115 68 -126 78 -111 77 -160 9 l-16 -23 -37 23
c-20 13 -36 29 -34 36 6 24 163 274 173 275 6 0 25 -9 43 -20z m-199 -359 l24
-18 -26 -35 c-30 -39 -42 -86 -28 -107 14 -21 38 -6 60 37 31 61 74 92 128 92
36 0 50 -6 73 -28 53 -54 52 -158 -3 -238 -45 -67 -57 -72 -102 -44 l-38 23
27 20 c34 24 56 67 56 107 0 46 -28 36 -66 -23 -42 -63 -61 -76 -113 -77 -36
0 -49 6 -76 33 -58 58 -56 151 6 242 27 39 43 43 78 16z m2508 -12 c70 -26
117 -113 111 -206 l-3 -48 -41 -3 -41 -3 5 50 c3 37 0 58 -12 76 -33 51 -66
14 -52 -59 11 -60 -30 -129 -85 -141 -16 -4 -45 -1 -64 5 -73 24 -131 156
-106 240 11 38 14 40 52 40 l40 0 -7 -50 c-8 -58 9 -110 36 -110 15 0 18 11
22 70 4 75 24 114 69 137 30 16 40 16 76 2z m-2427 -684 l13 -45 58 0 c33 0
59 -2 59 -5 0 -3 -18 -22 -41 -42 -34 -31 -40 -41 -35 -65 3 -15 9 -42 13 -60
l6 -32 -43 32 c-24 18 -49 32 -55 32 -6 0 -28 -12 -48 -26 -21 -14 -41 -23
-44 -20 -3 3 0 27 7 52 l14 48 -42 36 c-23 19 -42 39 -42 43 0 4 27 7 59 7
l59 0 17 50 c9 28 20 48 24 45 5 -2 14 -25 21 -50z m2451 -43 l64 -3 -48 -42
-49 -42 12 -48 c7 -26 10 -50 7 -53 -3 -3 -23 6 -44 20 -20 14 -41 26 -46 26
-4 0 -25 -12 -47 -26 -22 -15 -43 -24 -46 -21 -4 3 1 27 10 53 9 26 16 48 16
49 0 1 -20 16 -45 35 -24 18 -42 37 -39 42 3 5 30 6 60 2 35 -4 54 -3 54 4 0
6 10 32 21 59 l21 48 18 -50 17 -50 64 -3z m-2098 -423 c63 -17 147 -105 147
-153 0 -9 -14 -23 -32 -32 -31 -16 -33 -16 -43 2 -45 80 -122 100 -169 43 -29
-34 -35 -94 -13 -121 20 -25 60 -48 84 -48 28 0 27 0 6 -45 -16 -34 -20 -36
-53 -30 -97 17 -170 102 -170 198 0 136 113 222 243 186z m1631 -38 l27 -28
-61 -53 c-58 -50 -60 -53 -44 -71 9 -11 20 -19 24 -19 4 0 28 19 54 41 l47 42
24 -23 c14 -13 25 -28 25 -34 0 -5 -21 -28 -46 -51 -42 -37 -46 -43 -35 -63 6
-12 16 -22 21 -22 5 0 36 22 68 49 l60 50 28 -30 28 -29 -40 -41 c-21 -22 -72
-67 -112 -100 l-73 -59 -23 27 c-62 77 -196 254 -196 260 0 8 181 182 191 183
3 0 18 -13 33 -29z m-1304 -191 c118 -60 147 -215 58 -308 -57 -58 -114 -77
-188 -61 -166 37 -223 236 -98 343 66 57 148 66 228 26z m1063 -18 l18 -31
-70 -36 c-39 -19 -71 -38 -71 -41 0 -3 5 -14 10 -24 10 -19 12 -19 66 5 31 14
60 25 63 25 4 0 14 -15 23 -34 l16 -33 -59 -28 c-62 -30 -65 -35 -49 -65 10
-18 13 -18 82 12 69 29 72 29 86 12 39 -54 42 -51 -93 -115 -69 -33 -133 -59
-142 -57 -11 2 -38 56 -81 166 -35 90 -62 165 -61 167 14 12 226 113 234 111
5 -1 18 -17 28 -34z m-720 -108 l107 -18 0 -36 c0 -60 -8 -65 -90 -51 -40 6
-74 10 -76 8 -2 -2 -5 -14 -6 -27 -3 -24 -2 -25 100 -46 18 -4 22 -11 22 -45
0 -49 -10 -54 -86 -40 -65 12 -69 10 -79 -49 -10 -59 -15 -62 -74 -48 -29 6
-55 18 -58 24 -3 7 14 90 37 184 42 172 42 172 69 168 14 -3 74 -13 134 -24z
m421 -15 c13 -65 12 -66 -66 -75 -70 -9 -73 -10 -76 -38 l-4 -28 70 7 c67 7
69 6 75 -17 16 -59 12 -65 -61 -78 l-67 -11 0 -62 0 -62 -61 -3 -61 -3 -6 58
c-4 32 -9 115 -13 185 l-7 126 44 7 c232 32 225 33 233 -6z"/>
<path d="M1983 3332 c-18 -11 -4 -62 17 -62 33 0 50 12 50 35 0 30 -38 46 -67
27z"/>
<path d="M1980 3165 c0 -34 1 -35 40 -35 34 0 40 3 46 26 8 31 -7 44 -53 44
-31 0 -33 -2 -33 -35z"/>
<path d="M1543 3248 c-13 -6 -23 -17 -23 -25 0 -12 15 -49 25 -61 1 -1 18 5
38 13 27 11 37 21 37 38 0 43 -31 57 -77 35z"/>
<path d="M1172 2953 c11 -27 22 -49 23 -51 5 -5 55 29 55 37 0 6 -86 61 -95
61 -2 0 5 -21 17 -47z"/>
<path d="M1816 2863 c-307 -65 -563 -314 -645 -625 -28 -108 -36 -184 -20
-193 28 -18 95 -8 156 23 61 31 123 42 123 22 0 -15 -38 -50 -54 -50 -8 0 -43
-13 -78 -30 -42 -20 -79 -30 -110 -30 l-48 0 7 -32 c3 -18 11 -36 17 -40 16
-11 63 0 118 28 60 30 98 32 98 4 0 -11 -8 -23 -17 -26 -10 -3 -51 -21 -91
-40 -40 -19 -82 -34 -93 -34 -15 0 -19 -5 -15 -16 3 -9 6 -22 6 -30 0 -21 44
-17 93 7 23 12 54 25 69 30 25 7 28 5 28 -15 0 -17 -16 -30 -80 -61 -65 -33
-80 -44 -80 -63 0 -37 28 -38 93 -2 57 32 61 32 74 15 7 -11 13 -21 12 -24 0
-3 -27 -19 -60 -35 -67 -31 -80 -49 -55 -74 16 -16 19 -16 56 6 21 12 46 22
54 22 11 0 16 10 16 30 0 26 4 30 26 30 39 0 102 49 108 85 3 17 26 65 51 107
51 87 53 107 29 220 -8 40 -12 88 -9 108 8 41 38 101 59 119 12 10 11 2 -5
-35 -18 -39 -21 -60 -16 -118 3 -39 13 -91 22 -116 21 -60 14 -93 -42 -180
-57 -90 -66 -143 -34 -215 l22 -49 -28 -23 c-39 -33 -98 -63 -123 -63 -13 0
-24 9 -30 25 -14 37 -53 33 -109 -11 -2 -2 4 -15 13 -28 16 -25 17 -25 50 -9
19 9 41 13 50 10 26 -10 18 -34 -14 -46 -35 -12 -37 -21 -10 -46 17 -16 24
-16 47 -6 23 11 29 10 40 -6 12 -15 11 -20 -4 -31 -17 -13 -16 -16 17 -43 33
-28 60 -38 60 -21 0 4 20 41 45 82 29 48 45 87 45 108 0 20 4 31 10 27 23 -14
10 -81 -28 -141 -51 -78 -58 -106 -30 -123 17 -11 22 -11 29 1 5 7 9 20 9 28
0 8 21 46 45 84 69 106 66 126 -38 273 -53 76 -45 133 38 247 43 59 45 94 10
196 -14 40 -25 86 -25 101 0 43 37 133 66 160 l26 24 -27 -51 c-38 -73 -38
-157 1 -239 40 -84 38 -128 -8 -192 -55 -77 -68 -107 -68 -162 0 -45 5 -56 47
-108 81 -100 85 -153 18 -262 -45 -73 -55 -119 -30 -138 31 -22 45 -16 45 21
0 21 17 67 46 121 58 111 62 156 16 218 -93 126 -103 167 -55 242 85 137 86
146 33 278 -44 110 -37 188 22 250 l30 32 -24 -40 c-37 -63 -32 -147 15 -258
20 -48 37 -100 37 -115 0 -15 -16 -54 -35 -87 -79 -135 -80 -161 -14 -245 47
-59 69 -107 69 -148 0 -16 -18 -65 -40 -109 -46 -91 -56 -136 -41 -175 7 -20
18 -28 35 -28 24 0 24 2 19 53 -5 47 -1 63 41 153 25 56 46 109 46 118 0 30
-29 87 -75 148 -58 77 -60 112 -10 186 20 29 39 62 44 74 8 21 15 23 103 24
l96 1 16 -31 c9 -17 31 -52 48 -79 49 -74 45 -90 -49 -227 -24 -34 -43 -74
-43 -88 0 -14 21 -70 46 -125 41 -88 46 -104 42 -153 -4 -47 -2 -54 13 -54 63
0 63 86 1 210 -23 46 -42 93 -42 104 1 31 33 94 80 156 38 50 41 59 37 101 -3
34 -17 67 -50 120 -29 44 -47 84 -47 102 0 16 17 66 37 111 50 110 55 174 19
252 -23 51 -24 55 -7 39 32 -28 61 -98 61 -146 0 -24 -14 -82 -30 -129 -42
-119 -40 -163 9 -229 76 -102 77 -143 7 -239 -24 -32 -49 -68 -55 -80 -22 -42
-13 -92 34 -178 33 -59 45 -93 45 -123 0 -46 -1 -45 34 -31 41 15 35 61 -19
150 -63 106 -60 146 17 248 72 96 70 146 -8 263 -52 78 -56 112 -19 199 32 76
34 174 5 239 -24 53 -25 57 -3 40 27 -23 63 -111 63 -155 0 -22 -11 -78 -25
-125 -16 -50 -24 -96 -20 -114 3 -17 28 -63 55 -104 41 -60 50 -82 50 -116 0
-43 -2 -47 -93 -179 -37 -54 -35 -89 14 -171 23 -39 47 -86 53 -106 10 -32 14
-35 34 -28 32 12 27 34 -23 119 -44 72 -58 131 -35 145 6 4 10 -6 10 -22 0
-26 95 -203 109 -203 4 0 22 13 41 29 34 29 34 30 15 44 -16 12 -17 17 -6 30
10 12 18 14 39 6 22 -8 30 -6 51 16 l26 25 -33 12 c-17 7 -32 18 -32 26 0 22
30 26 66 9 33 -16 34 -16 50 9 9 13 15 26 13 28 -7 6 -88 46 -94 46 -3 0 -11
-13 -16 -30 -6 -16 -17 -30 -25 -30 -27 0 -80 27 -117 60 l-37 32 20 38 c33
65 27 125 -20 201 -74 117 -75 122 -51 210 26 95 27 154 2 219 -22 56 -11 67
19 18 32 -52 44 -132 30 -192 -28 -121 -26 -143 30 -236 27 -47 50 -95 50
-107 0 -28 69 -83 104 -83 22 0 26 -4 26 -30 0 -16 5 -30 11 -30 7 0 32 -10
56 -22 40 -20 45 -20 60 -6 23 24 12 40 -53 73 -33 17 -60 30 -61 30 -1 1 0
10 3 22 7 25 15 23 92 -15 52 -26 53 -27 68 -8 7 11 14 25 14 31 0 7 -38 29
-85 51 -56 26 -84 45 -85 56 0 31 21 30 96 -7 41 -20 81 -35 88 -32 7 3 16 19
18 36 4 25 1 31 -14 31 -10 0 -50 15 -90 34 -40 19 -81 37 -90 40 -10 3 -18
15 -18 26 0 28 38 26 98 -4 27 -13 64 -27 84 -31 30 -6 38 -4 47 13 6 12 11
30 11 41 0 18 -6 21 -45 21 -28 0 -64 9 -93 24 -26 13 -65 29 -87 36 -38 11
-65 33 -65 52 0 19 66 5 130 -27 75 -38 95 -41 134 -24 23 11 24 16 20 63 -38
373 -317 686 -677 760 -95 20 -278 20 -371 -1z m283 -133 c26 0 51 -3 55 -7 3
-4 -12 -25 -34 -48 l-40 -41 16 -42 c10 -23 20 -42 24 -42 4 0 37 16 74 35 37
19 78 35 92 35 24 0 24 0 9 -36 -14 -34 -20 -74 -11 -74 2 0 20 7 39 15 20 8
48 15 61 15 l25 0 -29 -50 c-16 -27 -34 -67 -40 -89 l-10 -39 -86 30 c-178 61
-340 53 -546 -27 -13 -5 -18 -2 -18 8 0 9 -18 50 -39 91 -44 85 -41 89 39 61
23 -8 44 -15 46 -15 10 0 2 47 -11 70 -8 14 -14 28 -15 33 0 17 43 4 114 -33
75 -40 75 -40 87 -19 31 58 29 75 -12 115 -39 38 -39 39 -17 46 13 3 37 6 54
7 28 1 34 7 54 54 l22 52 25 -52 24 -53 48 0z m-725 -300 c14 -17 30 -49 36
-71 9 -32 15 -39 28 -34 9 4 44 14 77 22 53 14 64 14 94 1 l34 -14 -49 -36
c-27 -20 -64 -56 -82 -81 -31 -41 -38 -45 -85 -49 -29 -2 -78 -16 -111 -31
-62 -28 -136 -36 -136 -14 0 6 14 32 31 57 63 94 92 162 97 232 4 60 6 66 22
58 10 -5 29 -23 44 -40z m1333 -18 c0 -67 26 -134 92 -231 l41 -61 -27 -7
c-38 -10 -59 -5 -123 25 -30 14 -78 28 -107 30 -47 4 -54 8 -83 48 -17 24 -51
58 -75 75 -25 18 -45 36 -45 40 0 28 100 29 163 1 l47 -21 11 45 c12 48 65
114 92 114 12 0 15 -12 14 -58z m-603 -26 c33 -14 66 -50 66 -72 0 -7 -23 -13
-56 -16 -68 -6 -87 -23 -86 -78 1 -48 9 -62 22 -39 7 12 23 15 62 14 l53 -2 3
-36 c6 -74 -67 -186 -133 -203 -45 -11 -94 5 -134 45 -42 42 -75 122 -69 168
3 28 4 28 71 27 l67 0 0 35 c0 49 -24 71 -76 71 -24 0 -45 4 -48 8 -8 13 23
51 58 73 38 23 150 26 200 5z m-186 -128 c19 -19 15 -23 -33 -24 -42 -1 -57
11 -38 29 11 11 58 8 71 -5z m236 6 c9 -3 16 -12 16 -19 0 -8 -16 -12 -50 -11
-53 1 -64 11 -27 26 27 11 41 12 61 4z"/>
<path d="M1958 2549 c-21 -17 -36 -35 -33 -39 5 -8 154 -5 162 4 4 4 -81 67
-89 66 -2 -1 -20 -14 -40 -31z"/>
<path d="M1977 2134 c-16 -16 -5 -25 26 -22 17 2 31 8 30 13 -3 12 -46 19 -56
9z"/>
<path d="M1950 2045 c34 -36 98 -30 114 10 4 13 -6 15 -66 15 l-71 0 23 -25z"/>
<path d="M1396 1029 c-59 -46 -73 -123 -31 -164 31 -32 66 -32 104 1 61 51 63
152 4 175 -35 13 -47 11 -77 -12z"/>
<path d="M2999 631 c-54 -55 -24 -144 51 -152 67 -7 110 28 110 89 0 86 -99
125 -161 63z m124 -13 c26 -31 22 -82 -9 -107 -15 -12 -38 -21 -51 -21 -33 0
-73 42 -73 78 0 71 87 105 133 50z"/>
<path d="M3030 564 c0 -34 4 -53 10 -49 6 3 10 15 10 26 0 26 14 24 30 -6 7
-14 17 -25 22 -25 11 0 10 14 -3 27 -8 8 -7 16 2 30 19 32 5 53 -36 53 l-35 0
0 -56z m60 31 c0 -8 -9 -15 -20 -15 -11 0 -20 7 -20 15 0 8 9 15 20 15 11 0
20 -7 20 -15z"/>
</g>
</svg>
