<?xml version="1.0" encoding="utf-8"?>
<!-- Generator: Adobe Illustrator 26.0.3, SVG Export Plug-In . SVG Version: 6.00 Build 0)  -->
<svg version="1.1" id="Layer_1" xmlns="http://www.w3.org/2000/svg" xmlns:xlink="http://www.w3.org/1999/xlink" x="0px" y="0px"
	 viewBox="0 0 1969.3 394" style="enable-background:new 0 0 1969.3 394;" xml:space="preserve">
<style type="text/css">
	.st0{fill:#CC2229;}
	.st1{fill:url(#SVGID_1_);}
	.st2{fill:url(#SVGID_00000130631159166573564980000001780787338401251976_);}
	.st3{fill:url(#SVGID_00000096057864217692738330000000007101339098311094_);}
	.st4{fill:url(#SVGID_00000053538770075913300220000015212309843861531323_);}
	.st5{fill:url(#SVGID_00000067916195794756117410000001114924173765246143_);}
	.st6{fill:url(#SVGID_00000061443399384238080830000005111162230406766494_);}
	.st7{fill:url(#SVGID_00000019641897627266952850000011713425425262155673_);}
	.st8{fill:url(#SVGID_00000008107610241049696990000013863758634661550262_);}
	.st9{fill:#2D2F34;}
	.st10{fill:url(#SVGID_00000166660161543767136480000009377655106955342499_);}
	.st11{fill:url(#SVGID_00000032649117965833301550000008468990957509332397_);}
	.st12{fill:url(#SVGID_00000032632864710524865430000001747600562218892171_);}
	.st13{fill:url(#SVGID_00000119090403989329174490000012724509373235997338_);}
</style>
<path class="st0" d="M1250.3,215.2c-0.2-65.9,53.1-119.6,119-119.8c0.3,0,0.6,0,0.8,0c65,0.1,118.5,53.5,119.8,119.8
	c-1.3,65.5-54.7,118.9-119.8,119.8C1303.5,334.1,1250.1,280.6,1250.3,215.2z M1370.2,290.9c36-0.6,65.8-34.4,66.2-75.7
	c-0.4-42.1-30.2-75.9-66.2-75.7c-37.5-0.2-67.4,33.6-66.2,75.7C1302.8,256.5,1332.6,290.3,1370.2,290.9 M1625.5,145.8v182.9h-50.4
	V145.8h-72.5v-40.9h192.3v40.9H1625.5 M1754.8,278.2l-18.9,50.5H1676l94.6-223.8h63l91.5,223.8h-59.9l-18.9-50.5H1754.8z
	 M1802.1,240.4h31.5l-31.5-82l-31.5,82H1802.1 M698.6,145.8v182.9h-50.4V145.8h-69.3v-40.9H768v40.9H698.6 M780.6,215.2
	c0-66.1,53.6-119.8,119.7-119.8c0,0,0,0,0,0c65.4,0.1,118.9,53.5,119.8,119.8C1019,280.9,966,333.8,900.3,335
	C834,334.1,780.7,280.6,780.6,215.2L780.6,215.2z M900.3,290.9c36.4-0.6,66.2-34.4,66.2-75.7c0-42.1-29.8-75.9-66.2-75.7
	c-37.2-0.2-67,33.6-66.1,75.7C833.3,256.5,863.2,290.3,900.3,290.9 M1133.7,328.7h25.2v-85.2l88.3-138.7h-56.7l-56.8,94.5
	l-53.6-94.5h-59.9l88.3,138.7v85.2H1133.7"/>
<linearGradient id="SVGID_1_" gradientUnits="userSpaceOnUse" x1="-3084.1194" y1="3495.6775" x2="-3084.1194" y2="3514.3936" gradientTransform="matrix(8.819 0 0 -8.819 27476.8184 31140.7305)">
	<stop  offset="0" style="stop-color:#F0F3F5"/>
	<stop  offset="5.600001e-02" style="stop-color:#E2E5E8"/>
	<stop  offset="0.138" style="stop-color:#D4D8DD"/>
	<stop  offset="0.242" style="stop-color:#CCD0D6"/>
	<stop  offset="0.44" style="stop-color:#CACED4"/>
	<stop  offset="0.568" style="stop-color:#B3B7BD"/>
	<stop  offset="0.835" style="stop-color:#797C83"/>
	<stop  offset="1" style="stop-color:#52545C"/>
</linearGradient>
<path class="st1" d="M435,110.6c0.3,0.9,0.6,1.9,0.9,2.8c1.4,5.3,1.1,10.9-0.7,16c23.7,19.5,37.6,43.6,37.6,69.7
	c0,65.1-87.2,118-194.9,118s-194.9-52.8-194.9-118c0-26.1,14-50.2,37.6-69.7c-1.8-5.2-2-10.7-0.7-16c0.3-1,0.7-2,1.1-3
	c-32.3,23-51.9,53.2-51.9,86.2c0,72.2,93.4,130.7,208.7,130.7c115.2,0,208.7-58.5,208.7-130.7C486.6,163.7,467.1,133.5,435,110.6
	L435,110.6z"/>
<linearGradient id="SVGID_00000108993648876984719660000013231916930163896976_" gradientUnits="userSpaceOnUse" x1="-3084.1184" y1="3509.9385" x2="-3084.1184" y2="3520.0796" gradientTransform="matrix(8.819 0 0 -8.819 27476.8184 31140.7305)">
	<stop  offset="0" style="stop-color:#F0F3F5"/>
	<stop  offset="5.600001e-02" style="stop-color:#E2E5E8"/>
	<stop  offset="0.138" style="stop-color:#D4D8DD"/>
	<stop  offset="0.242" style="stop-color:#CCD0D6"/>
	<stop  offset="0.44" style="stop-color:#CACED4"/>
	<stop  offset="0.568" style="stop-color:#B3B7BD"/>
	<stop  offset="0.835" style="stop-color:#797C83"/>
	<stop  offset="1" style="stop-color:#52545C"/>
</linearGradient>
<path style="fill:url(#SVGID_00000108993648876984719660000013231916930163896976_);" d="M307,158.3c-9.2,0.7-18.9,1.1-29,1.1
	s-19.8-0.4-29-1.1h0l-6,4.4c11.1,1,22.8,1.5,35,1.5s23.9-0.5,35-1.5L307,158.3L307,158.3z M413.6,112.6c-7.3-24.2-67.7-42-135.6-42
	s-128.2,17.8-135.6,42c-6.4,21,28.4,40.4,83.1,48.2l-4.8-5.8c-44.3-7.5-70.6-23.6-64.6-40.7C163.6,93.5,217,78.4,278,78.4
	s114.4,15,121.8,35.8c6.1,17.1-20.2,33.2-64.6,40.7l-4.7,5.8C385.2,153,419.9,133.6,413.6,112.6L413.6,112.6z"/>
<linearGradient id="SVGID_00000038396175307222104100000006890216871325900418_" gradientUnits="userSpaceOnUse" x1="-3080.6008" y1="3511.8132" x2="-3086.9338" y2="3517.1262" gradientTransform="matrix(8.819 0 0 -8.819 27476.8184 31140.7305)">
	<stop  offset="0" style="stop-color:#F0F3F5"/>
	<stop  offset="5.600001e-02" style="stop-color:#E2E5E8"/>
	<stop  offset="0.138" style="stop-color:#D4D8DD"/>
	<stop  offset="0.242" style="stop-color:#CCD0D6"/>
	<stop  offset="0.44" style="stop-color:#CACED4"/>
	<stop  offset="0.568" style="stop-color:#B3B7BD"/>
	<stop  offset="0.835" style="stop-color:#797C83"/>
	<stop  offset="1" style="stop-color:#52545C"/>
</linearGradient>
<path style="fill:url(#SVGID_00000038396175307222104100000006890216871325900418_);" d="M249.1,158.3c5.1-28.3,16.1-45.9,28.9-45.9
	s23.8,17.7,28.9,45.9h0.1l5.9,4.3c-5-37.3-18.8-61.2-35-61.2s-30,23.8-35,61.2L249.1,158.3L249.1,158.3z"/>
<linearGradient id="SVGID_00000072998034816982055030000007904423752972897440_" gradientUnits="userSpaceOnUse" x1="-3079.9419" y1="3503.0039" x2="-3089.1763" y2="3508.3359" gradientTransform="matrix(8.819 0 0 -8.819 27476.8184 31140.7305)">
	<stop  offset="0" style="stop-color:#F0F3F5"/>
	<stop  offset="5.600001e-02" style="stop-color:#E2E5E8"/>
	<stop  offset="0.138" style="stop-color:#D4D8DD"/>
	<stop  offset="0.242" style="stop-color:#CCD0D6"/>
	<stop  offset="0.44" style="stop-color:#CACED4"/>
	<stop  offset="0.568" style="stop-color:#B3B7BD"/>
	<stop  offset="0.835" style="stop-color:#797C83"/>
	<stop  offset="1" style="stop-color:#52545C"/>
</linearGradient>
<path style="fill:url(#SVGID_00000072998034816982055030000007904423752972897440_);" d="M314.7,183.8l-4.9,8.8c0,0.6,0,1.3,0,2
	c0,46.8-14.3,82.4-31.9,82.4c-17.6,0-31.9-35.5-31.9-82.4c0-0.7,0-1.5,0-2.2l-4.9-8.6c-0.1,3.6-0.2,7.1-0.2,10.7
	c0,53.1,16.6,93.3,37,93.3s37-40.2,37-93.3C315,190.9,314.9,187.4,314.7,183.8L314.7,183.8z"/>
<linearGradient id="SVGID_00000122723055067376921510000015269798416130729351_" gradientUnits="userSpaceOnUse" x1="-3087.3591" y1="3525.0486" x2="-3087.3591" y2="3508.9626" gradientTransform="matrix(8.819 0 0 -8.819 27476.8184 31140.7305)">
	<stop  offset="0" style="stop-color:#F0F3F5"/>
	<stop  offset="5.600001e-02" style="stop-color:#E2E5E8"/>
	<stop  offset="0.138" style="stop-color:#D4D8DD"/>
	<stop  offset="0.242" style="stop-color:#CCD0D6"/>
	<stop  offset="0.44" style="stop-color:#CACED4"/>
	<stop  offset="0.568" style="stop-color:#B3B7BD"/>
	<stop  offset="0.835" style="stop-color:#797C83"/>
	<stop  offset="1" style="stop-color:#52545C"/>
</linearGradient>
<path style="fill:url(#SVGID_00000122723055067376921510000015269798416130729351_);" d="M225.6,160.7c7-51.9,27.8-90.2,52.4-90.2
	c-26.4,0-48.8,33.9-57.1,84.5L225.6,160.7L225.6,160.7z"/>
<linearGradient id="SVGID_00000031896574553210036070000015101652424687621268_" gradientUnits="userSpaceOnUse" x1="-3080.8799" y1="3525.0486" x2="-3080.8799" y2="3508.9626" gradientTransform="matrix(8.819 0 0 -8.819 27476.8184 31140.7305)">
	<stop  offset="0" style="stop-color:#F0F3F5"/>
	<stop  offset="5.600001e-02" style="stop-color:#E2E5E8"/>
	<stop  offset="0.138" style="stop-color:#D4D8DD"/>
	<stop  offset="0.242" style="stop-color:#CCD0D6"/>
	<stop  offset="0.44" style="stop-color:#CACED4"/>
	<stop  offset="0.568" style="stop-color:#B3B7BD"/>
	<stop  offset="0.835" style="stop-color:#797C83"/>
	<stop  offset="1" style="stop-color:#52545C"/>
</linearGradient>
<path style="fill:url(#SVGID_00000031896574553210036070000015101652424687621268_);" d="M330.4,160.7L330.4,160.7l4.7-5.7
	c-8.3-50.5-30.8-84.5-57.1-84.5C302.6,70.6,323.4,108.9,330.4,160.7z"/>
<linearGradient id="SVGID_00000017517078604779094690000007545372786189442701_" gradientUnits="userSpaceOnUse" x1="-3080.6831" y1="3525.1836" x2="-3080.6831" y2="3498.3376" gradientTransform="matrix(8.819 0 0 -8.819 27476.8184 31140.7305)">
	<stop  offset="0" style="stop-color:#F0F3F5"/>
	<stop  offset="5.600001e-02" style="stop-color:#E2E5E8"/>
	<stop  offset="0.138" style="stop-color:#D4D8DD"/>
	<stop  offset="0.242" style="stop-color:#CCD0D6"/>
	<stop  offset="0.44" style="stop-color:#CACED4"/>
	<stop  offset="0.568" style="stop-color:#B3B7BD"/>
	<stop  offset="0.835" style="stop-color:#797C83"/>
	<stop  offset="1" style="stop-color:#52545C"/>
</linearGradient>
<path style="fill:url(#SVGID_00000017517078604779094690000007545372786189442701_);" d="M338.4,188.8l-6-7.1h0
	c0.3,5.7,0.5,11.4,0.5,17.3c0,70.9-24.6,128.4-54.9,128.4c34,0,60.6-53.3,60.6-128.4C338.6,195.5,338.5,192.1,338.4,188.8z"/>
<linearGradient id="SVGID_00000094593421185832901040000008232749183584491429_" gradientUnits="userSpaceOnUse" x1="-3087.5549" y1="3525.1836" x2="-3087.5549" y2="3498.3376" gradientTransform="matrix(8.819 0 0 -8.819 27476.8184 31140.7305)">
	<stop  offset="0" style="stop-color:#F0F3F5"/>
	<stop  offset="5.600001e-02" style="stop-color:#E2E5E8"/>
	<stop  offset="0.138" style="stop-color:#D4D8DD"/>
	<stop  offset="0.242" style="stop-color:#CCD0D6"/>
	<stop  offset="0.44" style="stop-color:#CACED4"/>
	<stop  offset="0.568" style="stop-color:#B3B7BD"/>
	<stop  offset="0.835" style="stop-color:#797C83"/>
	<stop  offset="1" style="stop-color:#52545C"/>
</linearGradient>
<path style="fill:url(#SVGID_00000094593421185832901040000008232749183584491429_);" d="M223.1,198.9c0-5.9,0.2-11.6,0.5-17.3h0
	l-6,7.1c-0.1,3.4-0.2,6.8-0.2,10.2c0,75.1,26.6,128.4,60.6,128.4C247.7,327.3,223.1,269.8,223.1,198.9L223.1,198.9z"/>
<path class="st9" d="M435.2,129.4c8.6,7,16.3,15.2,22.7,24.3c-2.1-13.8-7.5-26.8-15.9-37.9c-2.3-1.8-4.6-3.5-6.9-5.2
	c0.3,0.9,0.6,1.9,0.9,2.8C437.2,118.7,437,124.3,435.2,129.4L435.2,129.4z M120.8,129.4c-1.8-5.2-2-10.7-0.7-16c0.3-1,0.7-2,1.1-3
	c-2.4,1.8-4.8,3.6-7.2,5.4c-8.4,11.1-13.9,24.1-15.9,37.9C104.5,144.6,112.1,136.4,120.8,129.4L120.8,129.4z"/>
<linearGradient id="SVGID_00000005959625417270987670000015243083457446635185_" gradientUnits="userSpaceOnUse" x1="-3084.1199" y1="3525.0466" x2="-3084.1199" y2="3492.196" gradientTransform="matrix(8.819 0 0 -8.819 27476.8184 31140.7305)">
	<stop  offset="0" style="stop-color:#F0F3F5"/>
	<stop  offset="0.253" style="stop-color:#EDF0F3"/>
	<stop  offset="0.406" style="stop-color:#E5E8EA"/>
	<stop  offset="0.531" style="stop-color:#D7DADC"/>
	<stop  offset="0.642" style="stop-color:#C3C5C9"/>
	<stop  offset="0.744" style="stop-color:#A9ABAF"/>
	<stop  offset="0.839" style="stop-color:#888B90"/>
	<stop  offset="0.926" style="stop-color:#63656B"/>
	<stop  offset="1" style="stop-color:#3D3F46"/>
</linearGradient>
<path style="fill:url(#SVGID_00000005959625417270987670000015243083457446635185_);" d="M44.3,197c0-80,104.6-144.9,233.7-144.9
	C407,52.1,511.7,117,511.7,197c0,80-104.6,144.9-233.7,144.9C148.9,341.8,44.3,277,44.3,197z M278,327.3
	c115.2,0,208.7-58.5,208.7-130.7S393.2,65.9,278,65.9S69.3,124.5,69.3,196.6S162.7,327.3,278,327.3L278,327.3z"/>
<linearGradient id="SVGID_00000068668589047706626660000000853601560787712670_" gradientUnits="userSpaceOnUse" x1="-3084.1182" y1="3525.0486" x2="-3084.1182" y2="3492.1975" gradientTransform="matrix(8.819 0 0 -8.819 27476.8184 31140.7305)">
	<stop  offset="0" style="stop-color:#F0F3F5"/>
	<stop  offset="0.253" style="stop-color:#EDF0F3"/>
	<stop  offset="0.406" style="stop-color:#E5E8EA"/>
	<stop  offset="0.531" style="stop-color:#D7DADC"/>
	<stop  offset="0.642" style="stop-color:#C3C5C9"/>
	<stop  offset="0.744" style="stop-color:#A9ABAF"/>
	<stop  offset="0.839" style="stop-color:#888B90"/>
	<stop  offset="0.926" style="stop-color:#63656B"/>
	<stop  offset="1" style="stop-color:#3D3F46"/>
</linearGradient>
<path style="fill:url(#SVGID_00000068668589047706626660000000853601560787712670_);" d="M223.1,198.9c0-70.1,24.6-128.4,54.9-128.4
	s54.9,58.2,54.9,128.4c0,70.9-24.6,128.4-54.9,128.4S223.1,269.8,223.1,198.9z M278,287.9c20.4,0,37-40.2,37-93.3
	c0-55.1-16.6-93-37-93s-37,38-37,93C241,247.6,257.5,287.9,278,287.9L278,287.9z"/>
<linearGradient id="SVGID_00000023981499980947136650000015633719064184869299_" gradientUnits="userSpaceOnUse" x1="-3084.1191" y1="3525.0447" x2="-3084.1191" y2="3492.1946" gradientTransform="matrix(8.819 0 0 -8.819 27476.8184 31140.7305)">
	<stop  offset="0" style="stop-color:#F0F3F5"/>
	<stop  offset="0.253" style="stop-color:#EDF0F3"/>
	<stop  offset="0.406" style="stop-color:#E5E8EA"/>
	<stop  offset="0.531" style="stop-color:#D7DADC"/>
	<stop  offset="0.642" style="stop-color:#C3C5C9"/>
	<stop  offset="0.744" style="stop-color:#A9ABAF"/>
	<stop  offset="0.839" style="stop-color:#888B90"/>
	<stop  offset="0.926" style="stop-color:#63656B"/>
	<stop  offset="1" style="stop-color:#3D3F46"/>
</linearGradient>
<path style="fill:url(#SVGID_00000023981499980947136650000015633719064184869299_);" d="M120.1,113.4c6-23.8,78.9-58.6,157.9-58.6
	s149.4,24.8,157.9,58.6c9.6,37.8-60.6,72.1-157.9,72.1C180.7,185.5,110.5,151.2,120.1,113.4L120.1,113.4z M278,70.6
	c-67.9,0-128.2,17.8-135.6,42c-8.2,27.1,52.1,51.7,135.6,51.7c83.5,0,143.8-24.5,135.6-51.7C406.2,88.4,345.8,70.6,278,70.6
	L278,70.6z"/>
<linearGradient id="SVGID_00000090274236865968826900000006761244423708341403_" gradientUnits="userSpaceOnUse" x1="-3084.1189" y1="3518.2336" x2="-3084.1189" y2="3508.8716" gradientTransform="matrix(8.819 0 0 -8.819 27476.8184 31140.7305)">
	<stop  offset="0" style="stop-color:#CACED4"/>
	<stop  offset="1" style="stop-color:#52545C"/>
</linearGradient>
<path style="fill:url(#SVGID_00000090274236865968826900000006761244423708341403_);" d="M241.1,183.7L241.1,183.7l5.1,8.9
	c10.2,0.9,20.8,1.4,31.8,1.4c11,0,21.7-0.5,31.9-1.4l4.9-8.8l0,0c-11.7,1.1-24,1.7-36.8,1.7C265.7,185.5,253.4,184.9,241.1,183.7z
	 M436.7,121.6c-1.3,27.1-42.8,51-104.3,60.1l0,0l6,7.2C398.6,178,438.1,151.4,436.7,121.6L436.7,121.6z M119.3,121.6
	c-1.4,29.9,38.1,56.4,98.3,67.2l6-7.2l0,0C162.1,172.6,120.5,148.6,119.3,121.6L119.3,121.6z"/>
</svg>
