<?xml version="1.0" encoding="utf-8"?>
<!-- Generator: Adobe Illustrator 26.0.3, SVG Export Plug-In . SVG Version: 6.00 Build 0)  -->
<svg version="1.1" id="Layer_1" xmlns="http://www.w3.org/2000/svg" xmlns:xlink="http://www.w3.org/1999/xlink" x="0px" y="0px"
	 viewBox="0 0 700 700" style="enable-background:new 0 0 700 700;" xml:space="preserve">
<style type="text/css">
	.st0{fill-rule:evenodd;clip-rule:evenodd;fill:#2F4698;}
	.st1{fill-rule:evenodd;clip-rule:evenodd;fill:#2F4799;}
	.st2{fill-rule:evenodd;clip-rule:evenodd;fill:#2F489A;}
	.st3{fill-rule:evenodd;clip-rule:evenodd;fill:#2E4A9B;}
	.st4{fill-rule:evenodd;clip-rule:evenodd;fill:#2E4B9C;}
	.st5{fill-rule:evenodd;clip-rule:evenodd;fill:#2E4C9C;}
	.st6{fill-rule:evenodd;clip-rule:evenodd;fill:#2D4E9D;}
	.st7{fill-rule:evenodd;clip-rule:evenodd;fill:#2D4F9E;}
	.st8{fill-rule:evenodd;clip-rule:evenodd;fill:#2D509F;}
	.st9{fill-rule:evenodd;clip-rule:evenodd;fill:#2C51A0;}
	.st10{fill-rule:evenodd;clip-rule:evenodd;fill:#2C53A0;}
	.st11{fill-rule:evenodd;clip-rule:evenodd;fill:#2C54A1;}
	.st12{fill-rule:evenodd;clip-rule:evenodd;fill:#2B55A2;}
	.st13{fill-rule:evenodd;clip-rule:evenodd;fill:#2B56A3;}
	.st14{fill-rule:evenodd;clip-rule:evenodd;fill:#2B57A4;}
	.st15{fill-rule:evenodd;clip-rule:evenodd;fill:#2A59A5;}
	.st16{fill-rule:evenodd;clip-rule:evenodd;fill:#2A5AA6;}
	.st17{fill-rule:evenodd;clip-rule:evenodd;fill:#295BA7;}
	.st18{fill-rule:evenodd;clip-rule:evenodd;fill:#295CA7;}
	.st19{fill-rule:evenodd;clip-rule:evenodd;fill:#295DA8;}
	.st20{fill-rule:evenodd;clip-rule:evenodd;fill:#285EA9;}
	.st21{fill-rule:evenodd;clip-rule:evenodd;fill:#2860AA;}
	.st22{fill-rule:evenodd;clip-rule:evenodd;fill:#2761AB;}
	.st23{fill-rule:evenodd;clip-rule:evenodd;fill:#2762AC;}
	.st24{fill-rule:evenodd;clip-rule:evenodd;fill:#2663AC;}
	.st25{fill-rule:evenodd;clip-rule:evenodd;fill:#2664AD;}
	.st26{fill-rule:evenodd;clip-rule:evenodd;fill:#2565AE;}
	.st27{fill-rule:evenodd;clip-rule:evenodd;fill:#2566AF;}
	.st28{fill-rule:evenodd;clip-rule:evenodd;fill:#2467B0;}
	.st29{fill-rule:evenodd;clip-rule:evenodd;fill:#2468B1;}
	.st30{fill-rule:evenodd;clip-rule:evenodd;fill:#2369B2;}
	.st31{fill-rule:evenodd;clip-rule:evenodd;fill:#236BB3;}
	.st32{fill-rule:evenodd;clip-rule:evenodd;fill:#226CB4;}
	.st33{fill-rule:evenodd;clip-rule:evenodd;fill:#216DB4;}
	.st34{fill-rule:evenodd;clip-rule:evenodd;fill:#216EB5;}
	.st35{fill-rule:evenodd;clip-rule:evenodd;fill:#206FB6;}
	.st36{fill-rule:evenodd;clip-rule:evenodd;fill:#1E71B8;}
	.st37{fill-rule:evenodd;clip-rule:evenodd;fill:#33348E;}
	.st38{fill-rule:evenodd;clip-rule:evenodd;fill:#FFFFFF;}
</style>
<path class="st0" d="M350.2,690C537.9,690,690,537.9,690,350.2C690,162.1,537.9,10,350.2,10S10,162.1,10,350.2
	C10,537.9,162.4,690,350.2,690z M686.7,350.2c0,185.6-150.6,336.2-336.6,336.2S13.6,535.8,13.6,350.2
	c0-185.9,150.6-336.6,336.6-336.6S686.7,164.2,686.7,350.2z"/>
<path class="st1" d="M350.2,690C537.9,690,690,537.9,690,350.2C690,162.1,537.9,10,350.2,10S10,162.1,10,350.2
	C10,537.9,162.4,690,350.2,690z M677.1,350.2c0,180.5-146.4,326.7-327,326.7s-327-146.1-327-326.7s146.4-327,327-327
	S677.1,169.6,677.1,350.2z"/>
<path class="st2" d="M686.7,350.2c0-185.9-150.6-336.6-336.6-336.6S13.6,164.2,13.6,350.2c0,185.6,150.6,336.2,336.6,336.2
	S686.7,535.8,686.7,350.2z M667.5,350.2c0,175.2-142.2,317.1-317.4,317.1S32.8,525.3,32.8,350.2C32.8,174.7,175,32.8,350.2,32.8
	S667.5,174.7,667.5,350.2L667.5,350.2z"/>
<path class="st3" d="M677.1,350.2c0-180.5-146.4-327-327-327s-327,146.4-327,327s146.4,326.7,327,326.7S677.1,530.7,677.1,350.2z
	 M658,350.2c0,169.8-137.7,307.5-307.8,307.5S42.3,519.9,42.3,350.2c0-170,137.8-307.8,307.8-307.8S658,180.2,658,350.2L658,350.2z"
	/>
<path class="st4" d="M667.5,350.2c0-175.5-142.2-317.4-317.4-317.4S32.8,174.7,32.8,350.2c0,175.2,142.2,317.1,317.4,317.1
	S667.5,525.3,667.5,350.2z M648.4,350.2c0,164.4-133.5,297.9-298.2,297.9S51.9,514.5,51.9,350.2c0-164.7,133.5-298.2,298.2-298.2
	S648.4,185.5,648.4,350.2L648.4,350.2z"/>
<path class="st5" d="M658,350.2c0-170-137.8-307.8-307.8-307.8S42.3,180.2,42.3,350.2l0,0c0,169.8,137.7,307.5,307.8,307.5
	S658,519.9,658,350.2z M638.8,350.2c0,159.3-129.3,288.3-288.6,288.3S61.5,509.4,61.5,350.2S190.9,61.5,350.2,61.5
	S638.8,190.9,638.8,350.2z"/>
<path class="st6" d="M648.4,350.2c0-164.7-133.5-298.2-298.2-298.2S51.9,185.5,51.9,350.2c0,164.4,133.5,297.9,298.2,297.9
	S648.4,514.5,648.4,350.2z M628.9,350.2c0,153.9-124.9,278.8-278.8,278.8S71.4,504.1,71.4,350.2C71.4,196,196.2,71.1,350.2,71.1
	S628.9,195.9,628.9,350.2z"/>
<path class="st7" d="M638.8,350.2c0-159.3-129.3-288.6-288.6-288.6S61.5,190.9,61.5,350.2s129.4,288.3,288.7,288.3
	S638.8,509.4,638.8,350.2z M619.3,350.2c0,148.7-120.5,269.2-269.2,269.2S81,498.8,81,350.2C81,201.3,201.3,80.7,350.2,80.7
	S619.3,201.3,619.3,350.2z"/>
<path class="st8" d="M628.9,350.2c0-154.2-124.9-279.1-278.8-279.1S71.4,195.9,71.4,350.2c0,153.9,124.9,278.8,278.8,278.8
	S628.9,504.1,628.9,350.2z M609.8,350.2c0,143.1-116.2,259.6-259.6,259.6S90.6,493.3,90.6,350.2c0.4-143.4,116.9-259.3,260.2-259
	C493.7,91.6,609.4,207.3,609.8,350.2L609.8,350.2z"/>
<path class="st9" d="M619.3,350.2c0-148.8-120.4-269.5-269.2-269.5S81,201.3,81,350.2c0,148.7,120.6,269.2,269.2,269.1
	C498.8,619.2,619.3,498.8,619.3,350.2z M600.2,350.2c0,138-112,249.7-250,249.7s-250-111.7-250-249.7
	c0-138.1,111.8-250.1,249.9-250.1c138.1,0,250.1,111.8,250.1,249.9C600.2,350,600.2,350.1,600.2,350.2z"/>
<path class="st10" d="M609.8,350.2c-0.4-143.4-116.9-259.3-260.2-259c-142.9,0.4-258.6,116.1-259,259
	c0,143.1,116.2,259.6,259.6,259.6S609.8,493.3,609.8,350.2L609.8,350.2z M590.6,350.2c0,132.6-107.8,240.1-240.4,240.1
	S109.7,482.8,109.7,350.2c0-132.8,107.6-240.4,240.4-240.4S590.6,217.4,590.6,350.2L590.6,350.2z"/>
<path class="st11" d="M600.2,350.2c0-138.1-111.9-250-250-250.1c-138.1,0-250,111.9-250.1,250c0,0,0,0.1,0,0.1
	c0,138,112,249.7,250,249.7S600.2,488.2,600.2,350.2z M581,350.2c0,127.3-103.3,230.6-230.9,230.6S119.3,477.4,119.3,350.2
	c0.3-127.5,104-230.6,231.5-230.3C477.8,120.2,580.7,223.1,581,350.2z"/>
<path class="st12" d="M590.6,350.2c0-132.8-107.6-240.4-240.4-240.4S109.7,217.4,109.7,350.2c0,132.6,107.8,240.1,240.4,240.1
	S590.6,482.8,590.6,350.2z M571.4,350.2c0,122.2-99.1,221-221.3,221s-221.3-98.8-221.3-221c-0.3-122.2,98.5-221.5,220.7-221.9
	C471.8,128,571.1,226.8,571.4,349C571.4,349.4,571.4,349.8,571.4,350.2L571.4,350.2z"/>
<path class="st13" d="M581,350.2c-0.3-127.5-104-230.6-231.5-230.3c-127,0.3-229.9,103.2-230.3,230.3
	c0,127.3,103.3,230.6,230.9,230.6S581,477.4,581,350.2z M561.8,350.2c0,116.8-94.9,211.4-211.7,211.4s-211.7-94.6-211.7-211.4
	c-0.3-116.9,94.2-212,211.1-212.3c116.9-0.3,212,94.2,212.3,211.1C561.8,349.4,561.8,349.8,561.8,350.2L561.8,350.2z"/>
<path class="st14" d="M571.4,350.2c0.3-122.2-98.5-221.5-220.7-221.9C228.5,128,129.2,226.8,128.9,349c0,0.4,0,0.8,0,1.2
	c0,122.2,99.1,221,221.3,221S571.4,472.3,571.4,350.2z M552,350.2C552,461.6,461.6,552,350.2,552s-201.8-90.4-201.8-201.8l0,0
	c0-111.7,90.4-202.1,201.8-202.1S552,238.5,552,350.2z"/>
<path class="st15" d="M561.8,350.2c0.3-116.9-94.2-212-211.1-212.3c-116.9-0.3-212,94.2-212.3,211.1c0,0.4,0,0.8,0,1.2
	c0,116.8,94.9,211.4,211.7,211.4S561.8,466.9,561.8,350.2L561.8,350.2z M542.4,350.2c-0.2,106.2-86.4,192.1-192.5,191.9
	c-106.2-0.2-192.1-86.4-191.9-192.5c0.2-106,86.2-191.9,192.2-191.9c106.2,0,192.2,86.1,192.2,192.3
	C542.4,350,542.4,350.1,542.4,350.2z"/>
<path class="st16" d="M552,350.2C552,238.5,461.5,148,350.2,148s-201.8,90.4-201.8,202.1c0,111.5,90.4,201.8,201.8,201.8
	S552,461.6,552,350.2z M532.8,350.2c-0.3,100.9-82.3,182.4-183.2,182.1c-100.5-0.3-181.8-81.7-182.1-182.1
	c0-100.9,81.7-182.9,182.6-182.9S532.8,249.2,532.8,350.2L532.8,350.2z"/>
<path class="st17" d="M542.4,350.2c0-106.2-86.1-192.2-192.2-192.2c-106.2,0-192.2,86.1-192.2,192.2S244,542.4,350.1,542.4
	c0,0,0,0,0,0C456.3,542.3,542.3,456.3,542.4,350.2z M523.2,350.2c0,95.6-77.5,173.1-173.1,173.1c-95.6,0-173.1-77.5-173.1-173.1
	c0-95.6,77.5-173.1,173.1-173.1C445.7,177.1,523.2,254.6,523.2,350.2L523.2,350.2z"/>
<path class="st18" d="M532.8,350.2c0-100.9-81.7-182.9-182.6-182.9s-182.6,82-182.6,182.9c0.3,100.9,82.3,182.4,183.2,182.1
	C451.1,532,532.5,450.6,532.8,350.2L532.8,350.2z M513.6,350.2c0,90.1-73.4,163.2-163.5,163.2s-163.5-73.1-163.5-163.2
	c0-90.3,73.3-163.5,163.5-163.4C440.5,186.8,513.6,259.9,513.6,350.2L513.6,350.2z"/>
<path class="st19" d="M523.2,350.2c0-95.6-77.5-173.1-173.1-173.1s-173.1,77.5-173.1,173.1s77.5,173.1,173.1,173.1c0,0,0,0,0,0
	c95.5,0.1,173-77.3,173.1-172.9C523.2,350.3,523.2,350.2,523.2,350.2z M504.1,350.2c0,85-68.9,153.9-153.9,153.9
	c-85,0-153.9-68.9-153.9-153.9c0-85,68.9-153.9,153.9-153.9c84.9-0.1,153.8,68.7,153.9,153.7C504.1,350,504.1,350.1,504.1,350.2z"/>
<path class="st20" d="M513.6,350.2c0-90.3-73.2-163.5-163.5-163.5c-90.3,0-163.5,73.2-163.5,163.5c0,90.1,73.4,163.2,163.5,163.2
	S513.6,440.3,513.6,350.2z M494.5,350.2c0,79.7-64.6,144.3-144.3,144.3c-79.7,0-144.3-64.6-144.3-144.3
	c0-79.7,64.6-144.3,144.3-144.3c79.6-0.1,144.2,64.4,144.3,144C494.5,349.9,494.5,350,494.5,350.2L494.5,350.2z"/>
<path class="st21" d="M504.1,350.2c0.2-85-68.6-154-153.6-154.2s-154,68.6-154.2,153.6s68.6,154,153.6,154.2c0.1,0,0.2,0,0.3,0
	C435,503.8,503.9,435,504.1,350.2z M484.6,350.2c-0.2,74.2-60.5,134.3-134.7,134.1c-74.2-0.2-134.3-60.5-134.1-134.7
	c0.2-74.1,60.3-134.1,134.4-134.1c74.2,0,134.4,60.2,134.4,134.4C484.6,350,484.6,350.1,484.6,350.2L484.6,350.2z"/>
<path class="st22" d="M494.5,350.2c0.2-79.7-64.3-144.5-144-144.6s-144.5,64.3-144.6,144c-0.2,79.7,64.3,144.5,144,144.6
	c0.1,0,0.2,0,0.3,0C429.7,494.1,494.3,429.7,494.5,350.2z M475,350.2c-0.2,69-56.2,124.7-125.2,124.6
	c-69-0.2-124.7-56.2-124.6-125.2c0.2-68.8,56-124.6,124.9-124.6c68.9,0,124.8,55.8,124.9,124.7C475,349.9,475,350,475,350.2z"/>
<path class="st23" d="M484.6,350.2c0-74.3-60.2-134.4-134.4-134.4s-134.4,60.2-134.4,134.4s60.2,134.4,134.4,134.4c0,0,0,0,0,0
	C424.4,484.6,484.6,424.4,484.6,350.2z M465.4,350.2c-0.2,63.7-51.9,115.1-115.6,115c-63.7-0.2-115.1-51.9-115-115.6
	c0.2-63.5,51.7-115,115.3-115c63.7,0,115.3,51.7,115.3,115.4C465.4,350,465.4,350.1,465.4,350.2z"/>
<path class="st24" d="M475,350.2c0-69-55.9-124.9-124.9-124.9c-69,0-124.9,55.9-124.9,124.9c0,69,55.9,124.9,124.9,124.9
	c0,0,0,0,0,0C419.1,475,475,419.1,475,350.2C475,350.2,475,350.2,475,350.2z M455.8,350.2c-0.2,58.4-47.6,105.6-106,105.4
	c-58.4-0.2-105.6-47.6-105.4-106c0.2-58.3,47.4-105.4,105.7-105.4c58.4,0,105.7,47.3,105.7,105.7C455.8,349.9,455.8,350,455.8,350.2
	z"/>
<path class="st25" d="M465.4,350.2c0-63.7-51.6-115.3-115.3-115.3s-115.3,51.6-115.3,115.3c0,63.7,51.6,115.3,115.3,115.3
	c0,0,0,0,0,0C413.8,465.4,465.4,413.8,465.4,350.2z M446.3,350.2c-0.2,53.1-43.3,96-96.4,95.8c-53.1-0.2-96-43.3-95.8-96.4
	c0.2-53,43.2-95.8,96.1-95.8C403.3,253.8,446.3,296.9,446.3,350.2C446.3,350.1,446.3,350.1,446.3,350.2z"/>
<path class="st26" d="M455.8,350.2c0-58.4-47.3-105.7-105.7-105.7c-58.4,0-105.7,47.3-105.7,105.7c0,58.4,47.3,105.7,105.7,105.7
	c0,0,0,0,0,0C408.5,455.8,455.8,408.5,455.8,350.2z M436.7,350.2c0,47.8-38.8,86.5-86.5,86.5c-47.8,0-86.5-38.8-86.5-86.5
	c0-47.8,38.8-86.5,86.5-86.5C397.9,263.6,436.7,302.4,436.7,350.2z"/>
<path class="st27" d="M446.3,350.2c0-53.1-43-96.1-96.1-96.1S254,297,254,350.1c0,53.1,43,96.1,96.1,96.1c0,0,0,0,0,0
	C403.2,446.2,446.2,403.2,446.3,350.2z M427.1,350.2c0,42.5-34.5,76.9-77,76.9c-42.5,0-76.9-34.5-76.9-77c0-42.5,34.5-76.9,77-76.9
	c42.5,0,76.9,34.3,76.9,76.8C427.1,350,427.1,350.1,427.1,350.2z"/>
<path class="st28" d="M436.7,350.2c0.1-47.7-38.5-86.5-86.2-86.5h-0.3c-47.8,0-86.5,38.7-86.5,86.5c0,47.8,38.7,86.5,86.5,86.5
	C397.9,436.7,436.7,397.9,436.7,350.2z M417.5,350.2c0,37.2-30.2,67.4-67.4,67.4s-67.4-30.2-67.4-67.4s30.2-67.4,67.4-67.4h0
	c37.1-0.1,67.3,29.9,67.4,67.1C417.5,349.9,417.5,350.1,417.5,350.2z"/>
<path class="st29" d="M427.1,350.2c0.2-42.5-34.2-77.1-76.7-77.2c-42.5-0.2-77.1,34.2-77.2,76.7c-0.2,42.5,34.2,77.1,76.7,77.2
	c0.1,0,0.2,0,0.3,0C392.5,426.8,427,392.5,427.1,350.2z M407.6,350.2c-0.2,31.8-26,57.4-57.8,57.2s-57.4-26-57.2-57.8
	c0.2-31.6,25.9-57.2,57.5-57.2c31.8,0,57.5,25.8,57.5,57.5C407.6,350,407.6,350.1,407.6,350.2z"/>
<path class="st30" d="M417.5,350.2c0.2-37.2-29.9-67.5-67.1-67.7c-37.2-0.2-67.5,29.9-67.7,67.1c-0.2,37.2,29.9,67.5,67.1,67.7
	c0.1,0,0.2,0,0.3,0C387.3,417.3,417.4,387.3,417.5,350.2L417.5,350.2z M398.1,350.2c-0.2,26.5-21.8,47.8-48.2,47.6
	c-26.5-0.2-47.8-21.8-47.6-48.2c0.2-26.3,21.6-47.6,47.9-47.6c26.4,0,47.9,21.4,47.9,47.8C398.1,349.9,398.1,350,398.1,350.2z"/>
<path class="st31" d="M407.6,350.2c0-31.8-25.7-57.5-57.5-57.5c-31.8,0-57.5,25.7-57.5,57.5c0,31.8,25.7,57.5,57.5,57.5c0,0,0,0,0,0
	C381.9,407.6,407.6,381.9,407.6,350.2z M388.5,350.2c-0.2,21.2-17.5,38.2-38.6,38c-21.2-0.2-38.2-17.5-38-38.6
	c0.2-21,17.3-38,38.3-38c21.2,0,38.4,17.3,38.3,38.5C388.5,350.1,388.5,350.1,388.5,350.2z"/>
<path class="st32" d="M398.1,350.2c0-26.5-21.4-47.9-47.9-47.9c-26.5,0-47.9,21.4-47.9,47.9c0,26.5,21.4,47.9,47.9,47.9c0,0,0,0,0,0
	C376.6,398,398,376.6,398.1,350.2z M378.9,350.2c-0.2,15.9-13.2,28.6-29,28.4c-15.9-0.2-28.6-13.2-28.4-29
	c0.2-15.8,13-28.4,28.8-28.4c15.9,0,28.7,12.9,28.7,28.8C378.9,350,378.9,350.1,378.9,350.2z"/>
<path class="st33" d="M388.5,350.2c0-21.2-17.2-38.3-38.3-38.3s-38.3,17.2-38.3,38.3s17.2,38.3,38.3,38.3c0,0,0,0,0,0
	C371.3,388.4,388.4,371.3,388.5,350.2z M369.3,350.2c-0.2,10.6-8.9,19-19.5,18.9c-10.6-0.2-19-8.9-18.9-19.5
	c0.2-10.5,8.7-18.9,19.2-18.9C360.8,330.8,369.4,339.5,369.3,350.2C369.3,350.1,369.3,350.1,369.3,350.2L369.3,350.2z"/>
<path class="st34" d="M378.9,350.2c0.3-15.9-12.4-29-28.3-29.2c-15.9-0.3-29,12.4-29.2,28.3c-0.3,15.9,12.4,29,28.3,29.2
	c0.3,0,0.7,0,1,0C366.1,378.1,378.6,365.6,378.9,350.2z"/>
<path class="st35" d="M369.3,350.2c0-10.6-8.6-19.2-19.2-19.2c-10.6,0-19.2,8.6-19.2,19.2c0,10.6,8.6,19.2,19.2,19.2c0,0,0,0,0,0
	C360.7,369.2,369.2,360.7,369.3,350.2z"/>
<path class="st36" d="M359.7,350.2c0-5.3-4.3-9.6-9.6-9.6c-5.3,0-9.6,4.3-9.6,9.6c0,5.3,4.3,9.6,9.6,9.6c0,0,0,0,0,0
	C355.4,359.7,359.7,355.4,359.7,350.2z"/>
<path class="st37" d="M175.3,538.5c21.3,21.5,46.3,39.1,73.7,52.1l-73.7-168.9L113.6,281c-8,25.3-12,51.6-12,78.1
	C101.6,426.3,128.1,490.7,175.3,538.5z M538.5,603.8C673.2,503.5,701,313,600.7,178.3S310,15.7,175.3,116S12.7,406.8,113,541.5
	c57.3,77,147.7,122.4,243.7,122.5C422.2,664,486,642.9,538.5,603.8L538.5,603.8z M538.5,179.8c9.2,9.1,17.6,18.9,25.2,29.3
	l-25.2,57.5l-93.4,215.3l-48.8-110.5h-78.7L269,481.9l-93.7-215.3l-25.2-57.5c7.7-10.4,16.1-20.2,25.2-29.3
	c15.4-15.9,33-29.6,52.1-40.7l88.9,206.3h81.1l88.9-206.3C505.5,150.2,523,163.9,538.5,179.8L538.5,179.8z M538.5,421.7L600.2,281
	c8.1,25.3,12.2,51.6,12.3,78.1c0.1,67.2-26.5,131.7-74,179.4c-21.3,21.6-46.2,39.2-73.7,52.1L538.5,421.7z M356.7,441.5l71.6,162.6
	c-46.6,13.6-96.2,13.6-142.8,0L356.7,441.5L356.7,441.5z M356.7,281.9l73.7-167.4c-48-14.4-99.1-14.4-147,0L356.7,281.9z"/>
<path class="st38" d="M168.4,529.5c21.4,21.4,46.3,39,73.7,52.1l-73.7-168.9L107,272c-8.2,25.2-12.4,51.6-12.3,78.1
	C94.7,417.3,121.2,481.8,168.4,529.5L168.4,529.5z M531.9,594.8c134.9-100.4,163-291.1,62.6-426.1s-291.1-163-426.1-62.6
	s-163,291.1-62.6,426.1C163.3,609.4,253.9,655,350.2,655C415.6,655,479.4,633.9,531.9,594.8L531.9,594.8z M531.9,170.8
	c9.1,9.1,17.4,18.9,24.9,29.3l-24.9,57.5l-93.7,215.3l-48.5-110.5h-79l-48.5,110.5l-93.7-215.3l-24.9-57.5
	c7.5-10.4,15.8-20.3,24.9-29.3c15.5-15.9,33.2-29.6,52.4-40.7l88.6,206.3h81.4l88.6-206.3C498.7,141.2,516.3,154.9,531.9,170.8
	L531.9,170.8z M531.9,412.7L593.3,272c8.2,25.2,12.4,51.6,12.3,78.1c0,67.2-26.4,131.6-73.7,179.4c-21.4,21.4-46.3,39-73.7,52.1
	L531.9,412.7z M350.2,432.5l71.3,162.6c-46.5,13.6-96,13.6-142.5,0L350.2,432.5z M350.2,272.6l73.4-167.1
	c-47.9-14.4-98.9-14.4-146.7,0L350.2,272.6z"/>
</svg>
